SplineFontDB: 3.0
FontName: Ovo
FullName: Ovo
FamilyName: Ovo
Weight: Book
Copyright: Copyright (c) 2011, Sorkin Type Co (www.sorkintype.com)\nwith Reserved Font Name "Ovo".
Version: 1.002
ItalicAngle: 0
UnderlinePosition: 42
UnderlineWidth: 85
Ascent: 1638
Descent: 410
sfntRevision: 0x00010083
LayerCount: 2
Layer: 0 1 "Back"  1
Layer: 1 1 "Fore"  0
NeedsXUIDChange: 1
XUID: [1021 631 1661839179 4079017]
FSType: 0
OS2Version: 3
OS2_WeightWidthSlopeOnly: 0
OS2_UseTypoMetrics: 1
CreationTime: 1310758080
ModificationTime: 1310746764
PfmFamily: 17
TTFWeight: 400
TTFWidth: 5
LineGap: 0
VLineGap: 0
Panose: 2 2 5 2 7 4 0 6 4 6
OS2TypoAscent: 132
OS2TypoAOffset: 1
OS2TypoDescent: -124
OS2TypoDOffset: 1
OS2TypoLinegap: 0
OS2WinAscent: 0
OS2WinAOffset: 1
OS2WinDescent: 0
OS2WinDOffset: 1
HheadAscent: 0
HheadAOffset: 1
HheadDescent: 0
HheadDOffset: 1
OS2SubXSize: 1434
OS2SubYSize: 1331
OS2SubXOff: 0
OS2SubYOff: 287
OS2SupXSize: 1434
OS2SupYSize: 1331
OS2SupXOff: 0
OS2SupYOff: 977
OS2StrikeYSize: 85
OS2StrikeYPos: 572
OS2Vendor: 'STC '
OS2CodePages: 00000001.00000000
OS2UnicodeRanges: 800000ef.4000000a.00000000.00000000
MarkAttachClasses: 1
DEI: 91125
TtTable: prep
PUSHW_1
 511
SCANCTRL
PUSHB_1
 4
SCANTYPE
EndTTInstrs
ShortTable: maxp 16
  1
  0
  270
  198
  7
  0
  0
  1
  0
  0
  0
  0
  0
  0
  0
  0
EndShort

StartChar: A
Encoding: 65 65 4
Width: 1413
Flags: HW
LayerCount: 2
Fore
SplineSet
127.5 -7.5 m 128,-1,1
 83 -15 83 -15 31.5 -15 c 128,-1,2
 -20 -15 -20 -15 -20 18.5 c 128,-1,3
 -20 52 -20 52 27 52 c 0,4,5
 76.0666666667 52 76.0666666667 52 97.0333333333 70.5 c 0,6,7
 131.194495413 100.642201835 131.194495413 100.642201835 164.097247706 170.821100917 c 128,-1,8
 197 241 197 241 225.5 302 c 128,-1,9
 254 363 254 363 291 444.5 c 128,-1,10
 328 526 328 526 372.5 626.5 c 128,-1,11
 417 727 417 727 466 840.5 c 0,12,13
 593.944444444 1136.86111111 593.944444444 1136.86111111 634.972222222 1239.43055556 c 128,-1,14
 676 1342 676 1342 680.5 1353 c 128,-1,15
 685 1364 685 1364 690.5 1373 c 0,16,17
 703.333333333 1394 703.333333333 1394 712.166666667 1394 c 128,-1,18
 721 1394 721 1394 727 1391.5 c 128,-1,19
 733 1389 733 1389 739.5 1381.5 c 0,20,21
 755.195121951 1363.3902439 755.195121951 1363.3902439 770.097560976 1325.69512195 c 128,-1,22
 785 1288 785 1288 810.5 1224 c 128,-1,23
 836 1160 836 1160 869 1079 c 128,-1,24
 902 998 902 998 939 905 c 128,-1,25
 976 812 976 812 1013.5 719.5 c 128,-1,26
 1051 627 1051 627 1086.5 540 c 128,-1,27
 1122 453 1122 453 1150.5 383 c 0,28,29
 1235.56238004 174.074856046 1235.56238004 174.074856046 1259.78119002 133.037428023 c 128,-1,30
 1284 92 1284 92 1300.5 76 c 0,31,32
 1325.25 52 1325.25 52 1374.125 52 c 128,-1,33
 1423 52 1423 52 1423 18.5 c 128,-1,34
 1423 -15 1423 -15 1360 -15 c 0,35,36
 1333 -15 1333 -15 1313.5 -12.5 c 128,-1,37
 1294 -10 1294 -10 1274.5 -7.5 c 0,38,39
 1216 0 1216 0 1171 0 c 1,40,-1
 978 -15 l 1,41,42
 913 -15 913 -15 913 22 c 0,43,44
 913 52 913 52 949 52 c 257,45,-1
 1009 45 l 1,46,47
 1047 45 1047 45 1059 61.5 c 128,-1,48
 1071 78 1071 78 1071 103 c 0,49,50
 1071 149.869565217 1071 149.869565217 1031 249 c 2,51,-1
 948 457 l 1,52,-1
 393 457 l 1,53,54
 369 397 369 397 348.5 347 c 128,-1,55
 328 297 328 297 311 249.5 c 0,56,57
 284 174.058823529 284 174.058823529 284 130.529411765 c 128,-1,58
 284 87 284 87 299.5 66.5 c 128,-1,59
 315 46 315 46 358 46 c 1,60,-1
 418 51 l 1,61,62
 454 51 454 51 454 22 c 0,63,64
 454 -15 454 -15 389 -15 c 1,65,-1
 223 0 l 1,66,0
 172 0 172 0 127.5 -7.5 c 128,-1,1
914 542 m 1,67,-1
 676 1138 l 1,68,69
 606.510638298 962.765957447 606.510638298 962.765957447 429 542 c 1,70,-1
 914 542 l 1,67,-1
EndSplineSet
EndChar

StartChar: H
Encoding: 72 72 5
Width: 1522
Flags: HW
LayerCount: 2
Fore
SplineSet
133 -15 m 0,0,1
 68 -15 68 -15 68 22 c 0,2,3
 68 51 68 51 104 51 c 1,4,-1
 153 46 l 1,5,6
 207.2 46 207.2 46 228 98 c 0,7,8
 251 155.5 251 155.5 251 317 c 2,9,-1
 251 1023 l 2,10,11
 251 1188.41666667 251 1188.41666667 233.5 1230.70833333 c 128,-1,12
 216 1273 216 1273 197.5 1283.5 c 128,-1,13
 179 1294 179 1294 153 1294 c 1,14,-1
 104 1290 l 1,15,16
 68 1290 68 1290 68 1319 c 0,17,18
 68 1356 68 1356 123 1356 c 128,-1,19
 178 1356 178 1356 227.5 1348 c 128,-1,20
 277 1340 277 1340 331 1340 c 256,21,22
 385 1340 385 1340 432.5 1348 c 128,-1,23
 480 1356 480 1356 535 1356 c 128,-1,24
 590 1356 590 1356 590 1319 c 0,25,26
 590 1290 590 1290 554 1290 c 1,27,-1
 506 1294 l 1,28,29
 451.8 1294 451.8 1294 431 1242 c 0,30,31
 408 1184.5 408 1184.5 408 1023 c 2,32,-1
 408 796 l 1,33,-1
 1115 796 l 1,34,-1
 1115 1023 l 2,35,36
 1115 1188.41666667 1115 1188.41666667 1097.5 1230.70833333 c 128,-1,37
 1080 1273 1080 1273 1061.5 1283.5 c 128,-1,38
 1043 1294 1043 1294 1017 1294 c 1,39,-1
 968 1290 l 1,40,41
 932 1290 932 1290 932 1319 c 0,42,43
 932 1356 932 1356 987 1356 c 128,-1,44
 1042 1356 1042 1356 1091.5 1348 c 128,-1,45
 1141 1340 1141 1340 1195 1340 c 256,46,47
 1249 1340 1249 1340 1296.5 1348 c 128,-1,48
 1344 1356 1344 1356 1399 1356 c 128,-1,49
 1454 1356 1454 1356 1454 1319 c 0,50,51
 1454 1290 1454 1290 1418 1290 c 1,52,-1
 1370 1294 l 1,53,54
 1315.8 1294 1315.8 1294 1295 1242 c 0,55,56
 1272 1184.5 1272 1184.5 1272 1023 c 2,57,-1
 1272 317 l 2,58,59
 1272 154.041666667 1272 154.041666667 1289.5 111.020833333 c 128,-1,60
 1307 68 1307 68 1325.5 57 c 128,-1,61
 1344 46 1344 46 1370 46 c 1,62,-1
 1418 51 l 1,63,64
 1454 51 1454 51 1454 22 c 0,65,66
 1454 -15 1454 -15 1390 -15 c 0,67,68
 1357.33333333 -15 1357.33333333 -15 1319.66666667 -9 c 0,69,70
 1263.16666667 0 1263.16666667 0 1197.08333333 0 c 128,-1,71
 1131 0 1131 0 1080 -7.5 c 128,-1,72
 1029 -15 1029 -15 997 -15 c 0,73,74
 932 -15 932 -15 932 22 c 0,75,76
 932 51 932 51 968 51 c 1,77,-1
 1017 46 l 1,78,79
 1071.2 46 1071.2 46 1092 98 c 0,80,81
 1115 155.5 1115 155.5 1115 317 c 2,82,-1
 1115 701 l 1,83,-1
 408 701 l 1,84,-1
 408 317 l 2,85,86
 408 154.041666667 408 154.041666667 425.5 111.020833333 c 128,-1,87
 443 68 443 68 461.5 57 c 128,-1,88
 480 46 480 46 506 46 c 1,89,-1
 554 51 l 1,90,91
 590 51 590 51 590 22 c 0,92,93
 590 -15 590 -15 526 -15 c 0,94,95
 493.333333333 -15 493.333333333 -15 455.666666667 -9 c 0,96,97
 335.722175021 10.106202209 335.722175021 10.106202209 250.361087511 -2.4468988955 c 128,-1,98
 165 -15 165 -15 133 -15 c 0,0,1
EndSplineSet
EndChar

StartChar: I
Encoding: 73 73 6
Width: 678
Flags: HW
LayerCount: 2
Fore
SplineSet
146 -15 m 0,0,1
 81 -15 81 -15 81 22 c 0,2,3
 81 51 81 51 117 51 c 1,4,-1
 166 46 l 1,5,6
 220.2 46 220.2 46 241 98 c 0,7,8
 264 155.5 264 155.5 264 317 c 1,9,-1
 259 1023 l 1,10,11
 259 1188.41666667 259 1188.41666667 241.5 1230.70833333 c 128,-1,12
 224 1273 224 1273 205.5 1283.5 c 128,-1,13
 187 1294 187 1294 161 1294 c 1,14,-1
 112 1290 l 1,15,16
 76 1290 76 1290 76 1319 c 0,17,18
 76 1356 76 1356 131 1356 c 128,-1,19
 186 1356 186 1356 235.5 1348 c 128,-1,20
 285 1340 285 1340 339 1340 c 256,21,22
 393 1340 393 1340 442 1348 c 128,-1,23
 491 1356 491 1356 545.5 1356 c 128,-1,24
 600 1356 600 1356 600 1319 c 0,25,26
 600 1290 600 1290 564 1290 c 1,27,-1
 516 1294 l 1,28,29
 461.8 1294 461.8 1294 441 1242 c 0,30,31
 418 1184.5 418 1184.5 418 1023 c 1,32,-1
 423 317 l 1,33,34
 423 156.5 423 156.5 442.5 112.25 c 128,-1,35
 462 68 462 68 482 57 c 128,-1,36
 502 46 502 46 528 46 c 1,37,-1
 576 51 l 1,38,39
 612 51 612 51 612 22 c 0,40,41
 612 -15 612 -15 548 -15 c 0,42,43
 515.333333333 -15 515.333333333 -15 477.666666667 -9 c 0,44,45
 353.401869159 10.7943925234 353.401869159 10.7943925234 265.700934579 -2.10280373832 c 128,-1,46
 178 -15 178 -15 146 -15 c 0,0,1
EndSplineSet
EndChar

StartChar: D
Encoding: 68 68 7
Width: 1537
Flags: HW
LayerCount: 2
Fore
SplineSet
133 -15 m 1,0,1
 68 -15 68 -15 68 22 c 0,2,3
 68 51 68 51 104 51 c 1,4,-1
 153 46 l 1,5,6
 212.808823529 46 212.808823529 46 233.5 113 c 0,7,8
 251 169.666666667 251 169.666666667 251 317 c 2,9,-1
 251 1023 l 2,10,11
 251 1170.33333333 251 1170.33333333 237 1215.66666667 c 128,-1,12
 223 1261 223 1261 203.5 1277.5 c 128,-1,13
 184 1294 184 1294 153 1294 c 1,14,-1
 104 1290 l 1,15,16
 68 1290 68 1290 68 1319 c 0,17,18
 68 1356 68 1356 123 1356 c 128,-1,19
 178 1356 178 1356 219 1348 c 128,-1,20
 260 1340 260 1340 300.5 1340 c 0,21,22
 405.5 1340 405.5 1340 476.25 1350 c 0,23,24
 582.375 1365 582.375 1365 719.6875 1365 c 128,-1,25
 857 1365 857 1365 993.5 1316 c 128,-1,26
 1130 1267 1130 1267 1228.5 1177 c 0,27,28
 1437 986.492385787 1437 986.492385787 1437 675 c 0,29,30
 1437 379.695431472 1437 379.695431472 1232.5 183.5 c 0,31,32
 1020.38624339 -20 1020.38624339 -20 676 -20 c 0,33,34
 592.75 -20 592.75 -20 514.875 -13 c 0,35,36
 370.25 0 370.25 0 305 0 c 1,37,-1
 133 -15 l 1,0,1
408 461 m 2,38,39
 408 283 408 283 417 130 c 1,40,41
 549.552631579 61 549.552631579 61 716 61 c 0,42,43
 837.454545455 61 837.454545455 61 967 118 c 0,44,45
 1173.32279534 207.850249584 1173.32279534 207.850249584 1236.5 439.5 c 0,46,47
 1259 522 1259 522 1259 652.5 c 128,-1,48
 1259 783 1259 783 1214.5 905.5 c 128,-1,49
 1170 1028 1170 1028 1090 1112.5 c 0,50,51
 926.686390533 1285 926.686390533 1285 651 1285 c 0,52,53
 454.391304348 1285 454.391304348 1285 425 1233 c 0,54,55
 409.620853081 1205.31753555 409.620853081 1205.31753555 408.81042654 1169.65876777 c 128,-1,56
 408 1134 408 1134 408 1100 c 2,57,-1
 408 461 l 2,38,39
EndSplineSet
EndChar

StartChar: E
Encoding: 69 69 8
Width: 1153
Flags: HW
LayerCount: 2
Fore
SplineSet
120 -15 m 0,0,1
 65 -15 65 -15 65 22 c 0,2,3
 65 51 65 51 101 51 c 1,4,-1
 150 46 l 1,5,6
 206.333333333 46 206.333333333 46 225.5 93.5 c 0,7,8
 248 149.260869565 248 149.260869565 248 314 c 2,9,-1
 248 1023 l 2,10,11
 248 1187.45454545 248 1187.45454545 232.5 1229.72727273 c 128,-1,12
 217 1272 217 1272 198 1283 c 128,-1,13
 179 1294 179 1294 150 1294 c 1,14,-1
 101 1290 l 1,15,16
 65 1290 65 1290 65 1319 c 0,17,18
 65 1356 65 1356 118.5 1356 c 128,-1,19
 172 1356 172 1356 206.5 1353.5 c 128,-1,20
 241 1351 241 1351 276 1348 c 0,21,22
 369.333333333 1340 369.333333333 1340 422.666666667 1340 c 128,-1,23
 476 1340 476 1340 536 1342.5 c 128,-1,24
 596 1345 596 1345 669.5 1348 c 0,25,26
 865.5 1356 865.5 1356 940.75 1356 c 128,-1,27
 1016 1356 1016 1356 1024.5 1347 c 128,-1,28
 1033 1338 1033 1338 1033 1322.5 c 128,-1,29
 1033 1307 1033 1307 1032.5 1293 c 128,-1,30
 1032 1279 1032 1279 1031 1262 c 0,31,32
 1029.66666667 1239.33333333 1029.66666667 1239.33333333 1024.83333333 1193.66666667 c 128,-1,33
 1020 1148 1020 1148 1013 1132.5 c 128,-1,34
 1006 1117 1006 1117 993 1117 c 128,-1,35
 980 1117 980 1117 975 1123.5 c 128,-1,36
 970 1130 970 1130 961.5 1153.5 c 128,-1,37
 953 1177 953 1177 931.5 1198.5 c 128,-1,38
 910 1220 910 1220 863.5 1234 c 0,39,40
 773.821428571 1261 773.821428571 1261 531 1261 c 2,41,-1
 442 1261 l 2,42,43
 418 1261 418 1261 411.5 1254 c 128,-1,44
 405 1247 405 1247 405 1222 c 2,45,-1
 405 801 l 1,46,47
 524 787 524 787 602.5 787 c 128,-1,48
 681 787 681 787 714.5 788 c 128,-1,49
 748 789 748 789 770 793.5 c 0,50,51
 808.942056075 801.465420561 808.942056075 801.465420561 826.471028037 829.23271028 c 0,52,53
 859.78203359 882 859.78203359 882 881 882 c 0,54,55
 908 882 908 882 908 854 c 1,56,-1
 873 712 l 1,57,-1
 877 636 l 1,58,59
 877 564 877 564 843 564 c 0,60,61
 814 564 814 564 814 602.5 c 128,-1,62
 814 641 814 641 809.5 660 c 128,-1,63
 805 679 805 679 784.5 689.5 c 0,64,65
 752.285714286 706 752.285714286 706 628.142857143 706 c 128,-1,66
 504 706 504 706 405 695 c 1,67,-1
 405 458 l 2,68,69
 405 237 405 237 415 93 c 1,70,71
 496 75 496 75 591 75 c 128,-1,72
 686 75 686 75 753.5 80 c 128,-1,73
 821 85 821 85 870.5 100 c 0,74,75
 967.442748092 129.376590331 967.442748092 129.376590331 1013 211 c 0,76,77
 1032.8 247 1032.8 247 1052.9 247 c 128,-1,78
 1073 247 1073 247 1073 218 c 0,79,80
 1073 205.555555556 1073 205.555555556 1066.5 186.777777778 c 0,81,82
 1057.6 161.066666667 1057.6 161.066666667 1042.8 109.533333333 c 128,-1,83
 1028 58 1028 58 1020 35 c 128,-1,84
 1012 12 1012 12 1002.5 0 c 0,85,86
 986.666666667 -20 986.666666667 -20 942.833333333 -20 c 128,-1,87
 899 -20 899 -20 858 -19.5 c 128,-1,88
 817 -19 817 -19 771.5 -17.5 c 0,89,90
 720.129032258 -15.8064516129 720.129032258 -15.8064516129 610.564516129 -10.4032258065 c 0,91,92
 339.171598734 2.98064396054 339.171598734 2.98064396054 292.085799367 -1.00967801973 c 128,-1,93
 245 -5 245 -5 221 -7.5 c 128,-1,94
 197 -10 197 -10 174 -12.5 c 128,-1,95
 151 -15 151 -15 120 -15 c 0,0,1
EndSplineSet
EndChar

StartChar: O
Encoding: 79 79 9
Width: 1585
Flags: HW
LayerCount: 2
Fore
SplineSet
100 677 m 0,0,1
 100 828 100 828 156.5 954.5 c 128,-1,2
 213 1081 213 1081 309.5 1172.5 c 128,-1,3
 406 1264 406 1264 533 1314.5 c 128,-1,4
 660 1365 660 1365 807 1365 c 128,-1,5
 954 1365 954 1365 1080 1311.5 c 128,-1,6
 1206 1258 1206 1258 1296 1163.5 c 0,7,8
 1485 965.05 1485 965.05 1485 659 c 0,9,10
 1485 369 1485 369 1289.5 173.5 c 0,11,12
 1091 -25 1091 -25 784 -25 c 0,13,14
 484.015957447 -25 484.015957447 -25 290.5 176 c 0,15,16
 100 373.867403315 100 373.867403315 100 677 c 0,0,1
271 734.5 m 0,17,18
 271 604 271 604 313.5 478.5 c 128,-1,19
 356 353 356 353 433.5 259.5 c 0,20,21
 600.518716578 58 600.518716578 58 856 58 c 0,22,23
 1053.16083916 58 1053.16083916 58 1179 205.5 c 0,24,25
 1309 357.87704918 1309 357.87704918 1309 606 c 0,26,27
 1309 899.142857143 1309 899.142857143 1151.5 1092 c 0,28,29
 996.333333333 1282 996.333333333 1282 757 1282 c 0,30,31
 559.549295775 1282 559.549295775 1282 418 1132 c 0,32,33
 271 976.223880597 271 976.223880597 271 734.5 c 0,17,18
EndSplineSet
EndChar

StartChar: B
Encoding: 66 66 10
Width: 1229
Flags: HW
LayerCount: 2
Fore
SplineSet
130 -15 m 1,0,1
 65 -15 65 -15 65 22 c 0,2,3
 65 51 65 51 101 51 c 1,4,-1
 150 46 l 1,5,6
 204.2 46 204.2 46 225 98 c 0,7,8
 248 155.5 248 155.5 248 317 c 2,9,-1
 248 1023 l 2,10,11
 248 1191.41666667 248 1191.41666667 231 1233.20833333 c 128,-1,12
 214 1275 214 1275 194 1285 c 128,-1,13
 174 1295 174 1295 144 1295 c 1,14,-1
 101 1290 l 1,15,16
 65 1290 65 1290 65 1319 c 0,17,18
 65 1356 65 1356 120 1356 c 128,-1,19
 175 1356 175 1356 216 1348 c 128,-1,20
 257 1340 257 1340 294.5 1340 c 128,-1,21
 332 1340 332 1340 363 1344 c 128,-1,22
 394 1348 394 1348 428.5 1352.5 c 0,23,24
 524.333333333 1365 524.333333333 1365 596.166666667 1365 c 128,-1,25
 668 1365 668 1365 740.5 1344 c 128,-1,26
 813 1323 813 1323 865 1284.5 c 0,27,28
 975 1203.05769231 975 1203.05769231 975 1074 c 0,29,30
 975 902.636363636 975 902.636363636 830 784 c 1,31,32
 955.032724984 749.154814349 955.032724984 749.154814349 1040 644.5 c 0,33,34
 1129 534.87804878 1129 534.87804878 1129 401 c 0,35,36
 1129 210.6 1129 210.6 1003 93 c 0,37,38
 876.571428571 -25 876.571428571 -25 673 -25 c 0,39,40
 609 -25 609 -25 524 -16.5 c 0,41,42
 359 -5.3290705182e-15 359 -5.3290705182e-15 302 0 c 1,43,-1
 130 -15 l 1,0,1
405 803 m 1,44,45
 516.833333333 792 516.833333333 792 587.416666667 792 c 0,46,47
 688 792 688 792 711 795 c 128,-1,48
 734 798 734 798 753 815 c 128,-1,49
 772 832 772 832 788 859 c 0,50,51
 825 921.4375 825 921.4375 825 991.21875 c 128,-1,52
 825 1061 825 1061 801 1114.5 c 128,-1,53
 777 1168 777 1168 736 1205.5 c 0,54,55
 652.36 1282 652.36 1282 525 1282 c 0,56,57
 463.666666667 1282 463.666666667 1282 410 1261 c 1,58,59
 407.208333333 1210.75 407.208333333 1210.75 406.604166667 1185.375 c 128,-1,60
 406 1160 406 1160 405.5 1140 c 128,-1,61
 405 1120 405 1120 405 1104 c 2,62,-1
 405 803 l 1,44,45
769.5 682.5 m 128,-1,64
 709 714 709 714 655 714 c 2,65,-1
 545.5 714 l 2,66,67
 490 714 490 714 405 709 c 1,68,-1
 405 461 l 2,69,70
 405 236.75 405 236.75 412 116 c 1,71,72
 500.827586207 60 500.827586207 60 641 60 c 0,73,74
 863.87037037 60 863.87037037 60 933.5 220 c 0,75,76
 957 274 957 274 957 345.5 c 128,-1,77
 957 417 957 417 935 482.5 c 128,-1,78
 913 548 913 548 871.5 599.5 c 128,-1,63
 830 651 830 651 769.5 682.5 c 128,-1,64
EndSplineSet
EndChar

StartChar: C
Encoding: 67 67 11
Width: 1488
Flags: HW
LayerCount: 2
Fore
SplineSet
1368 1051 m 0,0,1
 1368 1012 1368 1012 1341 1012 c 256,2,3
 1317 1012 1317 1012 1301.5 1060.5 c 128,-1,4
 1286 1109 1286 1109 1243 1152 c 128,-1,5
 1200 1195 1200 1195 1139.5 1224.5 c 0,6,7
 1015.42372881 1285 1015.42372881 1285 871.711864407 1285 c 128,-1,8
 728 1285 728 1285 623.5 1246.5 c 128,-1,9
 519 1208 519 1208 444.5 1135.5 c 0,10,11
 288 983.201342282 288 983.201342282 288 723 c 0,12,13
 288 434.602409639 288 434.602409639 464 248 c 0,14,15
 639.431818182 62 639.431818182 62 912 62 c 0,16,17
 1215.83088235 62 1215.83088235 62 1382 341 c 0,18,19
 1392.80701754 358.561403509 1392.80701754 358.561403509 1405 361 c 1,20,21
 1416 361 1416 361 1427 337 c 128,-1,22
 1438 313 1438 313 1438 283 c 0,23,24
 1438 233 1438 233 1353 153 c 128,-1,25
 1268 73 1268 73 1146.5 24 c 128,-1,26
 1025 -25 1025 -25 863.5 -25 c 128,-1,27
 702 -25 702 -25 557.5 27.5 c 128,-1,28
 413 80 413 80 311.5 171 c 0,29,30
 100 360.620689655 100 360.620689655 100 646 c 0,31,32
 100 968.235294118 100 968.235294118 314 1166.5 c 0,33,34
 528.253968254 1365 528.253968254 1365 877 1365 c 0,35,36
 1128.59375 1365 1128.59375 1365 1294 1298 c 0,37,38
 1326.32352941 1284.14705882 1326.32352941 1284.14705882 1335.66176471 1271.07352941 c 0,39,40
 1355.58823529 1243.17647059 1355.58823529 1243.17647059 1359.29411765 1187.58823529 c 128,-1,41
 1363 1132 1363 1132 1364.5 1111 c 0,42,43
 1368 1062 1368 1062 1368 1051 c 0,0,1
EndSplineSet
EndChar

StartChar: F
Encoding: 70 70 12
Width: 1067
Flags: HW
LayerCount: 2
Fore
SplineSet
133 -15 m 0,0,1
 68 -15 68 -15 68 22 c 0,2,3
 68 51 68 51 104 51 c 1,4,-1
 153 46 l 1,5,6
 212.808823529 46 212.808823529 46 233.5 113 c 0,7,8
 251 169.666666667 251 169.666666667 251 317 c 2,9,-1
 251 1023 l 2,10,11
 251 1170.33333333 251 1170.33333333 237 1215.66666667 c 128,-1,12
 223 1261 223 1261 203.5 1277.5 c 128,-1,13
 184 1294 184 1294 153 1294 c 1,14,-1
 104 1290 l 1,15,16
 68 1290 68 1290 68 1319 c 0,17,18
 68 1356 68 1356 121.5 1356 c 128,-1,19
 175 1356 175 1356 209 1353.5 c 128,-1,20
 243 1351 243 1351 277.5 1348 c 0,21,22
 369.5 1340 369.5 1340 416.75 1340 c 128,-1,23
 464 1340 464 1340 518 1342.5 c 128,-1,24
 572 1345 572 1345 642 1348 c 0,25,26
 828.666666667 1356 828.666666667 1356 901.833333333 1356 c 128,-1,27
 975 1356 975 1356 983.5 1347 c 128,-1,28
 992 1338 992 1338 992 1322.5 c 128,-1,29
 992 1307 992 1307 991.5 1293 c 128,-1,30
 991 1279 991 1279 990 1262 c 0,31,32
 988.666666667 1239.33333333 988.666666667 1239.33333333 983.833333333 1193.66666667 c 128,-1,33
 979 1148 979 1148 972 1132.5 c 128,-1,34
 965 1117 965 1117 952 1117 c 128,-1,35
 939 1117 939 1117 934 1123.5 c 128,-1,36
 929 1130 929 1130 920.5 1153.5 c 128,-1,37
 912 1177 912 1177 890.5 1198.5 c 128,-1,38
 869 1220 869 1220 822.5 1234 c 0,39,40
 732.821428571 1261 732.821428571 1261 490 1261 c 2,41,-1
 441 1261 l 2,42,43
 417 1261 417 1261 410.5 1254 c 128,-1,44
 404 1247 404 1247 404 1222 c 2,45,-1
 404 779 l 1,46,47
 499.333333333 768 499.333333333 768 574.166666667 768 c 128,-1,48
 649 768 649 768 682.5 769 c 128,-1,49
 716 770 716 770 738 774.5 c 0,50,51
 776.942056075 782.465420561 776.942056075 782.465420561 794.471028037 810.23271028 c 0,52,53
 827.78203359 863 827.78203359 863 849 863 c 0,54,55
 876 863 876 863 876 835 c 1,56,-1
 841 693 l 1,57,-1
 845 617 l 1,58,59
 845 545 845 545 811 545 c 0,60,61
 782 545 782 545 782 583.5 c 128,-1,62
 782 622 782 622 777.5 641 c 128,-1,63
 773 660 773 660 752.5 670.5 c 0,64,65
 720.285714286 687 720.285714286 687 575 687 c 0,66,67
 572 687 572 687 404 679 c 1,68,-1
 404 317 l 2,69,70
 404 166.428571429 404 166.428571429 417.5 122.714285714 c 128,-1,71
 431 79 431 79 450.5 62.5 c 128,-1,72
 470 46 470 46 502 46 c 1,73,-1
 556 51 l 257,74,75
 594 51 594 51 594 22 c 0,76,77
 594 -15 594 -15 528 -15 c 1,78,-1
 340 0 l 1,79,80
 267 0 267 0 216 -7.5 c 128,-1,81
 165 -15 165 -15 133 -15 c 0,0,1
EndSplineSet
EndChar

StartChar: G
Encoding: 71 71 13
Width: 1514
Flags: HW
LayerCount: 2
Fore
SplineSet
1406 638 m 1,0,1
 1445 638 1445 638 1445 609 c 256,2,3
 1445 595 1445 595 1436.5 587.5 c 128,-1,4
 1428 580 1428 580 1409.5 572.5 c 128,-1,5
 1391 565 1391 565 1381.5 553.5 c 128,-1,6
 1372 542 1372 542 1366.5 519 c 0,7,8
 1356 475.090909091 1356 475.090909091 1356 413.045454545 c 128,-1,9
 1356 351 1356 351 1357 331.5 c 128,-1,10
 1358 312 1358 312 1359.5 292 c 0,11,12
 1364.96226415 219.169811321 1364.96226415 219.169811321 1369.98113208 196.58490566 c 128,-1,13
 1375 174 1375 174 1375 153 c 128,-1,14
 1375 132 1375 132 1349 108 c 128,-1,15
 1323 84 1323 84 1280 63 c 128,-1,16
 1237 42 1237 42 1181 25.5 c 128,-1,17
 1125 9 1125 9 1065.5 -3 c 0,18,19
 941.541666667 -28 941.541666667 -28 838 -28 c 0,20,21
 478.590425532 -28 478.590425532 -28 272.5 177 c 0,22,23
 83 365.497354497 83 365.497354497 83 652 c 0,24,25
 83 975.049751244 83 975.049751244 292.5 1171 c 0,26,27
 503.122340426 1368 503.122340426 1368 851 1368 c 0,28,29
 1108.9375 1368 1108.9375 1368 1262 1306 c 0,30,31
 1292.47474747 1292.93939394 1292.47474747 1292.93939394 1302.73737374 1279.46969697 c 0,32,33
 1323.72859216 1251.91872279 1323.72859216 1251.91872279 1327.36429608 1194.95936139 c 128,-1,34
 1331 1138 1331 1138 1332.5 1116.5 c 0,35,36
 1336 1066.33333333 1336 1066.33333333 1336 1054 c 0,37,38
 1336 1015 1336 1015 1309 1015 c 0,39,40
 1283.25 1015 1283.25 1015 1268.625 1064.5 c 128,-1,41
 1254 1114 1254 1114 1211 1158 c 128,-1,42
 1168 1202 1168 1202 1108 1232 c 0,43,44
 988 1292 988 1292 842 1292 c 128,-1,45
 696 1292 696 1292 594.5 1252.5 c 128,-1,46
 493 1213 493 1213 421.5 1139 c 0,47,48
 273 985.307692308 273 985.307692308 273 723 c 0,49,50
 273 442.869565217 273 442.869565217 444.5 249 c 0,51,52
 525 158 525 158 636.5 105.5 c 128,-1,53
 748 53 748 53 880 53 c 0,54,55
 1089.04761905 53 1089.04761905 53 1153 132 c 0,56,57
 1194 183.695652174 1194 183.695652174 1194 274 c 2,58,-1
 1194 491 l 2,59,60
 1194 538.5 1194 538.5 1172.5 549.25 c 0,61,62
 1143 564 1143 564 1092.5 564 c 0,63,64
 1006 564 1006 564 1006 602 c 128,-1,65
 1006 640 1006 640 1074 640 c 1,66,-1
 1275 627 l 1,67,-1
 1406 638 l 1,0,1
EndSplineSet
EndChar

StartChar: M
Encoding: 77 77 14
Width: 1901
Flags: HW
LayerCount: 2
Fore
SplineSet
128 -15 m 0,0,1
 65 -15 65 -15 65 20.5 c 128,-1,2
 65 56 65 56 107 56 c 0,3,4
 170.066666667 56 170.066666667 56 196.033333333 75 c 0,5,6
 247.031578947 112.315789474 247.031578947 112.315789474 256 202 c 0,7,8
 258 223 258 223 260.5 266 c 128,-1,9
 263 309 263 309 266.5 366.5 c 128,-1,10
 270 424 270 424 273 493.5 c 128,-1,11
 276 563 276 563 279.5 636.5 c 128,-1,12
 283 710 283 710 286 784 c 128,-1,13
 289 858 289 858 291 925 c 0,14,15
 296 1092.5 296 1092.5 296 1136.25 c 128,-1,16
 296 1180 296 1180 289.5 1205 c 128,-1,17
 283 1230 283 1230 271 1245.5 c 0,18,19
 249.300518135 1273.52849741 249.300518135 1273.52849741 200.150259067 1280.7642487 c 0,20,21
 114 1293.4470272 114 1293.4470272 114 1318 c 0,22,23
 114 1335 114 1335 126.5 1345.5 c 128,-1,24
 139 1356 139 1356 159 1356 c 1,25,-1
 316 1342 l 257,26,-1
 404 1346 l 1,27,28
 428 1346 428 1346 444 1325.5 c 128,-1,29
 460 1305 460 1305 480 1265 c 2,30,-1
 964 262 l 1,31,32
 981 301 981 301 1009 365 c 128,-1,33
 1037 429 1037 429 1070.5 507 c 128,-1,34
 1104 585 1104 585 1142 672 c 128,-1,35
 1180 759 1180 759 1217 845 c 128,-1,36
 1254 931 1254 931 1288 1010 c 128,-1,37
 1322 1089 1322 1089 1348 1150.5 c 128,-1,38
 1374 1212 1374 1212 1391 1251 c 128,-1,39
 1408 1290 1408 1290 1414.5 1306.5 c 128,-1,40
 1421 1323 1421 1323 1440 1337 c 128,-1,41
 1459 1351 1459 1351 1485 1351 c 257,42,-1
 1579 1347 l 1,43,-1
 1699 1356 l 1,44,45
 1774 1356 1774 1356 1774 1319 c 0,46,47
 1774 1301.2 1774 1301.2 1741 1294.6 c 128,-1,48
 1708 1288 1708 1288 1685 1283 c 128,-1,49
 1662 1278 1662 1278 1642 1267.5 c 0,50,51
 1596 1243.35 1596 1243.35 1596 1185 c 1,52,-1
 1647 206 l 2,53,54
 1654.61236623 76.5897740785 1654.61236623 76.5897740785 1744 60.5 c 0,55,56
 1769 56 1769 56 1793 56 c 0,57,58
 1836 56 1836 56 1836 20.5 c 128,-1,59
 1836 -15 1836 -15 1773 -15 c 0,60,61
 1748 -15 1748 -15 1730 -12.5 c 128,-1,62
 1712 -10 1712 -10 1694 -7.5 c 0,63,64
 1640 0 1640 0 1596 0 c 1,65,-1
 1383 -15 l 1,66,67
 1318 -15 1318 -15 1318 22 c 0,68,69
 1318 53 1318 53 1365 53 c 128,-1,70
 1412 53 1412 53 1433.5 60.5 c 128,-1,71
 1455 68 1455 68 1465 84.5 c 0,72,73
 1479 107.6 1479 107.6 1479 197 c 2,74,-1
 1479 291 l 2,75,76
 1479 359.444444444 1479 359.444444444 1469 567.222222222 c 128,-1,77
 1459 775 1459 775 1455 864.5 c 0,78,79
 1446.63243243 1051.72432432 1446.63243243 1051.72432432 1440 1149 c 1,80,-1
 967 65 l 2,81,82
 941.1875 6 941.1875 6 920 6 c 0,83,84
 906 6 906 6 896.5 20.5 c 128,-1,85
 887 35 887 35 871 67 c 2,86,-1
 387 1064 l 1,87,88
 349 554.8 349 554.8 349 133 c 0,89,90
 349 51 349 51 482 51 c 0,91,92
 518 51 518 51 518 22 c 0,93,94
 518 -15 518 -15 453 -15 c 1,95,-1
 291 0 l 1,96,97
 240 0 240 0 195 -7.5 c 128,-1,98
 150 -15 150 -15 128 -15 c 0,0,1
1470 1218 m 1,99,-1
 1471 1219 l 1,100,-1
 1470 1218 l 1,99,-1
EndSplineSet
EndChar

StartChar: J
Encoding: 74 74 15
Width: 667
Flags: HW
LayerCount: 2
Fore
SplineSet
566 1290 m 1,0,-1
 518 1294 l 1,1,2
 460.079365079 1294 460.079365079 1294 440 1236.5 c 0,3,4
 420 1179.22727273 420 1179.22727273 420 1023 c 2,5,-1
 420 177 l 2,6,7
 420 -20.1979166667 420 -20.1979166667 319 -147.5 c 0,8,9
 217.049586777 -276 217.049586777 -276 59 -276 c 0,10,11
 -54.1428571429 -276 -54.1428571429 -276 -93 -208 c 0,12,13
 -105 -187 -105 -187 -105 -162 c 128,-1,14
 -105 -137 -105 -137 -85.5 -119 c 128,-1,15
 -66 -101 -66 -101 -30.5 -101 c 128,-1,16
 5 -101 5 -101 31 -129.5 c 128,-1,17
 57 -158 57 -158 60 -209 c 1,18,19
 72 -212 72 -212 98 -212 c 128,-1,20
 124 -212 124 -212 155 -189 c 128,-1,21
 186 -166 186 -166 210 -121 c 0,22,23
 263 -21.625 263 -21.625 263 144 c 2,24,-1
 263 1023 l 2,25,26
 263 1180.63636364 263 1180.63636364 247.5 1224.31818182 c 128,-1,27
 232 1268 232 1268 213 1281 c 128,-1,28
 194 1294 194 1294 165 1294 c 1,29,-1
 116 1290 l 1,30,31
 80 1290 80 1290 80 1319 c 0,32,33
 80 1356 80 1356 145 1356 c 0,34,35
 177.166666667 1356 177.166666667 1356 216.583333333 1350.5 c 0,36,37
 291.833333333 1340 291.833333333 1340 333.416666667 1340 c 128,-1,38
 375 1340 375 1340 400.5 1342.5 c 128,-1,39
 426 1345 426 1345 448.5 1348 c 0,40,41
 508.5 1356 508.5 1356 538 1356 c 0,42,43
 602 1356 602 1356 602 1319 c 0,44,45
 602 1290 602 1290 566 1290 c 1,0,-1
EndSplineSet
EndChar

StartChar: K
Encoding: 75 75 16
Width: 1319
Flags: HW
LayerCount: 2
Fore
SplineSet
133 -15 m 0,0,1
 68 -15 68 -15 68 22 c 0,2,3
 68 51 68 51 104 51 c 1,4,-1
 153 46 l 1,5,6
 210.704918033 46 210.704918033 46 230 99.5 c 0,7,8
 251 157.727272727 251 157.727272727 251 317 c 2,9,-1
 251 1023 l 2,10,11
 251 1184.91304348 251 1184.91304348 234.5 1227.95652174 c 128,-1,12
 218 1271 218 1271 199 1282.5 c 128,-1,13
 180 1294 180 1294 153 1294 c 1,14,-1
 104 1290 l 1,15,16
 68 1290 68 1290 68 1319 c 0,17,18
 68 1356 68 1356 123 1356 c 128,-1,19
 178 1356 178 1356 227.5 1348 c 128,-1,20
 277 1340 277 1340 330.5 1340 c 128,-1,21
 384 1340 384 1340 432.5 1348 c 128,-1,22
 481 1356 481 1356 535.5 1356 c 128,-1,23
 590 1356 590 1356 590 1319 c 0,24,25
 590 1290 590 1290 554 1290 c 1,26,-1
 506 1294 l 1,27,28
 451.049180328 1294 451.049180328 1294 430 1240.5 c 0,29,30
 408 1184.58333333 408 1184.58333333 408 1023 c 2,31,-1
 408 706 l 1,32,-1
 692 1043 l 2,33,34
 856.038997214 1237.32311978 856.038997214 1237.32311978 865.019498607 1254.16155989 c 128,-1,35
 874 1271 874 1271 874 1278 c 128,-1,36
 874 1285 874 1285 864.5 1289 c 128,-1,37
 855 1293 855 1293 843 1295.5 c 0,38,39
 812 1301.95833333 812 1301.95833333 812 1320 c 0,40,41
 812 1349 812 1349 857 1349 c 0,42,43
 871 1349 871 1349 889 1347.5 c 128,-1,44
 907 1346 907 1346 925 1344.5 c 128,-1,45
 943 1343 943 1343 959.5 1341.5 c 128,-1,46
 976 1340 976 1340 988 1340 c 256,47,48
 1000 1340 1000 1340 1019 1342.5 c 128,-1,49
 1038 1345 1038 1345 1057 1347.5 c 128,-1,50
 1076 1350 1076 1350 1092.5 1352.5 c 128,-1,51
 1109 1355 1109 1355 1117 1355 c 0,52,53
 1176 1355 1176 1355 1176 1323 c 0,54,55
 1176 1304.94444444 1176 1304.94444444 1163.5 1301.47222222 c 128,-1,56
 1151 1298 1151 1298 1136 1294 c 128,-1,57
 1121 1290 1121 1290 1095 1278 c 128,-1,58
 1069 1266 1069 1266 1032.5 1242.5 c 128,-1,59
 996 1219 996 1219 951 1181 c 0,60,61
 850.897959184 1096.46938776 850.897959184 1096.46938776 734 954 c 1,62,-1
 609 804 l 1,63,-1
 1117 168 l 1,64,65
 1213.71428571 71.2857142857 1213.71428571 71.2857142857 1280 63 c 0,66,67
 1315 58 1315 58 1325 50 c 128,-1,68
 1335 42 1335 42 1335 30.5 c 0,69,70
 1335 0 1335 0 1270 0 c 2,71,-1
 1067 0 l 1,72,73
 1013.42216179 -1.98436437797 1013.42216179 -1.98436437797 944 90 c 2,74,-1
 504 678 l 1,75,-1
 408 564 l 1,76,-1
 408 317 l 2,77,78
 408 155.086956522 408 155.086956522 424.5 112.043478261 c 128,-1,79
 441 69 441 69 460 57.5 c 128,-1,80
 479 46 479 46 506 46 c 1,81,-1
 554 51 l 1,82,83
 590 51 590 51 590 22 c 0,84,85
 590 -15 590 -15 526 -15 c 0,86,87
 493.333333333 -15 493.333333333 -15 455.666666667 -9 c 0,88,89
 335.722175021 10.106202209 335.722175021 10.106202209 250.361087511 -2.4468988955 c 128,-1,90
 165 -15 165 -15 133 -15 c 0,0,1
EndSplineSet
EndChar

StartChar: L
Encoding: 76 76 17
Width: 1097
Flags: HW
LayerCount: 2
Fore
SplineSet
123 -15 m 0,0,1
 68 -15 68 -15 68 22 c 0,2,3
 68 51 68 51 104 51 c 1,4,-1
 153 46 l 1,5,6
 212.808823529 46 212.808823529 46 233.5 113 c 0,7,8
 251 169.666666667 251 169.666666667 251 317 c 2,9,-1
 251 1023 l 2,10,11
 251 1170.33333333 251 1170.33333333 237 1215.66666667 c 128,-1,12
 223 1261 223 1261 203.5 1277.5 c 128,-1,13
 184 1294 184 1294 153 1294 c 1,14,-1
 104 1290 l 1,15,16
 68 1290 68 1290 68 1319 c 0,17,18
 68 1356 68 1356 123 1356 c 128,-1,19
 178 1356 178 1356 227.5 1348 c 128,-1,20
 277 1340 277 1340 330.5 1340 c 128,-1,21
 384 1340 384 1340 432.5 1348 c 128,-1,22
 481 1356 481 1356 535.5 1356 c 128,-1,23
 590 1356 590 1356 590 1319 c 0,24,25
 590 1290 590 1290 554 1290 c 1,26,-1
 506 1294 l 1,27,28
 445.191176471 1294 445.191176471 1294 424.5 1227 c 0,29,30
 408 1173.57142857 408 1173.57142857 408 1023 c 2,31,-1
 408 458 l 2,32,33
 408 239 408 239 418 95 c 1,34,35
 490.727272727 75 490.727272727 75 579.363636364 75 c 128,-1,36
 668 75 668 75 733.5 85 c 128,-1,37
 799 95 799 95 847 115 c 0,38,39
 937 152.5 937 152.5 987 240 c 0,40,41
 1006.8 276 1006.8 276 1026.9 276 c 128,-1,42
 1047 276 1047 276 1047 247 c 0,43,44
 1047 234.555555556 1047 234.555555556 1040.5 215.777777778 c 0,45,46
 1031.6 190.066666667 1031.6 190.066666667 1016.8 138.533333333 c 128,-1,47
 1002 87 1002 87 992.5 59.5 c 128,-1,48
 983 32 983 32 971 14.5 c 0,49,50
 947.342857143 -20 947.342857143 -20 904.671428571 -20 c 128,-1,51
 862 -20 862 -20 824 -19.5 c 128,-1,52
 786 -19 786 -19 744.5 -17.5 c 128,-1,53
 703 -16 703 -16 655 -13.5 c 128,-1,54
 607 -11 607 -11 546 -8 c 128,-1,55
 485 -5 485 -5 440 -2.5 c 128,-1,56
 395 0 395 0 350.5 0 c 128,-1,57
 306 0 306 0 276.5 -2.5 c 128,-1,58
 247 -5 247 -5 223 -7.5 c 128,-1,59
 199 -10 199 -10 176 -12.5 c 128,-1,60
 153 -15 153 -15 123 -15 c 0,0,1
EndSplineSet
EndChar

StartChar: P
Encoding: 80 80 18
Width: 1072
Flags: HW
LayerCount: 2
Fore
SplineSet
133 -15 m 0,0,1
 68 -15 68 -15 68 22 c 0,2,3
 68 51 68 51 104 51 c 1,4,-1
 153 46 l 1,5,6
 212.808823529 46 212.808823529 46 233.5 113 c 0,7,8
 251 169.666666667 251 169.666666667 251 317 c 2,9,-1
 251 1023 l 2,10,11
 251 1170.33333333 251 1170.33333333 237 1215.66666667 c 128,-1,12
 223 1261 223 1261 203.5 1277.5 c 128,-1,13
 184 1294 184 1294 153 1294 c 1,14,-1
 104 1290 l 1,15,16
 68 1290 68 1290 68 1319 c 0,17,18
 68 1356 68 1356 123 1356 c 128,-1,19
 178 1356 178 1356 227.5 1348 c 128,-1,20
 277 1340 277 1340 337.5 1340 c 128,-1,21
 398 1340 398 1340 444.5 1348 c 128,-1,22
 491 1356 491 1356 526 1356 c 0,23,24
 740.384615385 1356 740.384615385 1356 872 1225.5 c 0,25,26
 992 1106.51694915 992 1106.51694915 992 939 c 0,27,28
 992 783.972477064 992 783.972477064 871.5 669 c 0,29,30
 754.115384615 557 754.115384615 557 602 557 c 0,31,32
 484.714285714 557 484.714285714 557 442 603 c 0,33,34
 429 617 429 617 429 633.5 c 128,-1,35
 429 650 429 650 438.5 658.5 c 128,-1,36
 448 667 448 667 461.5 667 c 0,37,38
 475.5 667 475.5 667 500.75 648.5 c 0,39,40
 539.648648649 620 539.648648649 620 597.824324324 620 c 128,-1,41
 656 620 656 620 696.5 642.5 c 128,-1,42
 737 665 737 665 765 706 c 0,43,44
 823 790.928571429 823 790.928571429 823 935 c 0,45,46
 823 1096.57142857 823 1096.57142857 733 1193 c 0,47,48
 646.2 1286 646.2 1286 507 1286 c 0,49,50
 456 1286 456 1286 432 1272 c 128,-1,51
 408 1258 408 1258 408 1224 c 2,52,-1
 408 317 l 2,53,54
 408 166.428571429 408 166.428571429 421.5 122.714285714 c 128,-1,55
 435 79 435 79 454.5 62.5 c 128,-1,56
 474 46 474 46 506 46 c 1,57,-1
 554 51 l 1,58,59
 590 51 590 51 590 22 c 0,60,61
 590 -15 590 -15 526 -15 c 0,62,63
 493.333333333 -15 493.333333333 -15 455.666666667 -9 c 0,64,65
 335.722175021 10.106202209 335.722175021 10.106202209 250.361087511 -2.4468988955 c 128,-1,66
 165 -15 165 -15 133 -15 c 0,0,1
EndSplineSet
EndChar

StartChar: Q
Encoding: 81 81 19
Width: 1569
Flags: HW
LayerCount: 2
Fore
SplineSet
1709 -143 m 128,-1,1
 1709 -159 1709 -159 1693.5 -172.5 c 128,-1,2
 1678 -186 1678 -186 1651.5 -196.5 c 0,3,4
 1594.71428571 -219 1594.71428571 -219 1545.35714286 -219 c 128,-1,5
 1496 -219 1496 -219 1459.5 -213.5 c 128,-1,6
 1423 -208 1423 -208 1376.5 -196 c 0,7,8
 1274.54785479 -169.689768977 1274.54785479 -169.689768977 1152.27392739 -117.844884488 c 0,9,10
 933.303265644 -25 933.303265644 -25 782.651632822 -25 c 128,-1,11
 632 -25 632 -25 506.5 28.5 c 128,-1,12
 381 82 381 82 290.5 176 c 0,13,14
 100 373.867403315 100 373.867403315 100 675 c 0,15,16
 100 973.85492228 100 973.85492228 309.5 1172.5 c 0,17,18
 406 1264 406 1264 533 1314.5 c 128,-1,19
 660 1365 660 1365 807 1365 c 128,-1,20
 954 1365 954 1365 1080 1311.5 c 128,-1,21
 1206 1258 1206 1258 1296 1163.5 c 0,22,23
 1485 965.05 1485 965.05 1485 659 c 0,24,25
 1485 438.824561404 1485 438.824561404 1367 267 c 0,26,27
 1248.83847521 94.9402358262 1248.83847521 94.9402358262 1049 21 c 1,28,29
 1193.10940499 11.0614203455 1193.10940499 11.0614203455 1342 -60 c 0,30,31
 1459.7804878 -116.213414634 1459.7804878 -116.213414634 1505.3902439 -131.606707317 c 128,-1,32
 1551 -147 1551 -147 1580.5 -147 c 128,-1,33
 1610 -147 1610 -147 1625 -144 c 128,-1,34
 1640 -141 1640 -141 1650.5 -137 c 0,35,36
 1676.75 -127 1676.75 -127 1692.875 -127 c 128,-1,0
 1709 -127 1709 -127 1709 -143 c 128,-1,1
271 734.5 m 0,37,38
 271 604 271 604 313.5 478 c 128,-1,39
 356 352 356 352 433.5 257.5 c 0,40,41
 601.211640212 53 601.211640212 53 856 53 c 0,42,43
 1051.91666667 53 1051.91666667 53 1179 203 c 0,44,45
 1309 356.442622951 1309 356.442622951 1309 606 c 0,46,47
 1309 899.142857143 1309 899.142857143 1151.5 1092 c 0,48,49
 996.333333333 1282 996.333333333 1282 757 1282 c 0,50,51
 559.549295775 1282 559.549295775 1282 418 1132 c 0,52,53
 271 976.223880597 271 976.223880597 271 734.5 c 0,37,38
EndSplineSet
EndChar

StartChar: R
Encoding: 82 82 20
Width: 1302
Flags: HW
LayerCount: 2
Fore
SplineSet
133 -15 m 0,0,1
 68 -15 68 -15 68 22 c 0,2,3
 68 51 68 51 104 51 c 1,4,-1
 153 46 l 1,5,6
 212.808823529 46 212.808823529 46 233.5 113 c 0,7,8
 251 169.666666667 251 169.666666667 251 317 c 2,9,-1
 251 1023 l 2,10,11
 251 1170.33333333 251 1170.33333333 237 1215.66666667 c 128,-1,12
 223 1261 223 1261 203.5 1277.5 c 128,-1,13
 184 1294 184 1294 153 1294 c 1,14,-1
 104 1290 l 1,15,16
 68 1290 68 1290 68 1319 c 0,17,18
 68 1356 68 1356 123 1356 c 128,-1,19
 178 1356 178 1356 227.5 1348 c 128,-1,20
 277 1340 277 1340 331 1340 c 256,21,22
 385 1340 385 1340 434.5 1348 c 128,-1,23
 484 1356 484 1356 561.5 1356 c 128,-1,24
 639 1356 639 1356 728 1331 c 128,-1,25
 817 1306 817 1306 878.5 1260 c 0,26,27
 1005 1165.38211382 1005 1165.38211382 1005 1008 c 0,28,29
 1005 834.153846154 1005 834.153846154 861.5 708 c 0,30,31
 816 668 816 668 760 640 c 1,32,-1
 1085 168 l 2,33,34
 1140.01201201 86.7917917918 1140.01201201 86.7917917918 1205.5 70 c 0,35,36
 1225 65 1225 65 1254 62 c 0,37,38
 1305 56.724137931 1305 56.724137931 1305 28.3620689655 c 128,-1,39
 1305 0 1305 0 1250 0 c 2,40,-1
 1058 0 l 2,41,42
 988.862068966 0 988.862068966 0 933 90 c 2,43,-1
 681 493 l 2,44,45
 647 546 647 546 616 568.5 c 128,-1,46
 585 591 585 591 520.5 591 c 128,-1,47
 456 591 456 591 408 588 c 1,48,-1
 408 317 l 2,49,50
 408 166.428571429 408 166.428571429 421.5 122.714285714 c 128,-1,51
 435 79 435 79 454.5 62.5 c 128,-1,52
 474 46 474 46 506 46 c 1,53,-1
 554 51 l 1,54,55
 590 51 590 51 590 22 c 0,56,57
 590 -15 590 -15 526 -15 c 0,58,59
 493.333333333 -15 493.333333333 -15 455.666666667 -9 c 0,60,61
 335.722175021 10.106202209 335.722175021 10.106202209 250.361087511 -2.4468988955 c 128,-1,62
 165 -15 165 -15 133 -15 c 0,0,1
408 676 m 1,63,64
 473.333333333 669 473.333333333 669 533.166666667 669 c 2,65,-1
 596 669 l 2,66,67
 692.529411765 669 692.529411765 669 759.5 735 c 0,68,69
 838 812.362318841 838 812.362318841 838 945 c 0,70,71
 838 1104.73333333 838 1104.73333333 741 1198.5 c 0,72,73
 650.482758621 1286 650.482758621 1286 507 1286 c 0,74,75
 456 1286 456 1286 432 1272 c 128,-1,76
 408 1258 408 1258 408 1224 c 2,77,-1
 408 676 l 1,63,64
EndSplineSet
EndChar

StartChar: T
Encoding: 84 84 21
Width: 1215
Flags: HW
LayerCount: 2
Fore
SplineSet
410 -15 m 0,0,1
 345 -15 345 -15 345 22 c 0,2,3
 345 51 345 51 381 51 c 1,4,-1
 430 46 l 1,5,6
 489.808823529 46 489.808823529 46 510.5 113 c 0,7,8
 528 169.666666667 528 169.666666667 528 317 c 2,9,-1
 528 1252 l 1,10,-1
 501 1252 l 2,11,12
 325.736842105 1252 325.736842105 1252 222 1215.5 c 0,13,14
 150.374321881 1190.29837251 150.374321881 1190.29837251 124 1127 c 0,15,16
 104.538461538 1081 104.538461538 1081 84 1081 c 0,17,18
 55 1081 55 1081 55 1115 c 0,19,20
 55 1125 55 1125 59.5 1138 c 128,-1,21
 64 1151 64 1151 70 1169 c 0,22,23
 85.8888888889 1216.66666667 85.8888888889 1216.66666667 88.9444444444 1268.83333333 c 128,-1,24
 92 1321 92 1321 100.5 1338.5 c 128,-1,25
 109 1356 109 1356 124 1356 c 128,-1,26
 139 1356 139 1356 151 1353.5 c 128,-1,27
 163 1351 163 1351 185.5 1348 c 0,28,29
 245.5 1340 245.5 1340 337 1340 c 2,30,-1
 971 1340 l 2,31,32
 1044.8 1340 1044.8 1340 1078.4 1348 c 128,-1,33
 1112 1356 1112 1356 1127 1356 c 0,34,35
 1160 1356 1160 1356 1160 1325 c 0,36,37
 1160 1308.875 1160 1308.875 1153.5 1286.9375 c 0,38,39
 1139.06299213 1238.21259843 1139.06299213 1238.21259843 1134.53149606 1202.60629921 c 128,-1,40
 1130 1167 1130 1167 1126 1144.5 c 128,-1,41
 1122 1122 1122 1122 1117 1109 c 0,42,43
 1108.53846154 1087 1108.53846154 1087 1092.76923077 1087 c 128,-1,44
 1077 1087 1077 1087 1072.5 1098.5 c 128,-1,45
 1068 1110 1068 1110 1063 1143 c 128,-1,46
 1058 1176 1058 1176 1046 1197 c 128,-1,47
 1034 1218 1034 1218 1014.5 1230 c 0,48,49
 978.75 1252 978.75 1252 900 1252 c 2,50,-1
 685 1252 l 1,51,-1
 685 317 l 2,52,53
 685 166.428571429 685 166.428571429 698.5 122.714285714 c 128,-1,54
 712 79 712 79 731.5 62.5 c 128,-1,55
 751 46 751 46 783 46 c 1,56,-1
 831 51 l 1,57,58
 867 51 867 51 867 22 c 0,59,60
 867 -15 867 -15 803 -15 c 0,61,62
 770.333333333 -15 770.333333333 -15 732.666666667 -9 c 0,63,64
 612.722175021 10.106202209 612.722175021 10.106202209 527.361087511 -2.4468988955 c 128,-1,65
 442 -15 442 -15 410 -15 c 0,0,1
EndSplineSet
EndChar

StartChar: U
Encoding: 85 85 22
Width: 1506
Flags: HW
LayerCount: 2
Fore
SplineSet
540 1290 m 1,0,-1
 492 1294 l 1,1,2
 430.676470588 1294 430.676470588 1294 409 1227 c 0,3,4
 390 1168.27272727 390 1168.27272727 390 1023 c 2,5,-1
 390 529 l 2,6,7
 390 390.5 390 390.5 410 329.75 c 128,-1,8
 430 269 430 269 466.5 219 c 128,-1,9
 503 169 503 169 551.5 134.5 c 0,10,11
 650.608695652 64 650.608695652 64 775.304347826 64 c 128,-1,12
 900 64 900 64 981 93.5 c 128,-1,13
 1062 123 1062 123 1110.5 182 c 0,14,15
 1199 289.659793814 1199 289.659793814 1199 534 c 2,16,-1
 1197 1023 l 2,17,18
 1197 1170.33333333 1197 1170.33333333 1183 1215.66666667 c 128,-1,19
 1169 1261 1169 1261 1149.5 1277.5 c 128,-1,20
 1130 1294 1130 1294 1099 1294 c 1,21,-1
 1050 1290 l 1,22,23
 1014 1290 1014 1290 1014 1319 c 0,24,25
 1014 1356 1014 1356 1069 1356 c 128,-1,26
 1124 1356 1124 1356 1165 1348 c 128,-1,27
 1206 1340 1206 1340 1251 1340 c 1,28,-1
 1416 1356 l 1,29,30
 1480 1356 1480 1356 1480 1319 c 0,31,32
 1480 1290 1480 1290 1444 1290 c 1,33,-1
 1396 1294 l 1,34,35
 1334.70588235 1294 1334.70588235 1294 1315 1227 c 0,36,37
 1298 1169.2 1298 1169.2 1298 1023 c 2,38,-1
 1296 483 l 2,39,40
 1296 260 1296 260 1154.5 118.5 c 0,41,42
 1011 -25 1011 -25 773 -25 c 0,43,44
 514.106382979 -25 514.106382979 -25 364.5 118.5 c 0,45,46
 211 265.734693878 211 265.734693878 211 529 c 2,47,-1
 211 1023 l 2,48,49
 211 1168.27272727 211 1168.27272727 196 1214.63636364 c 128,-1,50
 181 1261 181 1261 161 1277.5 c 128,-1,51
 141 1294 141 1294 109 1294 c 1,52,-1
 60 1290 l 1,53,54
 24 1290 24 1290 24 1319 c 0,55,56
 24 1356 24 1356 79.5 1356 c 128,-1,57
 135 1356 135 1356 188 1348 c 128,-1,58
 241 1340 241 1340 299.5 1340 c 128,-1,59
 358 1340 358 1340 412.5 1348 c 128,-1,60
 467 1356 467 1356 521.5 1356 c 128,-1,61
 576 1356 576 1356 576 1319 c 0,62,63
 576 1290 576 1290 540 1290 c 1,0,-1
EndSplineSet
EndChar

StartChar: V
Encoding: 86 86 23
Width: 1413
Flags: HW
LayerCount: 2
Fore
SplineSet
1330 1356 m 1,0,1
 1393 1356 1393 1356 1393 1320.5 c 128,-1,2
 1393 1285 1393 1285 1351 1285 c 0,3,4
 1298.33333333 1285 1298.33333333 1285 1275.66666667 1263 c 0,5,6
 1236.44023904 1224.92729084 1236.44023904 1224.92729084 1202 1135 c 2,7,-1
 771 9 l 2,8,9
 746.2 -53 746.2 -53 726 -53 c 0,10,11
 699.782608696 -53 699.782608696 -53 672 18 c 1,12,-1
 209 1135 l 1,13,14
 169.320197044 1226.2635468 169.320197044 1226.2635468 146.660098522 1249.6317734 c 0,15,16
 112.363636364 1285 112.363636364 1285 66.1818181818 1285 c 128,-1,17
 20 1285 20 1285 20 1321 c 0,18,19
 20 1335 20 1335 36 1345.5 c 128,-1,20
 52 1356 52 1356 80 1356 c 128,-1,21
 108 1356 108 1356 126 1353.5 c 128,-1,22
 144 1351 144 1351 162.5 1348 c 0,23,24
 211.833333333 1340 211.833333333 1340 257.916666667 1340 c 128,-1,25
 304 1340 304 1340 355 1348 c 128,-1,26
 406 1356 406 1356 463 1356 c 128,-1,27
 520 1356 520 1356 520 1323 c 128,-1,28
 520 1290 520 1290 477 1290 c 0,29,30
 366 1290 366 1290 366 1229 c 0,31,32
 366 1187 366 1187 406 1092 c 2,33,-1
 768 224 l 1,34,-1
 1081 1089 l 2,35,36
 1110 1170.2 1110 1170.2 1110 1208 c 0,37,38
 1110 1290 1110 1290 986 1290 c 0,39,40
 943 1290 943 1290 943 1323 c 128,-1,41
 943 1356 943 1356 1008 1356 c 0,42,43
 1040 1356 1040 1356 1080.5 1348 c 128,-1,44
 1121 1340 1121 1340 1180 1340 c 1,45,-1
 1330 1356 l 1,0,1
EndSplineSet
EndChar

StartChar: W
Encoding: 87 87 24
Width: 2043
Flags: HW
LayerCount: 2
Fore
SplineSet
1960 1356 m 1,0,1
 2023 1356 2023 1356 2023 1320.5 c 128,-1,2
 2023 1285 2023 1285 1981 1285 c 0,3,4
 1928.66666667 1285 1928.66666667 1285 1905.33333333 1263 c 0,5,6
 1867.28068506 1227.12178877 1867.28068506 1227.12178877 1832 1135 c 2,7,-1
 1403 9 l 1,8,9
 1378.2 -53 1378.2 -53 1355 -53 c 0,10,11
 1325.69565217 -53 1325.69565217 -53 1301 18 c 2,12,-1
 1065 713 l 1,13,-1
 771 9 l 1,14,15
 746.2 -53 746.2 -53 726 -53 c 0,16,17
 699.782608696 -53 699.782608696 -53 672 18 c 1,18,-1
 206 1131 l 1,19,20
 164.391420912 1226.6997319 164.391420912 1226.6997319 144.195710456 1248.84986595 c 0,21,22
 111.235294118 1285 111.235294118 1285 65.6176470588 1285 c 128,-1,23
 20 1285 20 1285 20 1321 c 0,24,25
 20 1335 20 1335 36 1345.5 c 128,-1,26
 52 1356 52 1356 80 1356 c 128,-1,27
 108 1356 108 1356 126 1353.5 c 128,-1,28
 144 1351 144 1351 162.5 1348 c 0,29,30
 211.833333333 1340 211.833333333 1340 262 1340 c 1,31,-1
 435 1356 l 1,32,33
 500 1356 500 1356 500 1322 c 0,34,35
 500 1308 500 1308 489 1297 c 128,-1,36
 478 1286 478 1286 451.5 1286 c 128,-1,37
 425 1286 425 1286 406.5 1282.5 c 128,-1,38
 388 1279 388 1279 378 1272.5 c 0,39,40
 362 1262.1 362 1262.1 362 1237.55 c 0,41,42
 362 1187 362 1187 402 1092 c 2,43,-1
 765 221 l 1,44,-1
 1021 841 l 1,45,-1
 927 1120 l 2,46,47
 893.874826147 1217.42698192 893.874826147 1217.42698192 863.937413074 1243.71349096 c 0,48,49
 819.31627907 1282.89302326 819.31627907 1282.89302326 765.158139535 1284.44651163 c 128,-1,50
 711 1286 711 1286 711 1321 c 0,51,52
 711 1335 711 1335 727 1345.5 c 128,-1,53
 743 1356 743 1356 771 1356 c 128,-1,54
 799 1356 799 1356 817 1353.5 c 128,-1,55
 835 1351 835 1351 853.5 1348 c 0,56,57
 902.833333333 1340 902.833333333 1340 953 1340 c 1,58,-1
 1175 1356 l 1,59,60
 1240 1356 1240 1356 1240 1323 c 128,-1,61
 1240 1290 1240 1290 1185.5 1290 c 0,62,63
 1082 1290 1082 1290 1082 1225 c 0,64,65
 1082 1166 1082 1166 1122 1051 c 2,66,-1
 1403 230 l 1,67,-1
 1711 1089 l 2,68,69
 1740 1170.88235294 1740 1170.88235294 1740 1208 c 0,70,71
 1740 1290 1740 1290 1616 1290 c 0,72,73
 1573 1290 1573 1290 1573 1323 c 128,-1,74
 1573 1356 1573 1356 1638 1356 c 0,75,76
 1670 1356 1670 1356 1710.5 1348 c 128,-1,77
 1751 1340 1751 1340 1810 1340 c 1,78,-1
 1960 1356 l 1,0,1
EndSplineSet
EndChar

StartChar: ampersand
Encoding: 38 38 25
Width: 1481
Flags: HW
LayerCount: 2
Fore
SplineSet
1426 1101 m 0,0,1
 1426 827.87804878 1426 827.87804878 1072 707 c 1,2,3
 1172.99099099 653.846846847 1172.99099099 653.846846847 1186 514 c 0,4,5
 1190 471 1190 471 1190 405 c 128,-1,6
 1190 339 1190 339 1153 258.5 c 128,-1,7
 1116 178 1116 178 1047 115.5 c 0,8,9
 892.992 -24 892.992 -24 656 -24 c 0,10,11
 403.464788732 -24 403.464788732 -24 244 129 c 0,12,13
 90 276.756756757 90 276.756756757 90 499 c 0,14,15
 90 658.063829787 90 658.063829787 191 787 c 0,16,17
 287.63177115 910.359707851 287.63177115 910.359707851 437 956 c 1,18,19
 371 1022 371 1022 371 1089 c 128,-1,20
 371 1156 371 1156 394.5 1205.5 c 128,-1,21
 418 1255 418 1255 461 1290.5 c 0,22,23
 551.23943662 1365 551.23943662 1365 700 1365 c 0,24,25
 873.642857143 1365 873.642857143 1365 938 1312 c 0,26,27
 955 1298 955 1298 955 1287 c 128,-1,28
 955 1276 955 1276 953 1250 c 128,-1,29
 951 1224 951 1224 946.5 1196.5 c 0,30,31
 935.127272727 1127 935.127272727 1127 916 1127 c 0,32,33
 903 1127 903 1127 887.5 1136 c 128,-1,34
 872 1145 872 1145 869 1163 c 0,35,36
 841.575342466 1306 841.575342466 1306 701 1306 c 0,37,38
 623.960784314 1306 623.960784314 1306 573 1249.5 c 0,39,40
 525 1196.2826087 525 1196.2826087 525 1129.64130435 c 0,41,42
 525 997.927272727 525 997.927272727 642 949 c 0,43,44
 676 935.4 676 935.4 676 915 c 0,45,46
 676 895.363636364 676 895.363636364 611.5 884.181818182 c 128,-1,47
 547 873 547 873 483 839 c 128,-1,48
 419 805 419 805 374.5 753.5 c 0,49,50
 284 648.764044944 284 648.764044944 284 485 c 0,51,52
 284 312.557522124 284 312.557522124 403.5 192 c 0,53,54
 526.412280702 68 526.412280702 68 711 68 c 0,55,56
 952.052238806 68 952.052238806 68 1032.5 264 c 0,57,58
 1060 331 1060 331 1060 400 c 128,-1,59
 1060 469 1060 469 1047.5 511 c 128,-1,60
 1035 553 1035 553 1009.5 584.5 c 0,61,62
 954.047619048 653 954.047619048 653 857 653 c 0,63,64
 769.754385965 653 769.754385965 653 693 590.5 c 0,65,66
 618.381841324 529.739499364 618.381841324 529.739499364 600 446 c 1,67,68
 658 428 658 428 658 377 c 0,69,70
 658 346 658 346 639.5 328.5 c 128,-1,71
 621 311 621 311 593 311 c 128,-1,72
 565 311 565 311 541 340 c 128,-1,73
 517 369 517 369 517 416 c 128,-1,74
 517 463 517 463 530.5 511.5 c 128,-1,75
 544 560 544 560 581.5 605 c 0,76,77
 664.355691057 704.426829268 664.355691057 704.426829268 859 759 c 0,78,79
 1245.86445783 867.975903614 1245.86445783 867.975903614 1315 1026 c 0,80,81
 1336 1074 1336 1074 1336 1112 c 128,-1,82
 1336 1150 1336 1150 1328.5 1171 c 128,-1,83
 1321 1192 1321 1192 1309 1206 c 0,84,85
 1285.85714286 1233 1285.85714286 1233 1246.42857143 1233 c 128,-1,86
 1207 1233 1207 1233 1201 1191 c 1,87,88
 1243 1182.15789474 1243 1182.15789474 1243 1149 c 0,89,90
 1243 1126 1243 1126 1228.5 1114.5 c 128,-1,91
 1214 1103 1214 1103 1188 1103 c 128,-1,92
 1162 1103 1162 1103 1144.5 1124 c 128,-1,93
 1127 1145 1127 1145 1127 1169.5 c 128,-1,94
 1127 1194 1127 1194 1135.5 1215.5 c 128,-1,95
 1144 1237 1144 1237 1160.5 1254.5 c 0,96,97
 1198.68571429 1295 1198.68571429 1295 1242.84285714 1295 c 128,-1,98
 1287 1295 1287 1295 1317.5 1283 c 128,-1,99
 1348 1271 1348 1271 1372 1247 c 0,100,101
 1426 1193 1426 1193 1426 1101 c 0,0,1
EndSplineSet
EndChar

StartChar: X
Encoding: 88 88 26
Width: 1319
Flags: HW
LayerCount: 2
Fore
SplineSet
98 -15 m 0,0,1
 35 -15 35 -15 35 19.5 c 128,-1,2
 35 54 35 54 74.5 55.5 c 128,-1,3
 114 57 114 57 143.5 69 c 128,-1,4
 173 81 173 81 202.5 108 c 0,5,6
 251.491657397 152.839822024 251.491657397 152.839822024 336 293 c 2,7,-1
 572 687 l 1,8,-1
 307 1130 l 1,9,10
 251.860962567 1224.52406417 251.860962567 1224.52406417 226.930481283 1248.76203209 c 0,11,12
 188.628571429 1286 188.628571429 1286 141.814285714 1286 c 128,-1,13
 95 1286 95 1286 95 1321 c 128,-1,14
 95 1356 95 1356 160 1356 c 1,15,-1
 335 1340 l 1,16,17
 380 1340 380 1340 420.5 1348 c 128,-1,18
 461 1356 461 1356 494 1356 c 0,19,20
 557 1356 557 1356 557 1325 c 0,21,22
 557 1303 557 1303 540 1297 c 128,-1,23
 523 1291 523 1291 502 1288 c 128,-1,24
 481 1285 481 1285 464 1280 c 128,-1,25
 447 1275 447 1275 447 1256 c 0,26,27
 447 1218.625 447 1218.625 486 1152 c 2,28,-1
 667 845 l 1,29,-1
 850 1149 l 2,30,31
 893 1220.66666667 893 1220.66666667 893 1243.83333333 c 0,32,33
 893 1290 893 1290 815 1290 c 0,34,35
 779 1290 779 1290 779 1319 c 0,36,37
 779 1356 779 1356 844 1356 c 1,38,-1
 976 1341 l 1,39,40
 1029 1341 1029 1341 1071 1348.5 c 128,-1,41
 1113 1356 1113 1356 1136 1356 c 0,42,43
 1199 1356 1199 1356 1199 1320.5 c 128,-1,44
 1199 1285 1199 1285 1160.5 1285 c 128,-1,45
 1122 1285 1122 1285 1093.5 1277 c 128,-1,46
 1065 1269 1065 1269 1036 1243.5 c 0,47,48
 979.365156181 1193.70039595 979.365156181 1193.70039595 898 1048 c 1,49,-1
 722 753 l 1,50,-1
 1025 242 l 2,51,52
 1135.88461538 56 1135.88461538 56 1241 56 c 0,53,54
 1284 56 1284 56 1284 20.5 c 128,-1,55
 1284 -15 1284 -15 1221 -15 c 0,56,57
 1195 -15 1195 -15 1177 -12.5 c 128,-1,58
 1159 -10 1159 -10 1141 -7.5 c 0,59,60
 1087 0 1087 0 1044 0 c 1,61,-1
 877 -15 l 1,62,63
 812 -15 812 -15 812 22 c 0,64,65
 812 51 812 51 841.5 51 c 128,-1,66
 871 51 871 51 884.5 53.5 c 128,-1,67
 898 56 898 56 904.5 61 c 0,68,69
 914 68.3076923077 914 68.3076923077 914 87 c 1,70,71
 912 90 912 90 903.5 119.5 c 128,-1,72
 895 149 895 149 861 206 c 2,73,-1
 627 595 l 1,74,-1
 386 192 l 2,75,76
 343 120.333333333 343 120.333333333 343 97.1666666667 c 0,77,78
 343 51 343 51 421 51 c 0,79,80
 457 51 457 51 457 22 c 0,81,82
 457 -15 457 -15 392 -15 c 1,83,-1
 260 0 l 1,84,85
 210 0 210 0 165 -7.5 c 128,-1,86
 120 -15 120 -15 98 -15 c 0,0,1
EndSplineSet
EndChar

StartChar: Y
Encoding: 89 89 27
Width: 1260
Flags: HW
LayerCount: 2
Fore
SplineSet
438 -15 m 0,0,1
 373 -15 373 -15 373 22 c 0,2,3
 373 51 373 51 409 51 c 1,4,-1
 458 46 l 1,5,6
 517.808823529 46 517.808823529 46 538.5 113 c 0,7,8
 556 169.666666667 556 169.666666667 556 317 c 2,9,-1
 556 667 l 1,10,-1
 241 1132 l 2,11,12
 177.343624161 1225.49530201 177.343624161 1225.49530201 150.671812081 1248.74765101 c 0,13,14
 109.088235294 1285 109.088235294 1285 64.5441176471 1285 c 128,-1,15
 20 1285 20 1285 20 1321 c 0,16,17
 20 1335 20 1335 36 1345.5 c 128,-1,18
 52 1356 52 1356 87 1356 c 128,-1,19
 122 1356 122 1356 160 1348 c 128,-1,20
 198 1340 198 1340 242 1340 c 1,21,-1
 405 1356 l 1,22,23
 470 1356 470 1356 470 1323 c 128,-1,24
 470 1290 470 1290 414.5 1290 c 128,-1,25
 359 1290 359 1290 359 1254 c 0,26,27
 359 1233.8 359 1233.8 395 1178 c 2,28,-1
 671 760 l 1,29,-1
 883 1096 l 2,30,31
 947.551724138 1198.20689655 947.551724138 1198.20689655 952.775862069 1219.10344828 c 128,-1,32
 958 1240 958 1240 958 1248 c 0,33,34
 958 1290 958 1290 895.5 1290 c 128,-1,35
 833 1290 833 1290 833 1323 c 128,-1,36
 833 1356 833 1356 898 1356 c 0,37,38
 933 1356 933 1356 967 1348 c 128,-1,39
 1001 1340 1001 1340 1037 1340 c 128,-1,40
 1073 1340 1073 1340 1104 1348 c 128,-1,41
 1135 1356 1135 1356 1170 1356 c 0,42,43
 1240 1356 1240 1356 1240 1321 c 256,44,45
 1240 1285 1240 1285 1193 1285 c 0,46,47
 1144.94594595 1285 1144.94594595 1285 1116.47297297 1260.5 c 0,48,49
 1070.19593346 1220.68022181 1070.19593346 1220.68022181 999 1111 c 1,50,-1
 713 681 l 1,51,-1
 713 317 l 2,52,53
 713 166.428571429 713 166.428571429 726.5 122.714285714 c 128,-1,54
 740 79 740 79 759.5 62.5 c 128,-1,55
 779 46 779 46 811 46 c 1,56,-1
 859 51 l 1,57,58
 895 51 895 51 895 22 c 0,59,60
 895 -15 895 -15 831 -15 c 0,61,62
 798.333333333 -15 798.333333333 -15 760.666666667 -9 c 0,63,64
 640.722175021 10.106202209 640.722175021 10.106202209 555.361087511 -2.4468988955 c 128,-1,65
 470 -15 470 -15 438 -15 c 0,0,1
EndSplineSet
EndChar

StartChar: Z
Encoding: 90 90 28
Width: 1312
Flags: HW
LayerCount: 2
Fore
SplineSet
81 -13 m 2,0,1
 55 -13 55 -13 55 0 c 0,2,3
 55 9.76470588235 55 9.76470588235 109 86 c 2,4,-1
 933 1245 l 1,5,6
 835 1259 835 1259 704.5 1259 c 0,7,8
 355.5 1259 355.5 1259 260.5 1183 c 0,9,10
 228.967741935 1157.77419355 228.967741935 1157.77419355 211.483870968 1125.38709677 c 128,-1,11
 194 1093 194 1093 184 1085.5 c 128,-1,12
 174 1078 174 1078 162 1078 c 256,13,14
 133 1078 133 1078 133 1109 c 256,15,16
 133 1124 133 1124 137.5 1135 c 128,-1,17
 142 1146 142 1146 148.5 1163.5 c 0,18,19
 166.497247706 1211.95412844 166.497247706 1211.95412844 169.748623853 1263.47706422 c 128,-1,20
 173 1315 173 1315 184.5 1335.5 c 128,-1,21
 196 1356 196 1356 224.5 1356 c 128,-1,22
 253 1356 253 1356 290.5 1355 c 128,-1,23
 328 1354 328 1354 377.5 1352 c 128,-1,24
 427 1350 427 1350 486.5 1348 c 128,-1,25
 546 1346 546 1346 611 1344 c 0,26,27
 741 1340 741 1340 847 1340 c 128,-1,28
 953 1340 953 1340 1020 1348 c 128,-1,29
 1087 1356 1087 1356 1132 1356 c 128,-1,30
 1177 1356 1177 1356 1177 1332 c 1,31,32
 1175.35168196 1312.22018349 1175.35168196 1312.22018349 1107 1213 c 2,33,-1
 318 78 l 1,34,-1
 833 78 l 2,35,36
 1082.23529412 78 1082.23529412 78 1161.5 160.5 c 0,37,38
 1186 186 1186 186 1197.5 213 c 128,-1,39
 1209 240 1209 240 1216.5 249 c 128,-1,40
 1224 258 1224 258 1238 258 c 0,41,42
 1267 258 1267 258 1267 225 c 0,43,44
 1267 217.714285714 1267 217.714285714 1255.5 173.357142857 c 0,45,46
 1233.96226415 90.2830188679 1233.96226415 90.2830188679 1228.48113208 43.141509434 c 128,-1,47
 1223 -4 1223 -4 1211.5 -14.5 c 128,-1,48
 1200 -25 1200 -25 1174 -25 c 128,-1,49
 1148 -25 1148 -25 1072 -16 c 128,-1,50
 996 -7 996 -7 881 -7 c 2,51,-1
 81 -13 l 2,0,1
EndSplineSet
EndChar

StartChar: question
Encoding: 63 63 29
Width: 933
Flags: HW
LayerCount: 2
Fore
SplineSet
358 409 m 0,0,1
 358 467.64516129 358 467.64516129 434 551 c 0,2,3
 465 585 465 585 516 632 c 0,4,5
 629 736 629 736 679.5 834 c 128,-1,6
 730 932 730 932 730 1039 c 0,7,8
 730 1146.69565217 730 1146.69565217 656.5 1217 c 0,9,10
 583.318181818 1287 583.318181818 1287 470 1287 c 0,11,12
 271.037037037 1287 271.037037037 1287 224 1160 c 0,13,14
 202 1103 202 1103 184 1076 c 128,-1,15
 166 1049 166 1049 144.5 1049 c 128,-1,16
 123 1049 123 1049 107.5 1056.5 c 128,-1,17
 92 1064 92 1064 81 1075 c 0,18,19
 59 1097 59 1097 59 1126 c 128,-1,20
 59 1155 59 1155 89.5 1197 c 128,-1,21
 120 1239 120 1239 178.5 1276.5 c 0,22,23
 316.56 1365 316.56 1365 518 1365 c 0,24,25
 679.607594937 1365 679.607594937 1365 790 1279.5 c 0,26,27
 898 1195.85294118 898 1195.85294118 898 1070 c 0,28,29
 898 981.044444444 898 981.044444444 866 922.022222222 c 0,30,31
 810.418164157 819.50461389 810.418164157 819.50461389 725.709082079 735.752306945 c 128,-1,32
 641 652 641 652 603 611 c 128,-1,33
 565 570 565 570 547 545 c 0,34,35
 521 508.888888889 521 508.888888889 521 480.944444444 c 128,-1,36
 521 453 521 453 529 441.5 c 128,-1,37
 537 430 537 430 546 424 c 128,-1,38
 555 418 555 418 563 412 c 128,-1,39
 571 406 571 406 571 391.5 c 128,-1,40
 571 377 571 377 561.5 362.5 c 128,-1,41
 552 348 552 348 537 336.5 c 0,42,43
 502.434782609 310 502.434782609 310 466 310 c 0,44,45
 358 310 358 310 358 409 c 0,0,1
390.5 3.5 m 128,-1,47
 364 32 364 32 364 65.5 c 128,-1,48
 364 99 364 99 372.5 117 c 128,-1,49
 381 135 381 135 395.5 148 c 0,50,51
 425.615384615 175 425.615384615 175 469.307692308 175 c 128,-1,52
 513 175 513 175 540 147 c 128,-1,53
 567 119 567 119 567 76.5 c 128,-1,54
 567 34 567 34 539 4.5 c 128,-1,55
 511 -25 511 -25 464 -25 c 128,-1,46
 417 -25 417 -25 390.5 3.5 c 128,-1,47
EndSplineSet
EndChar

StartChar: questiondown
Encoding: 191 191 30
Width: 933
Flags: HW
LayerCount: 2
Fore
SplineSet
502 1021 m 128,-1,1
 483 1014 483 1014 450.5 1014 c 128,-1,2
 418 1014 418 1014 391 1042 c 128,-1,3
 364 1070 364 1070 364 1112.5 c 128,-1,4
 364 1155 364 1155 391.5 1184.5 c 128,-1,5
 419 1214 419 1214 466.5 1214 c 128,-1,6
 514 1214 514 1214 540.5 1185.5 c 128,-1,7
 567 1157 567 1157 567 1123.5 c 128,-1,8
 567 1090 567 1090 558.5 1072 c 128,-1,9
 550 1054 550 1054 535.5 1041 c 128,-1,0
 521 1028 521 1028 502 1021 c 128,-1,1
61.5 3 m 128,-1,11
 33 57 33 57 33 109.5 c 128,-1,12
 33 162 33 162 42.5 202.5 c 128,-1,13
 52 243 52 243 74.5 285 c 0,14,15
 118.860795455 367.806818182 118.860795455 367.806818182 204.430397727 451.903409091 c 128,-1,16
 290 536 290 536 328 577 c 128,-1,17
 366 618 366 618 384 643.5 c 0,18,19
 410 680.333333333 410 680.333333333 410 708.166666667 c 128,-1,20
 410 736 410 736 402 747 c 128,-1,21
 394 758 394 758 385 764.5 c 128,-1,22
 376 771 376 771 368 776.5 c 128,-1,23
 360 782 360 782 360 797 c 256,24,25
 360 826.433333333 360 826.433333333 384.5 845.216666667 c 0,26,27
 428.565217391 879 428.565217391 879 465 879 c 0,28,29
 573 879 573 879 573 780 c 0,30,31
 573 721.35483871 573 721.35483871 497 638 c 0,32,33
 466 604 466 604 415 557 c 0,34,35
 302 452 302 452 251.5 354.5 c 128,-1,36
 201 257 201 257 201 150 c 0,37,38
 201 42.3043478261 201 42.3043478261 274.5 -28 c 0,39,40
 347.681818182 -98 347.681818182 -98 461 -98 c 0,41,42
 659.962962963 -98 659.962962963 -98 707 29 c 0,43,44
 728 86 728 86 745.5 113 c 128,-1,45
 763 140 763 140 785.5 140 c 128,-1,46
 808 140 808 140 823.5 132.5 c 128,-1,47
 839 125 839 125 850 114 c 0,48,49
 872 92 872 92 872 63 c 128,-1,50
 872 34 872 34 841.5 -8 c 128,-1,51
 811 -50 811 -50 752.5 -87.5 c 0,52,53
 614.44 -176 614.44 -176 413 -176 c 0,54,55
 251.392405063 -176 251.392405063 -176 141 -90.5 c 0,56,10
 90 -51 90 -51 61.5 3 c 128,-1,11
EndSplineSet
EndChar

StartChar: one
Encoding: 49 49 31
Width: 707
Flags: HW
LayerCount: 2
Fore
SplineSet
176 -15 m 0,0,1
 111 -15 111 -15 111 22 c 0,2,3
 111 51 111 51 147 51 c 1,4,-1
 196 46 l 1,5,6
 255.808823529 46 255.808823529 46 276.5 113 c 0,7,8
 294 169.666666667 294 169.666666667 294 317 c 2,9,-1
 291 995 l 2,10,11
 291 1114.39130435 291 1114.39130435 218 1125.5 c 0,12,13
 195 1129 195 1129 156.5 1129 c 128,-1,14
 118 1129 118 1129 118 1156 c 0,15,16
 118 1167 118 1167 125 1174.5 c 128,-1,17
 132 1182 132 1182 186 1205.5 c 0,18,19
 333.936927772 1269.87995931 333.936927772 1269.87995931 400 1334 c 0,20,21
 431 1365 431 1365 450.5 1365 c 128,-1,22
 470 1365 470 1365 470 1337 c 0,23,24
 470 1325.16666667 470 1325.16666667 462 1294.58333333 c 128,-1,25
 454 1264 454 1264 451.5 1243.5 c 128,-1,26
 449 1223 449 1223 447.5 1191.5 c 0,27,28
 445 1139 445 1139 445 995 c 2,29,-1
 448 317 l 2,30,31
 448 170.8 448 170.8 461.5 124.9 c 128,-1,32
 475 79 475 79 494 62.5 c 128,-1,33
 513 46 513 46 546 46 c 1,34,-1
 594 51 l 1,35,36
 630 51 630 51 630 22 c 0,37,38
 630 -15 630 -15 566 -15 c 0,39,40
 533.333333333 -15 533.333333333 -15 495.666666667 -9 c 0,41,42
 439.166666667 0 439.166666667 0 375.083333333 0 c 128,-1,43
 311 0 311 0 259.5 -7.5 c 128,-1,44
 208 -15 208 -15 176 -15 c 0,0,1
EndSplineSet
EndChar

StartChar: two
Encoding: 50 50 32
Width: 1082
Flags: HW
LayerCount: 2
Fore
SplineSet
959 206 m 256,0,1
 980 206 980 206 980 171 c 0,2,3
 980 159.333333333 980 159.333333333 968.5 128.666666667 c 2,4,-1
 954 90 l 1,5,6
 916.497206704 -1.0782122905 916.497206704 -1.0782122905 905.748603352 -6.03910614525 c 128,-1,7
 895 -11 895 -11 873 -11 c 128,-1,8
 851 -11 851 -11 769.5 -5.5 c 128,-1,9
 688 0 688 0 593.5 0 c 128,-1,10
 499 0 499 0 434 -2.5 c 128,-1,11
 369 -5 369 -5 314 -7.5 c 128,-1,12
 259 -10 259 -10 218 -12.5 c 128,-1,13
 177 -15 177 -15 150 -15 c 128,-1,14
 123 -15 123 -15 123 9 c 0,15,16
 123 32.3793103448 123 32.3793103448 171 87 c 1,17,-1
 549 495 l 1,18,19
 767 744.142857143 767 744.142857143 767 943 c 0,20,21
 767 1097.9375 767 1097.9375 682 1192.5 c 0,22,23
 597.95505618 1286 597.95505618 1286 465 1286 c 0,24,25
 302.757575758 1286 302.757575758 1286 199 1179 c 0,26,27
 167 1146 167 1146 152.5 1117 c 128,-1,28
 138 1088 138 1088 132.5 1078 c 128,-1,29
 127 1068 127 1068 123 1062.5 c 0,30,31
 117.545454545 1055 117.545454545 1055 107.772727273 1055 c 128,-1,32
 98 1055 98 1055 88 1062.5 c 128,-1,33
 78 1070 78 1070 69.5 1081.5 c 0,34,35
 50 1107.88235294 50 1107.88235294 50 1126.94117647 c 128,-1,36
 50 1146 50 1146 60.5 1165 c 128,-1,37
 71 1184 71 1184 90 1206 c 0,38,39
 131.883977901 1254.49723757 131.883977901 1254.49723757 199.44198895 1292.24861878 c 0,40,41
 329.634274843 1365 329.634274843 1365 460.317137421 1365 c 128,-1,42
 591 1365 591 1365 680.5 1333 c 128,-1,43
 770 1301 770 1301 830.5 1247 c 0,44,45
 952 1138.55371901 952 1138.55371901 952 974 c 0,46,47
 952 815.978021978 952 815.978021978 826.5 656 c 0,48,49
 781 598 781 598 715 528 c 1,50,-1
 347 154 l 1,51,-1
 792 154 l 2,52,53
 878.6 154 878.6 154 894.8 163 c 128,-1,54
 911 172 911 172 920.5 183 c 0,55,56
 940.363636364 206 940.363636364 206 959 206 c 256,0,1
EndSplineSet
EndChar

StartChar: three
Encoding: 51 51 33
Width: 1096
Flags: HW
LayerCount: 2
Fore
SplineSet
520 1340 m 1,0,-1
 765 1344 l 2,1,2
 800 1344 800 1344 800 1327 c 1,3,4
 796.277777778 1308.38888889 796.277777778 1308.38888889 771 1273 c 2,5,-1
 555 961 l 1,6,7
 762.970905678 953.152041295 762.970905678 953.152041295 887 819.5 c 0,8,9
 1006 691.267241379 1006 691.267241379 1006 496 c 0,10,11
 1006 276.264705882 1006 276.264705882 864 128 c 0,12,13
 717.464788732 -25 717.464788732 -25 490 -25 c 0,14,15
 301.654545455 -25 301.654545455 -25 173 97 c 0,16,17
 50 213.637931034 50 213.637931034 50 360 c 0,18,19
 50 389.076923077 50 389.076923077 72 408.538461538 c 0,20,21
 109.826086957 442 109.826086957 442 123.913043478 442 c 128,-1,22
 138 442 138 442 143 431.5 c 128,-1,23
 148 421 148 421 152 368 c 128,-1,24
 156 315 156 315 185 252 c 128,-1,25
 214 189 214 189 262 145.5 c 0,26,27
 361.862068966 55 361.862068966 55 520 55 c 0,28,29
 663.451612903 55 663.451612903 55 752 146.5 c 0,30,31
 850 247.766666667 850 247.766666667 850 430 c 0,32,33
 850 598.307692308 850 598.307692308 754.5 708.5 c 0,34,35
 657.866666667 820 657.866666667 820 498 820 c 1,36,-1
 403 810 l 1,37,38
 379 810 379 810 379 830 c 0,39,40
 379 849 379 849 409 894 c 2,41,-1
 611 1192 l 1,42,43
 481 1197 481 1197 409.5 1197 c 128,-1,44
 338 1197 338 1197 321 1196 c 128,-1,45
 304 1195 304 1195 293 1192.5 c 0,46,47
 274.465753425 1188.28767123 274.465753425 1188.28767123 264.232876712 1175.14383562 c 0,48,49
 243.8791037 1149 243.8791037 1149 219.93955185 1149 c 128,-1,50
 196 1149 196 1149 196 1177 c 0,51,52
 196 1187.25 196 1187.25 209 1211.625 c 0,53,54
 238.746666667 1267.4 238.746666667 1267.4 250.373333333 1298.2 c 128,-1,55
 262 1329 262 1329 270.5 1337.5 c 128,-1,56
 279 1346 279 1346 296 1346 c 2,57,-1
 520 1340 l 1,0,-1
EndSplineSet
EndChar

StartChar: four
Encoding: 52 52 34
Width: 1144
Flags: HW
LayerCount: 2
Fore
SplineSet
469 -15 m 0,0,1
 404 -15 404 -15 404 22 c 0,2,3
 404 51 404 51 440 51 c 1,4,-1
 489 46 l 1,5,6
 548.808823529 46 548.808823529 46 569.5 113 c 0,7,8
 587 169.666666667 587 169.666666667 587 317 c 2,9,-1
 587 481 l 1,10,-1
 544 481 l 1,11,-1
 79 472 l 2,12,13
 50 472 50 472 50 496 c 0,14,15
 50 514.555555556 50 514.555555556 79 550 c 1,16,-1
 675 1327 l 1,17,18
 716.857142857 1379.32142857 716.857142857 1379.32142857 724.428571429 1382.16071429 c 128,-1,19
 732 1385 732 1385 736 1385 c 0,20,21
 754 1385 754 1385 754 1363.5 c 128,-1,22
 754 1342 754 1342 753 1322.5 c 128,-1,23
 752 1303 752 1303 750.5 1279.5 c 128,-1,24
 749 1256 749 1256 747 1225.5 c 128,-1,25
 745 1195 745 1195 743.5 1150 c 0,26,27
 740 1045 740 1045 740 893 c 2,28,-1
 740 607 l 1,29,-1
 875 607 l 2,30,31
 984.888888889 607 984.888888889 607 1047.5 631.5 c 0,32,33
 1059 636 1059 636 1067 636 c 0,34,35
 1089 636 1089 636 1089 615 c 0,36,37
 1089 601.529411765 1089 601.529411765 1074.5 582.764705882 c 0,38,39
 1041.232 539.712 1041.232 539.712 1030.616 517.356 c 128,-1,40
 1020 495 1020 495 1008 488 c 128,-1,41
 996 481 996 481 965 481 c 2,42,-1
 740 481 l 1,43,-1
 740 317 l 2,44,45
 740 166.428571429 740 166.428571429 753.5 122.714285714 c 128,-1,46
 767 79 767 79 786.5 62.5 c 128,-1,47
 806 46 806 46 838 46 c 1,48,-1
 886 51 l 1,49,50
 922 51 922 51 922 22 c 0,51,52
 922 -15 922 -15 858 -15 c 0,53,54
 825.333333333 -15 825.333333333 -15 787.666666667 -9 c 0,55,56
 669.64231096 9.80033984707 669.64231096 9.80033984707 585.32115548 -2.59983007647 c 128,-1,57
 501 -15 501 -15 469 -15 c 0,0,1
587 607 m 1,58,-1
 587 1091 l 1,59,-1
 224 607 l 1,60,-1
 587 607 l 1,58,-1
EndSplineSet
EndChar

StartChar: five
Encoding: 53 53 35
Width: 1139
Flags: HW
LayerCount: 2
Fore
SplineSet
360 959 m 1,0,1
 441.7 978 441.7 978 542.85 978 c 128,-1,2
 644 978 644 978 739 945.5 c 128,-1,3
 834 913 834 913 903 852 c 0,4,5
 1049 722.927536232 1049 722.927536232 1049 508 c 0,6,7
 1049 279.09009009 1049 279.09009009 863.5 122 c 0,8,9
 753.104089612 28.5115713833 753.104089612 28.5115713833 607 -7.5 c 0,10,11
 536 -25 536 -25 446 -25 c 0,12,13
 274.315789474 -25 274.315789474 -25 145 66 c 0,14,15
 50 133.857142857 50 133.857142857 50 190 c 0,16,17
 50 213.882352941 50 213.882352941 64 236.941176471 c 0,18,19
 89.5357142857 279 89.5357142857 279 110 279 c 0,20,21
 124.322580645 279 124.322580645 279 146.661290323 233.5 c 128,-1,22
 169 188 169 188 200.5 156 c 128,-1,23
 232 124 232 124 272.5 101.5 c 0,24,25
 356.2 55 356.2 55 456.1 55 c 128,-1,26
 556 55 556 55 634.5 82 c 128,-1,27
 713 109 713 109 770 160 c 0,28,29
 892 269.157894737 892 269.157894737 892 449 c 0,30,31
 892 617.97029703 892 617.97029703 789.5 722.5 c 0,32,33
 680.165048544 834 680.165048544 834 501 834 c 0,34,35
 340.789473684 834 340.789473684 834 292 782.5 c 0,36,37
 283 773 283 773 271 773 c 0,38,39
 253 773 253 773 253 797 c 0,40,41
 253 805 253 805 254.5 815 c 128,-1,42
 256 825 256 825 258 839 c 2,43,-1
 325 1277 l 2,44,45
 332.047619048 1319.28571429 332.047619048 1319.28571429 337.523809524 1329.14285714 c 0,46,47
 348 1348 348 1348 377 1348 c 2,48,-1
 663 1340 l 1,49,50
 808.833333333 1340 808.833333333 1340 843.5 1356 c 0,51,52
 850 1359 850 1359 856 1359 c 0,53,54
 874 1359 874 1359 874 1333 c 0,55,56
 874 1293 874 1293 860 1247 c 128,-1,57
 846 1201 846 1201 832.5 1194.5 c 128,-1,58
 819 1188 819 1188 785 1188 c 1,59,-1
 398 1201 l 1,60,-1
 360 959 l 1,0,1
EndSplineSet
EndChar

StartChar: six
Encoding: 54 54 36
Width: 1178
Flags: HW
LayerCount: 2
Fore
SplineSet
378 514 m 0,0,1
 350 514 350 514 350 570 c 128,-1,2
 350 626 350 626 379.5 689.5 c 128,-1,3
 409 753 409 753 458.5 804.5 c 0,4,5
 570.475728155 921 570.475728155 921 706 921 c 0,6,7
 879.008695652 921 879.008695652 921 991 799.5 c 128,-1,8
 1103 677.990566038 1103 677.990566038 1103 486 c 0,9,10
 1103 266.164179104 1103 266.164179104 958 119 c 0,11,12
 816.117647059 -25 816.117647059 -25 615 -25 c 0,13,14
 386.363636364 -25 386.363636364 -25 238 167 c 0,15,16
 95 352.058823529 95 352.058823529 95 618 c 0,17,18
 95 919.446428571 95 919.446428571 274 1140 c 0,19,20
 389.209189534 1281.95417996 389.209189534 1281.95417996 545.5 1337 c 0,21,22
 625 1365 625 1365 698 1365 c 128,-1,23
 771 1365 771 1365 819 1351.5 c 128,-1,24
 867 1338 867 1338 900.5 1318 c 0,25,26
 971 1275.91044776 971 1275.91044776 971 1228 c 0,27,28
 971 1179.63636364 971 1179.63636364 926 1151 c 0,29,30
 915 1144 915 1144 906.5 1144 c 128,-1,31
 898 1144 898 1144 889 1154 c 128,-1,32
 880 1164 880 1164 868.5 1178.5 c 128,-1,33
 857 1193 857 1193 841.5 1210.5 c 128,-1,34
 826 1228 826 1228 803.5 1242.5 c 0,35,36
 749.965517241 1277 749.965517241 1277 672.482758621 1277 c 128,-1,37
 595 1277 595 1277 522 1240.5 c 128,-1,38
 449 1204 449 1204 394 1130 c 0,39,40
 274 968.545454545 274 968.545454545 274 679 c 0,41,42
 274 397.951456311 274 397.951456311 385.5 221.5 c 0,43,44
 492.607361963 52 492.607361963 52 659 52 c 0,45,46
 780.230769231 52 780.230769231 52 858.5 144.5 c 0,47,48
 942 243.181818182 942 243.181818182 942 416 c 0,49,50
 942 594.064935065 942 594.064935065 858.5 696 c 0,51,52
 781.5 790 781.5 790 659 790 c 0,53,54
 518.202247191 790 518.202247191 790 443 644.5 c 0,55,56
 420 600 420 600 411.5 564.5 c 128,-1,57
 403 529 403 529 395.5 521.5 c 128,-1,58
 388 514 388 514 378 514 c 0,0,1
EndSplineSet
EndChar

StartChar: nine
Encoding: 57 57 37
Width: 1203
Flags: HW
LayerCount: 2
Fore
SplineSet
829 831 m 256,0,1
 864 831 864 831 864 758.5 c 128,-1,2
 864 686 864 686 836 621 c 128,-1,3
 808 556 808 556 761 507.5 c 0,4,5
 658.762886598 402 658.762886598 402 523 402 c 0,6,7
 339.435483871 402 339.435483871 402 208.5 534 c 0,8,9
 75 668.585365854 75 668.585365854 75 862 c 128,-1,10
 75 1055.43609023 75 1055.43609023 215.5 1206.5 c 0,11,12
 362.916083916 1365 362.916083916 1365 579 1365 c 0,13,14
 817.11299435 1365 817.11299435 1365 967.5 1173.5 c 0,15,16
 1113 988.223021583 1113 988.223021583 1113 710 c 0,17,18
 1113 421.876106195 1113 421.876106195 930.5 199 c 0,19,20
 816.009158448 59.1793262457 816.009158448 59.1793262457 656.5 3 c 0,21,22
 577 -25 577 -25 508 -25 c 128,-1,23
 439 -25 439 -25 390.5 -14.5 c 128,-1,24
 342 -4 342 -4 304.5 13.5 c 0,25,26
 223 51.5333333333 223 51.5333333333 223 96 c 0,27,28
 223 137.533333333 223 137.533333333 249.5 160.5 c 0,29,30
 257 167 257 167 264 167 c 0,31,32
 273.571428571 167 273.571428571 167 297.785714286 132.5 c 0,33,34
 351.47826087 56 351.47826087 56 518 56 c 0,35,36
 695.433962264 56 695.433962264 56 809.5 216.5 c 0,37,38
 932 388.867256637 932 388.867256637 932 684 c 0,39,40
 932 956.823529412 932 956.823529412 824 1122 c 0,41,42
 718.076923077 1284 718.076923077 1284 552 1284 c 0,43,44
 420.554455446 1284 420.554455446 1284 335.5 1180.5 c 0,45,46
 246 1071.59036145 246 1071.59036145 246 890 c 0,47,48
 246 727.658536585 246 727.658536585 331 624 c 0,49,50
 418.74 517 418.74 517 569 517 c 0,51,52
 663.428571429 517 663.428571429 517 726 590 c 0,53,54
 790 664.666666667 790 664.666666667 790 785 c 0,55,56
 790 807 790 807 802 819 c 128,-1,57
 814 831 814 831 829 831 c 256,0,1
EndSplineSet
EndChar

StartChar: seven
Encoding: 55 55 38
Width: 971
Flags: HW
LayerCount: 2
Fore
SplineSet
876 1356 m 128,-1,1
 906 1356 906 1356 906 1337 c 0,2,3
 906 1325.75 906 1325.75 889.5 1296.875 c 0,4,5
 853.666666667 1234.16666667 853.666666667 1234.16666667 840 1200 c 2,6,-1
 634 717 l 2,7,8
 507 420.666666667 507 420.666666667 507 173 c 0,9,10
 507 89 507 89 544 80 c 0,11,12
 578 71.5 578 71.5 578 52 c 0,13,14
 578 35.7111111111 578 35.7111111111 542.5 18.3555555556 c 0,15,16
 474.272727273 -15 474.272727273 -15 419.636363636 -15 c 128,-1,17
 365 -15 365 -15 337.5 11.5 c 128,-1,18
 310 38 310 38 310 81 c 128,-1,19
 310 124 310 124 318.5 175 c 128,-1,20
 327 226 327 226 350.5 299 c 0,21,22
 398.531397704 448.203916273 398.531397704 448.203916273 523 716 c 2,23,-1
 740 1184 l 1,24,25
 624 1196 624 1196 507 1196 c 128,-1,26
 390 1196 390 1196 339 1195.5 c 128,-1,27
 288 1195 288 1195 252.5 1193.5 c 128,-1,28
 217 1192 217 1192 194.5 1189.5 c 128,-1,29
 172 1187 172 1187 157.5 1183.5 c 0,30,31
 134.152542373 1177.86440678 134.152542373 1177.86440678 117.576271186 1165.93220339 c 0,32,33
 89.8863636364 1146 89.8863636364 1146 72 1146 c 0,34,35
 45 1146 45 1146 45 1179 c 0,36,37
 45 1202.28571429 45 1202.28571429 63 1233.14285714 c 0,38,39
 99.5057471264 1295.72413793 99.5057471264 1295.72413793 104.252873563 1316.36206897 c 0,40,41
 113.37037037 1356 113.37037037 1356 146 1356 c 0,42,43
 208.833333333 1356 208.833333333 1356 290.416666667 1350.5 c 0,44,45
 446.166666667 1340 446.166666667 1340 527.583333333 1340 c 128,-1,46
 609 1340 609 1340 656.5 1342.5 c 128,-1,47
 704 1345 704 1345 742.5 1348 c 128,-1,48
 781 1351 781 1351 813.5 1353.5 c 128,-1,0
 846 1356 846 1356 876 1356 c 128,-1,1
EndSplineSet
EndChar

StartChar: eight
Encoding: 56 56 39
Width: 1131
Flags: HW
LayerCount: 2
Fore
SplineSet
377 839 m 1,0,1
 229 947.23880597 229 947.23880597 229 1076 c 0,2,3
 229 1191.8 229 1191.8 322 1275.5 c 0,4,5
 421.444444444 1365 421.444444444 1365 582 1365 c 256,6,7
 738.153846154 1365 738.153846154 1365 828.5 1278 c 0,8,9
 908 1201.44444444 908 1201.44444444 908 1087 c 0,10,11
 908 960.032786885 908 960.032786885 801.5 867.5 c 0,12,13
 771 841 771 841 738 824 c 1,14,15
 982.79 707.72475 982.79 707.72475 1039 540.5 c 0,16,17
 1059 481 1059 481 1059 402 c 128,-1,18
 1059 323 1059 323 1023 244 c 128,-1,19
 987 165 987 165 921.5 105 c 0,20,21
 779.583333333 -25 779.583333333 -25 563 -25 c 0,22,23
 352.141666667 -25 352.141666667 -25 213.5 106 c 0,24,25
 80 232.141732283 80 232.141732283 80 409 c 0,26,27
 80 550.341772152 80 550.341772152 164.5 668 c 0,28,29
 244.040640135 778.752790061 244.040640135 778.752790061 377 839 c 1,0,1
655 863 m 1,30,31
 799 929.782608696 799 929.782608696 799 1073 c 0,32,33
 799 1221.5060241 799 1221.5060241 670.5 1269.5 c 0,34,35
 629 1285 629 1285 580.5 1285 c 128,-1,36
 532 1285 532 1285 495.5 1273.5 c 128,-1,37
 459 1262 459 1262 433.5 1241 c 0,38,39
 380 1196.94117647 380 1196.94117647 380 1131 c 0,40,41
 380 1000.5 380 1000.5 655 863 c 1,30,31
210 544 m 0,42,43
 197 492 197 492 197 420 c 128,-1,44
 197 348 197 348 226 277 c 128,-1,45
 255 206 255 206 305.5 156.5 c 0,46,47
 409.050505051 55 409.050505051 55 576 55 c 0,48,49
 703.351351351 55 703.351351351 55 797 132 c 0,50,51
 897 214.222222222 897 214.222222222 897 342 c 0,52,53
 897 458.081081081 897 458.081081081 828 542 c 0,54,55
 758.146010187 626.957555178 758.146010187 626.957555178 578 720 c 0,56,57
 482.366197183 769.183098592 482.366197183 769.183098592 447 792 c 1,58,59
 253.324110672 717.296442688 253.324110672 717.296442688 210 544 c 0,42,43
EndSplineSet
EndChar

StartChar: n
Encoding: 110 110 40
Width: 1197
Flags: HW
LayerCount: 2
Fore
SplineSet
121 -15 m 0,0,1
 55 -15 55 -15 55 22 c 0,2,3
 55 51 55 51 92 51 c 1,4,-1
 145 46 l 1,5,6
 168 46 168 46 183 54.5 c 128,-1,7
 198 63 198 63 206.5 91 c 0,8,9
 222 142.058823529 222 142.058823529 222 317 c 2,10,-1
 222 616 l 2,11,12
 222 716.7 222 716.7 208.5 742.35 c 128,-1,13
 195 768 195 768 176 777.5 c 128,-1,14
 157 787 157 787 117 793.5 c 128,-1,15
 77 800 77 800 77 825 c 0,16,17
 77 847.911764706 77 847.911764706 128.5 858.455882353 c 0,18,19
 256.867205428 884.737803053 256.867205428 884.737803053 299.933602714 909.368901526 c 0,20,21
 358.736105963 943 358.736105963 943 381.368052982 943 c 128,-1,22
 404 943 404 943 404 920 c 0,23,24
 404 909 404 909 399.5 897 c 0,25,26
 381.406976744 848.751937984 381.406976744 848.751937984 378 742 c 1,27,28
 435 839 435 839 520.5 891 c 128,-1,29
 606 943 606 943 689.5 943 c 128,-1,30
 773 943 773 943 831 922 c 128,-1,31
 889 901 889 901 929.5 858 c 0,32,33
 1014 768.283950617 1014 768.283950617 1014 593 c 2,34,-1
 1014 317 l 2,35,36
 1014 142.058823529 1014 142.058823529 1026 102.529411765 c 128,-1,37
 1038 63 1038 63 1053 54.5 c 128,-1,38
 1068 46 1068 46 1091 46 c 1,39,-1
 1143 51 l 1,40,41
 1180 51 1180 51 1180 22 c 0,42,43
 1180 -15 1180 -15 1113 -15 c 0,44,45
 1074 -15 1074 -15 1030.5 -7.5 c 128,-1,46
 987 0 987 0 937.5 0 c 128,-1,47
 888 0 888 0 843 -7.5 c 128,-1,48
 798 -15 798 -15 759 -15 c 0,49,50
 692 -15 692 -15 692 22 c 0,51,52
 692 51 692 51 729 51 c 1,53,-1
 781 46 l 1,54,55
 804 46 804 46 819 54.5 c 128,-1,56
 834 63 834 63 843 91 c 0,57,58
 859 140.777777778 859 140.777777778 859 317 c 2,59,-1
 859 545 l 2,60,61
 859 831 859 831 651 831 c 0,62,63
 503.701030928 831 503.701030928 831 422.5 697.5 c 0,64,65
 393 649 393 649 377 578 c 1,66,-1
 377 317 l 2,67,68
 377 142.058823529 377 142.058823529 389 102.529411765 c 128,-1,69
 401 63 401 63 416 54.5 c 128,-1,70
 431 46 431 46 454 46 c 1,71,-1
 507 51 l 1,72,73
 544 51 544 51 544 22 c 0,74,75
 544 -15 544 -15 478 -15 c 256,76,77
 440 -15 440 -15 397.5 -7.5 c 128,-1,78
 355 0 355 0 302 0 c 128,-1,79
 249 0 249 0 204.5 -7.5 c 128,-1,80
 160 -15 160 -15 121 -15 c 0,0,1
EndSplineSet
EndChar

StartChar: i
Encoding: 105 105 41
Width: 585
Flags: HW
LayerCount: 2
Fore
SplineSet
380.5 1169.5 m 128,-1,1
 352 1140 352 1140 303.5 1140 c 128,-1,2
 255 1140 255 1140 228.5 1168.5 c 128,-1,3
 202 1197 202 1197 202 1230.5 c 128,-1,4
 202 1264 202 1264 211 1282 c 128,-1,5
 220 1300 220 1300 234.5 1313 c 0,6,7
 264.615384615 1340 264.615384615 1340 309.307692308 1340 c 128,-1,8
 354 1340 354 1340 381.5 1312 c 128,-1,9
 409 1284 409 1284 409 1241.5 c 128,-1,0
 409 1199 409 1199 380.5 1169.5 c 128,-1,1
134 -15 m 256,10,11
 67 -15 67 -15 67 22 c 0,12,13
 67 51 67 51 104 51 c 1,14,-1
 154 46 l 1,15,16
 177 46 177 46 192 54.5 c 128,-1,17
 207 63 207 63 216 91 c 0,18,19
 232 140.777777778 232 140.777777778 232 317 c 2,20,-1
 232 618 l 2,21,22
 232 717.35 232 717.35 218.5 743.675 c 128,-1,23
 205 770 205 770 188 779.5 c 128,-1,24
 171 789 171 789 131.5 794.5 c 128,-1,25
 92 800 92 800 92 826 c 0,26,27
 92 849 92 849 144 859.5 c 0,28,29
 262.906666667 883.51 262.906666667 883.51 308.453333333 909.255 c 0,30,31
 369.922315013 944 369.922315013 944 393 944 c 256,32,33
 416 944 416 944 416 921 c 0,34,35
 416 910 416 910 412 898 c 0,36,37
 389 829 389 829 389 626 c 2,38,-1
 389 317 l 2,39,40
 389 140.777777778 389 140.777777778 401.5 101.888888889 c 128,-1,41
 414 63 414 63 429 54.5 c 128,-1,42
 444 46 444 46 467 46 c 1,43,-1
 517 51 l 1,44,45
 554 51 554 51 554 22 c 0,46,47
 554 -15 554 -15 487 -15 c 256,48,49
 449 -15 449 -15 405.5 -7.5 c 128,-1,50
 362 0 362 0 312 0 c 128,-1,51
 262 0 262 0 217 -7.5 c 128,-1,52
 172 -15 172 -15 134 -15 c 256,10,11
EndSplineSet
EndChar

StartChar: o
Encoding: 111 111 42
Width: 1099
Flags: HW
LayerCount: 2
Fore
SplineSet
76 444 m 0,0,1
 76 541 76 541 111 632 c 128,-1,2
 146 723 146 723 210 792 c 0,3,4
 350.057971014 943 350.057971014 943 559 943 c 0,5,6
 790.6171875 943 790.6171875 943 915.5 804 c 0,7,8
 1029 677.669565217 1029 677.669565217 1029 477 c 0,9,10
 1029 273.658823529 1029 273.658823529 894.5 126.5 c 0,11,12
 756.032258065 -25 756.032258065 -25 546 -25 c 0,13,14
 314.3828125 -25 314.3828125 -25 189.5 114 c 0,15,16
 76 240.330434783 76 240.330434783 76 444 c 0,0,1
245 486.5 m 0,17,18
 245 388 245 388 272 303 c 128,-1,19
 299 218 299 218 345.5 161.5 c 0,20,21
 438.911504425 48 438.911504425 48 581 48 c 0,22,23
 706.833333333 48 706.833333333 48 786 148 c 0,24,25
 868 251.578947368 868 251.578947368 868 416 c 0,26,27
 868 633.387096774 868 633.387096774 767.5 755.5 c 0,28,29
 674.088495575 869 674.088495575 869 532 869 c 0,30,31
 406.166666667 869 406.166666667 869 327 769 c 0,32,33
 245 665.421052632 245 665.421052632 245 486.5 c 0,17,18
EndSplineSet
EndChar

StartChar: c
Encoding: 99 99 43
Width: 950
Flags: HW
LayerCount: 2
Fore
SplineSet
83 457.5 m 0,0,1
 83 564 83 564 121.5 654.5 c 128,-1,2
 160 745 160 745 226.5 809 c 0,3,4
 365.734375 943 365.734375 943 579 943 c 1,5,6
 704.738508682 938.877425945 704.738508682 938.877425945 797.5 884.5 c 0,7,8
 893.024866785 828.502664298 893.024866785 828.502664298 897 749 c 1,9,10
 897 706.379310345 897 706.379310345 839.5 692.5 c 0,11,12
 825 689 825 689 813 689 c 0,13,14
 767 689 767 689 737.5 751.5 c 0,15,16
 681.096 871 681.096 871 545 871 c 0,17,18
 424.536082474 871 424.536082474 871 343.5 771.5 c 0,19,20
 258 666.518987342 258 666.518987342 258 495 c 0,21,22
 258 303.806818182 258 303.806818182 347 187.5 c 0,23,24
 439.973913043 66 439.973913043 66 601 66 c 0,25,26
 711 66 711 66 794 150 c 0,27,28
 830 186 830 186 847.5 186 c 0,29,30
 885 186 885 186 885 149 c 0,31,32
 885 113.465116279 885 113.465116279 814.5 61 c 0,33,34
 698.9375 -25 698.9375 -25 531 -25 c 0,35,36
 329.7265625 -25 329.7265625 -25 204.5 112 c 0,37,38
 83 244.923076923 83 244.923076923 83 457.5 c 0,0,1
EndSplineSet
EndChar

StartChar: h
Encoding: 104 104 44
Width: 1215
Flags: HW
LayerCount: 2
Fore
SplineSet
134 -15 m 256,0,1
 68 -15 68 -15 68 22 c 0,2,3
 68 51 68 51 105 51 c 1,4,-1
 155 46 l 1,5,6
 178 46 178 46 193 54.5 c 128,-1,7
 208 63 208 63 216.5 91 c 0,8,9
 232 142.058823529 232 142.058823529 232 317 c 2,10,-1
 232 1103 l 2,11,12
 232 1197.85714286 232 1197.85714286 217 1226.42857143 c 128,-1,13
 202 1255 202 1255 185 1265 c 128,-1,14
 168 1275 168 1275 130.5 1281 c 128,-1,15
 93 1287 93 1287 93 1312 c 0,16,17
 93 1334.91176471 93 1334.91176471 144.5 1345.45588235 c 0,18,19
 263.433502943 1369.80634541 263.433502943 1369.80634541 308.216751472 1395.4031727 c 0,20,21
 368.746062279 1430 368.746062279 1430 391.373031139 1430 c 128,-1,22
 414 1430 414 1430 414 1407 c 0,23,24
 414 1396 414 1396 409.5 1384 c 0,25,26
 389.096069869 1329.58951965 389.096069869 1329.58951965 388.048034934 1246.79475983 c 128,-1,27
 387 1164 387 1164 387 1111 c 2,28,-1
 387 721 l 1,29,30
 469.781922525 880.431850789 469.781922525 880.431850789 622 928 c 0,31,32
 670 943 670 943 718 943 c 0,33,34
 864 943 864 943 944 858 c 128,-1,35
 1024 773 1024 773 1024 593 c 2,36,-1
 1024 317 l 2,37,38
 1024 142.058823529 1024 142.058823529 1036 102.529411765 c 128,-1,39
 1048 63 1048 63 1063 54.5 c 128,-1,40
 1078 46 1078 46 1101 46 c 1,41,-1
 1151 51 l 1,42,43
 1188 51 1188 51 1188 22 c 0,44,45
 1188 -15 1188 -15 1121 -15 c 256,46,47
 1083 -15 1083 -15 1040 -7.5 c 128,-1,48
 997 0 997 0 947.5 0 c 128,-1,49
 898 0 898 0 853.5 -7.5 c 128,-1,50
 809 -15 809 -15 771 -15 c 256,51,52
 704 -15 704 -15 704 22 c 0,53,54
 704 51 704 51 741 51 c 1,55,-1
 791 46 l 1,56,57
 814 46 814 46 829 54.5 c 128,-1,58
 844 63 844 63 853 91 c 0,59,60
 869 140.777777778 869 140.777777778 869 317 c 2,61,-1
 869 545 l 2,62,63
 869 830 869 830 659 830 c 0,64,65
 507.47706422 830 507.47706422 830 427.5 671.5 c 0,66,67
 400 617 400 617 387 542 c 1,68,-1
 387 317 l 2,69,70
 387 142.058823529 387 142.058823529 399 102.529411765 c 128,-1,71
 411 63 411 63 426 54.5 c 128,-1,72
 441 46 441 46 464 46 c 1,73,-1
 514 51 l 1,74,75
 551 51 551 51 551 22 c 0,76,77
 551 -15 551 -15 485 -15 c 256,78,79
 447 -15 447 -15 406 -7.5 c 128,-1,80
 365 0 365 0 312 0 c 128,-1,81
 259 0 259 0 215.5 -7.5 c 128,-1,82
 172 -15 172 -15 134 -15 c 256,0,1
EndSplineSet
EndChar

StartChar: d
Encoding: 100 100 45
Width: 1101
Flags: HW
LayerCount: 2
Fore
SplineSet
793 89 m 1,0,1
 686.125 -25 686.125 -25 512 -25 c 0,2,3
 308.236641221 -25 308.236641221 -25 190.5 116.5 c 0,4,5
 81 248.100917431 81 248.100917431 81 452 c 0,6,7
 81 656.492063492 81 656.492063492 215 799 c 0,8,9
 350.402985075 943 350.402985075 943 551 943 c 0,10,11
 683 943 683 943 772 893 c 1,12,-1
 772 1104 l 2,13,14
 772 1197.85714286 772 1197.85714286 757 1226.42857143 c 128,-1,15
 742 1255 742 1255 725 1265 c 128,-1,16
 708 1275 708 1275 670.5 1281 c 128,-1,17
 633 1287 633 1287 633 1312 c 0,18,19
 633 1334.60606061 633 1334.60606061 684.5 1345.3030303 c 0,20,21
 803.997615963 1370.12365898 803.997615963 1370.12365898 848.998807981 1395.56182949 c 0,22,23
 909.921377994 1430 909.921377994 1430 931 1430 c 256,24,25
 954 1430 954 1430 954 1407 c 0,26,27
 954 1396 954 1396 949.5 1384 c 0,28,29
 929.096069869 1329.58951965 929.096069869 1329.58951965 928.048034934 1246.79475983 c 128,-1,30
 927 1164 927 1164 927 1112 c 2,31,-1
 927 293 l 2,32,33
 927 182.555555556 927 182.555555556 940 150.777777778 c 128,-1,34
 953 119 953 119 966 109.5 c 128,-1,35
 979 100 979 100 997 100 c 1,36,-1
 1057 113 l 1,37,38
 1086 113 1086 113 1086 87 c 0,39,40
 1086 72 1086 72 1073.5 62 c 128,-1,41
 1061 52 1061 52 1031 39 c 128,-1,42
 1001 26 1001 26 981 12 c 128,-1,43
 961 -2 961 -2 946 -14.5 c 0,44,45
 911.8 -43 911.8 -43 893 -43 c 0,46,47
 828.414634146 -43 828.414634146 -43 793 89 c 1,0,1
772 744 m 1,48,49
 680.631578947 868 680.631578947 868 520 868 c 0,50,51
 399.293478261 868 399.293478261 868 325.5 775 c 0,52,53
 248 677.328767123 248 677.328767123 248 507 c 0,54,55
 248 309.163043478 248 309.163043478 349 189.5 c 0,56,57
 443.110091743 78 443.110091743 78 574 78 c 0,58,59
 706.960784314 78 706.960784314 78 777 172 c 1,60,61
 772 208.666666667 772 208.666666667 772 258 c 2,62,-1
 772 744 l 1,48,49
EndSplineSet
EndChar

StartChar: a
Encoding: 97 97 46
Width: 1033
Flags: HW
LayerCount: 2
Fore
SplineSet
992 134 m 4,0,1
 1021 134 1021 134 1021 107.28125 c 132,-1,2
 1021 80.5625 1021 80.5625 963 57 c 132,-1,3
 905.188235294 33.4470588235 905.188235294 33.4470588235 882.094117647 13.7235294118 c 132,-1,4
 859 -6 859 -6 848 -15.5 c 132,-1,5
 837 -25 837 -25 821.5 -25 c 4,6,7
 791.724137931 -25 791.724137931 -25 771.824291188 0.0911111111111 c 132,-1,8
 751.924444444 25.1822222222 751.924444444 25.1822222222 718 107 c 5,9,10
 661 42 661 42 579.5 8.5 c 132,-1,11
 498 -25 498 -25 418 -25 c 4,12,13
 267.324324324 -25 267.324324324 -25 184.162162162 51.925 c 132,-1,14
 101 128.85 101 128.85 101 262.758333333 c 132,-1,15
 101 396.666666667 101 396.666666667 226.5 480.333333333 c 132,-1,16
 352 564 352 564 547 564 c 4,17,18
 605 564 605 564 700 544 c 5,19,-1
 700 622 l 6,20,21
 700 879 700 879 483 879 c 4,22,23
 367.5 879 367.5 879 314.490566038 772.981132075 c 4,24,25
 267 678 267 678 222.5 678 c 4,26,27
 188.941176471 678 188.941176471 678 164.470588235 696.909090909 c 132,-1,28
 140 715.818181818 140 715.818181818 140 744.909090909 c 132,-1,29
 140 774 140 774 170 809.5 c 132,-1,30
 200 845 200 845 250.5 874.5 c 4,31,32
 367.762711864 943 367.762711864 943 509 943 c 4,33,34
 758.888888889 943 758.888888889 943 832.5 780.5 c 4,35,36
 859 722 859 722 859 638 c 6,37,-1
 859 239 l 6,38,39
 859 162.294117647 859 162.294117647 874.06 140.147058824 c 132,-1,40
 889.12 118 889.12 118 916.06 118 c 132,-1,41
 943 118 943 118 960 126 c 132,-1,42
 977 134 977 134 992 134 c 4,0,1
700 451 m 5,43,44
 628.25 492 628.25 492 518.192307692 492 c 132,-1,45
 408.134615385 492 408.134615385 492 341.5 437 c 132,-1,46
 275 382.111111111 275 382.111111111 275 289.70861678 c 132,-1,47
 275 197.306122449 275 197.306122449 326.203389831 135.653061224 c 132,-1,48
 377.406779661 74 377.406779661 74 456.703389831 74 c 4,49,50
 627.689655172 74 627.689655172 74 703 186 c 5,51,52
 700 214 700 214 700 248 c 6,53,-1
 700 451 l 5,43,44
EndSplineSet
EndChar

StartChar: s
Encoding: 115 115 47
Width: 877
Flags: HW
LayerCount: 2
Fore
SplineSet
111 126.5 m 128,-1,1
 85 166 85 166 85 188.5 c 128,-1,2
 85 211 85 211 91.5 222.5 c 128,-1,3
 98 234 98 234 109 244.5 c 0,4,5
 134.666666667 269 134.666666667 269 159.333333333 269 c 128,-1,6
 184 269 184 269 197 257.5 c 128,-1,7
 210 246 210 246 221.5 212.5 c 128,-1,8
 233 179 233 179 254.5 148 c 128,-1,9
 276 117 276 117 306.5 94 c 0,10,11
 371.47826087 45 371.47826087 45 465 45 c 0,12,13
 547.846153846 45 547.846153846 45 606 85.5 c 0,14,15
 667 127.982142857 667 127.982142857 667 191 c 0,16,17
 667 255.096774194 667 255.096774194 612 303 c 0,18,19
 553.383711167 354.052896725 553.383711167 354.052896725 437.191855584 400.526448363 c 128,-1,20
 321 447 321 447 272 479 c 128,-1,21
 223 511 223 511 192 547 c 0,22,23
 133 615.516129032 133 615.516129032 133 705 c 0,24,25
 133 806.954022989 133 806.954022989 225.5 875 c 128,-1,26
 317.9375 943 317.9375 943 458 943 c 0,27,28
 579.204545455 943 579.204545455 943 661.5 892 c 0,29,30
 734 847.070422535 734 847.070422535 734 797 c 0,31,32
 734 771 734 771 707.5 752.5 c 128,-1,33
 681 734 681 734 657.5 734 c 128,-1,34
 634 734 634 734 621 743.5 c 128,-1,35
 608 753 608 753 582 793 c 0,36,37
 530.65 872 530.65 872 427 872 c 0,38,39
 310.5 872 310.5 872 272 802 c 0,40,41
 261 782 261 782 261 759 c 128,-1,42
 261 736 261 736 270.5 714.5 c 128,-1,43
 280 693 280 693 306.5 670.5 c 0,44,45
 360.828908555 624.371681416 360.828908555 624.371681416 508.414454277 563.185840708 c 0,46,47
 796 443.958965852 796 443.958965852 796 258 c 0,48,49
 796 133.40625 796 133.40625 695 54.5 c 0,50,51
 593.24 -25 593.24 -25 433 -25 c 0,52,53
 290.791044776 -25 290.791044776 -25 183 53.5 c 0,54,0
 137 87 137 87 111 126.5 c 128,-1,1
EndSplineSet
EndChar

StartChar: e
Encoding: 101 101 48
Width: 985
Flags: HW
LayerCount: 2
Fore
SplineSet
112.5 265 m 128,-1,1
 81 353 81 353 81 460.5 c 128,-1,2
 81 568 81 568 118 658 c 128,-1,3
 155 748 155 748 219.5 811.5 c 0,4,5
 355.102362205 945 355.102362205 945 553 945 c 0,6,7
 717.06 945 717.06 945 817.5 837 c 0,8,9
 914 733.23655914 914 733.23655914 914 580 c 0,10,11
 914 530 914 530 900.5 511.5 c 128,-1,12
 887 493 887 493 867 489.5 c 128,-1,13
 847 486 847 486 812 483.5 c 128,-1,14
 777 481 777 481 727 478 c 128,-1,15
 677 475 677 475 615.5 472 c 128,-1,16
 554 469 554 469 490.5 465 c 0,17,18
 342.519823789 455.678414097 342.519823789 455.678414097 254 447 c 1,19,20
 275.653036919 177.883684002 275.653036919 177.883684002 460 98 c 0,21,22
 520 72 520 72 587.5 72 c 0,23,24
 732 72 732 72 816 156 c 0,25,26
 852 192 852 192 871 192 c 0,27,28
 907 192 907 192 907 149 c 0,29,30
 907 127 907 127 877 96 c 128,-1,31
 847 65 847 65 791 32.5 c 0,32,33
 691.923076923 -25 691.923076923 -25 559.961538462 -25 c 128,-1,34
 428 -25 428 -25 344.5 11.5 c 128,-1,35
 261 48 261 48 202.5 112.5 c 128,-1,0
 144 177 144 177 112.5 265 c 128,-1,1
252 521 m 1,36,37
 721.404399323 544.868020305 721.404399323 544.868020305 745.5 571.5 c 0,38,39
 755 582 755 582 755 631 c 128,-1,40
 755 680 755 680 736 726.5 c 128,-1,41
 717 773 717 773 685 805.5 c 0,42,43
 618.538461538 873 618.538461538 873 521 873 c 0,44,45
 410.466666667 873 410.466666667 873 334 780 c 0,46,47
 253.947455387 682.638797092 253.947455387 682.638797092 252 521 c 1,36,37
EndSplineSet
EndChar

StartChar: r
Encoding: 114 114 49
Width: 793
Flags: HW
LayerCount: 2
Fore
SplineSet
117 -15 m 256,0,1
 50 -15 50 -15 50 22 c 0,2,3
 50 51 50 51 87 51 c 1,4,-1
 137 46 l 1,5,6
 160 46 160 46 175 54.5 c 128,-1,7
 190 63 190 63 198.5 91 c 0,8,9
 214 142.058823529 214 142.058823529 214 317 c 2,10,-1
 214 616 l 2,11,12
 214 717.684210526 214 717.684210526 201.5 743.342105263 c 128,-1,13
 189 769 189 769 171.5 778.5 c 128,-1,14
 154 788 154 788 114.5 794 c 128,-1,15
 75 800 75 800 75 825 c 0,16,17
 75 847.911764706 75 847.911764706 126.5 858.455882353 c 0,18,19
 245.433502943 882.806345406 245.433502943 882.806345406 290.216751472 908.403172703 c 0,20,21
 350.746062279 943 350.746062279 943 373.373031139 943 c 128,-1,22
 396 943 396 943 396 920 c 0,23,24
 396 909 396 909 391.5 897 c 128,-1,25
 387 885 387 885 382.5 867.5 c 0,26,27
 373.827493261 833.773584906 373.827493261 833.773584906 370 740 c 1,28,29
 457.026307136 885.97961197 457.026307136 885.97961197 580.5 922.5 c 0,30,31
 616 933 616 933 660.5 933 c 128,-1,32
 705 933 705 933 739.5 901 c 128,-1,33
 774 869 774 869 774 833 c 128,-1,34
 774 797 774 797 766 780 c 128,-1,35
 758 763 758 763 746 751 c 0,36,37
 720 725 720 725 699.5 725 c 128,-1,38
 679 725 679 725 668 735.5 c 128,-1,39
 657 746 657 746 643 774 c 0,40,41
 618 824 618 824 587 824 c 128,-1,42
 556 824 556 824 528 810.5 c 128,-1,43
 500 797 500 797 472 770.5 c 0,44,45
 411.294674556 713.046745562 411.294674556 713.046745562 369 615 c 1,46,-1
 369 317 l 2,47,48
 369 126.705882353 369 126.705882353 379.5 93.3529411765 c 128,-1,49
 390 60 390 60 405.5 53.5 c 128,-1,50
 421 47 421 47 448 47 c 1,51,-1
 537 55 l 1,52,53
 557 55 557 55 569 45.5 c 128,-1,54
 581 36 581 36 581 22 c 0,55,56
 581 -15 581 -15 508 -15 c 1,57,-1
 297 0 l 1,58,59
 246 0 246 0 200.5 -7.5 c 128,-1,60
 155 -15 155 -15 117 -15 c 256,0,1
EndSplineSet
EndChar

StartChar: l
Encoding: 108 108 50
Width: 590
Flags: HW
LayerCount: 2
Fore
SplineSet
122 -15 m 256,0,1
 56 -15 56 -15 56 22 c 0,2,3
 56 51 56 51 93 51 c 1,4,-1
 143 46 l 1,5,6
 166 46 166 46 181 54.5 c 128,-1,7
 196 63 196 63 204.5 91 c 0,8,9
 220 142.058823529 220 142.058823529 220 317 c 2,10,-1
 220 1062 l 2,11,12
 220 1228.14285714 220 1228.14285714 151 1238 c 0,13,14
 101 1246 101 1246 101 1271 c 0,15,16
 101 1293.91176471 101 1293.91176471 148 1303.45588235 c 128,-1,17
 195 1313 195 1313 233 1327.5 c 128,-1,18
 271 1342 271 1342 300 1355.5 c 128,-1,19
 329 1369 329 1369 349.5 1379 c 128,-1,20
 370 1389 370 1389 379 1389 c 0,21,22
 402 1389 402 1389 402 1366 c 0,23,24
 402 1355 402 1355 397.5 1343 c 0,25,26
 377.096069869 1288.58951965 377.096069869 1288.58951965 376.048034934 1205.79475983 c 128,-1,27
 375 1123 375 1123 375 1070 c 2,28,-1
 375 317 l 2,29,30
 375 142.058823529 375 142.058823529 387 102.529411765 c 128,-1,31
 399 63 399 63 414 54.5 c 128,-1,32
 429 46 429 46 452 46 c 1,33,-1
 502 51 l 1,34,35
 539 51 539 51 539 22 c 0,36,37
 539 -15 539 -15 473 -15 c 256,38,39
 435 -15 435 -15 394 -7.5 c 128,-1,40
 353 0 353 0 300 0 c 128,-1,41
 247 0 247 0 203.5 -7.5 c 128,-1,42
 160 -15 160 -15 122 -15 c 256,0,1
EndSplineSet
EndChar

StartChar: m
Encoding: 109 109 51
Width: 1794
Flags: HW
LayerCount: 2
Fore
SplineSet
124 -15 m 256,0,1
 58 -15 58 -15 58 22 c 0,2,3
 58 51 58 51 95 51 c 1,4,-1
 145 46 l 1,5,6
 168 46 168 46 183 54.5 c 128,-1,7
 198 63 198 63 206.5 91 c 0,8,9
 222 142.058823529 222 142.058823529 222 317 c 2,10,-1
 222 616 l 2,11,12
 222 715.631578947 222 715.631578947 209 742.315789474 c 128,-1,13
 196 769 196 769 178.5 778.5 c 128,-1,14
 161 788 161 788 122 794 c 128,-1,15
 83 800 83 800 83 825 c 0,16,17
 83 847.911764706 83 847.911764706 134.5 858.455882353 c 0,18,19
 253.433502943 882.806345406 253.433502943 882.806345406 298.216751472 908.403172703 c 0,20,21
 358.746062279 943 358.746062279 943 381.373031139 943 c 128,-1,22
 404 943 404 943 404 920 c 0,23,24
 404 909 404 909 399.5 897 c 128,-1,25
 395 885 395 885 390.5 868.5 c 0,26,27
 383.065217391 841.239130435 383.065217391 841.239130435 379 764 c 1,28,29
 468.108907446 893.054279749 468.108907446 893.054279749 602.5 931 c 0,30,31
 645 943 645 943 688 943 c 0,32,33
 921.660550459 943 921.660550459 943 977 735 c 1,34,35
 1066.12531469 882.517762238 1066.12531469 882.517762238 1212 928.5 c 0,36,37
 1258 943 1258 943 1305 943 c 0,38,39
 1451 943 1451 943 1531 858 c 128,-1,40
 1611 773 1611 773 1611 593 c 2,41,-1
 1611 317 l 2,42,43
 1611 142.058823529 1611 142.058823529 1623 102.529411765 c 128,-1,44
 1635 63 1635 63 1650 54.5 c 128,-1,45
 1665 46 1665 46 1688 46 c 1,46,-1
 1738 51 l 1,47,48
 1775 51 1775 51 1775 22 c 0,49,50
 1775 -15 1775 -15 1708 -15 c 256,51,52
 1670 -15 1670 -15 1627 -7.5 c 128,-1,53
 1584 0 1584 0 1534.5 0 c 128,-1,54
 1485 0 1485 0 1440.5 -7.5 c 128,-1,55
 1396 -15 1396 -15 1358 -15 c 256,56,57
 1291 -15 1291 -15 1291 22 c 0,58,59
 1291 51 1291 51 1328 51 c 1,60,-1
 1378 46 l 1,61,62
 1401 46 1401 46 1416 54.5 c 128,-1,63
 1431 63 1431 63 1440 91 c 0,64,65
 1456 140.777777778 1456 140.777777778 1456 317 c 2,66,-1
 1456 545 l 2,67,68
 1456 764.194805195 1456 764.194805195 1338.5 811.5 c 0,69,70
 1300 827 1300 827 1256.5 827 c 128,-1,71
 1213 827 1213 827 1175 811.5 c 128,-1,72
 1137 796 1137 796 1103.5 766 c 0,73,74
 1030.98467583 701.060903733 1030.98467583 701.060903733 994 594 c 1,75,-1
 994 317 l 2,76,77
 994 142.058823529 994 142.058823529 1006 102.529411765 c 128,-1,78
 1018 63 1018 63 1033 54.5 c 128,-1,79
 1048 46 1048 46 1071 46 c 1,80,-1
 1121 51 l 1,81,82
 1158 51 1158 51 1158 22 c 0,83,84
 1158 -15 1158 -15 1091 -15 c 256,85,86
 1053 -15 1053 -15 1010 -7.5 c 128,-1,87
 967 0 967 0 917.5 0 c 128,-1,88
 868 0 868 0 823.5 -7.5 c 128,-1,89
 779 -15 779 -15 741 -15 c 256,90,91
 674 -15 674 -15 674 22 c 0,92,93
 674 51 674 51 711 51 c 1,94,-1
 761 46 l 1,95,96
 784 46 784 46 799 54.5 c 128,-1,97
 814 63 814 63 823 91 c 0,98,99
 839 140.777777778 839 140.777777778 839 317 c 2,100,-1
 839 545 l 2,101,102
 839 764.194805195 839 764.194805195 721.5 811.5 c 0,103,104
 683 827 683 827 639.5 827 c 128,-1,105
 596 827 596 827 558 811.5 c 128,-1,106
 520 796 520 796 486.5 766 c 0,107,108
 413.984675835 701.060903733 413.984675835 701.060903733 377 594 c 1,109,-1
 377 317 l 2,110,111
 377 142.058823529 377 142.058823529 389 102.529411765 c 128,-1,112
 401 63 401 63 416 54.5 c 128,-1,113
 431 46 431 46 454 46 c 1,114,-1
 504 51 l 1,115,116
 541 51 541 51 541 22 c 0,117,118
 541 -15 541 -15 475 -15 c 256,119,120
 437 -15 437 -15 396 -7.5 c 128,-1,121
 355 0 355 0 302 0 c 128,-1,122
 249 0 249 0 205.5 -7.5 c 128,-1,123
 162 -15 162 -15 124 -15 c 256,0,1
EndSplineSet
EndChar

StartChar: j
Encoding: 106 106 52
Width: 570
Flags: HW
LayerCount: 2
Fore
SplineSet
376.5 1169.5 m 128,-1,1
 348 1140 348 1140 299.5 1140 c 128,-1,2
 251 1140 251 1140 224.5 1168.5 c 128,-1,3
 198 1197 198 1197 198 1230.5 c 128,-1,4
 198 1264 198 1264 207 1282 c 128,-1,5
 216 1300 216 1300 230.5 1313 c 0,6,7
 260.615384615 1340 260.615384615 1340 305.307692308 1340 c 128,-1,8
 350 1340 350 1340 377.5 1312 c 128,-1,9
 405 1284 405 1284 405 1241.5 c 128,-1,0
 405 1199 405 1199 376.5 1169.5 c 128,-1,1
79 -448 m 2,10,11
 232 -448 232 -448 232 -46 c 2,12,-1
 232 618 l 2,13,14
 232 720.333333333 232 720.333333333 218 745.666666667 c 128,-1,15
 204 771 204 771 184.5 779.5 c 128,-1,16
 165 788 165 788 124.5 794.5 c 128,-1,17
 84 801 84 801 84 826 c 0,18,19
 84 848.911764706 84 848.911764706 121.5 856.455882353 c 128,-1,20
 159 864 159 864 187 870.5 c 128,-1,21
 215 877 215 877 241.5 885 c 0,22,23
 299.895927602 902.628959276 299.895927602 902.628959276 328.447963801 918.814479638 c 0,24,25
 372.876432765 944 372.876432765 944 394.938216382 944 c 128,-1,26
 417 944 417 944 417 921 c 0,27,28
 417 910 417 910 413 898 c 0,29,30
 390 829 390 829 390 626 c 2,31,-1
 390 -13 l 2,32,33
 390 -384.953846154 390 -384.953846154 189 -487 c 0,34,35
 124 -520 124 -520 61.5 -520 c 128,-1,36
 -1 -520 -1 -520 -41 -510.5 c 128,-1,37
 -81 -501 -81 -501 -112 -484 c 0,38,39
 -180 -446.709677419 -180 -446.709677419 -180 -391 c 0,40,41
 -180 -367 -180 -367 -156 -347 c 128,-1,42
 -132 -327 -132 -327 -103.5 -327 c 128,-1,43
 -75 -327 -75 -327 -56.5 -341.5 c 128,-1,44
 -38 -356 -38 -356 -20 -382.5 c 128,-1,45
 -2 -409 -2 -409 7.5 -421 c 128,-1,46
 17 -433 17 -433 25.5 -439 c 0,47,48
 38.25 -448 38.25 -448 60 -448 c 2,49,-1
 79 -448 l 2,10,11
EndSplineSet
EndChar

StartChar: f
Encoding: 102 102 53
Width: 696
Flags: HW
LayerCount: 2
Fore
SplineSet
157 -15 m 0,0,1
 90 -15 90 -15 90 22 c 0,2,3
 90 51 90 51 127 51 c 1,4,-1
 167 46 l 1,5,6
 190 46 190 46 204.5 54.5 c 128,-1,7
 219 63 219 63 226.5 91 c 0,8,9
 239 137.666666667 239 137.666666667 239 317 c 2,10,-1
 239 839 l 1,11,-1
 145 841 l 2,12,13
 128 841 128 841 128 860 c 0,14,15
 128 897.083333333 128 897.083333333 140.5 908.541666667 c 128,-1,16
 153 920 153 920 161 920 c 2,17,-1
 239 920 l 1,18,-1
 239 923 l 2,19,20
 239 1342.07377049 239 1342.07377049 415 1444.5 c 0,21,22
 476 1480 476 1480 561 1480 c 0,23,24
 633.666666667 1480 633.666666667 1480 670.333333333 1464.5 c 128,-1,25
 707 1449 707 1449 724 1439.5 c 128,-1,26
 741 1430 741 1430 755.5 1417.5 c 0,27,28
 790 1387.75862069 790 1387.75862069 790 1359.37931034 c 128,-1,29
 790 1331 790 1331 771 1314.5 c 128,-1,30
 752 1298 752 1298 733 1298 c 128,-1,31
 714 1298 714 1298 703 1299.5 c 128,-1,32
 692 1301 692 1301 680 1307.5 c 0,33,34
 655.701067616 1320.66192171 655.701067616 1320.66192171 633.350533808 1346.33096085 c 128,-1,35
 611 1372 611 1372 603.5 1380.5 c 128,-1,36
 596 1389 596 1389 585.5 1395 c 0,37,38
 562.75 1408 562.75 1408 522.375 1408 c 128,-1,39
 482 1408 482 1408 458.5 1379.5 c 128,-1,40
 435 1351 435 1351 422.5 1292.5 c 0,41,42
 402 1196.56 402 1196.56 402 938 c 2,43,-1
 402 920 l 1,44,-1
 612 920 l 2,45,46
 644 920 644 920 644 893 c 0,47,48
 644 861.076923077 644 861.076923077 630.5 846.538461538 c 128,-1,49
 617 832 617 832 609 832 c 2,50,-1
 402 836 l 1,51,-1
 402 319 l 2,52,53
 402 134 402 134 414 98 c 128,-1,54
 426 62 426 62 442.5 55 c 128,-1,55
 459 48 459 48 486 48 c 257,56,-1
 585 55 l 1,57,58
 630 55 630 55 630 20 c 128,-1,59
 630 -15 630 -15 557 -15 c 1,60,-1
 327 0 l 1,61,62
 276 0 276 0 233.5 -7.5 c 128,-1,63
 191 -15 191 -15 157 -15 c 0,0,1
EndSplineSet
EndChar

StartChar: t
Encoding: 116 116 54
Width: 686
Flags: HW
LayerCount: 2
Fore
SplineSet
642 844 m 0,0,1
 642 817 642 817 610 817 c 2,2,-1
 326 820 l 1,3,-1
 326 266 l 2,4,5
 326 111.347826087 326 111.347826087 401 82 c 0,6,7
 424 73 424 73 455 73 c 128,-1,8
 486 73 486 73 511.5 83.5 c 128,-1,9
 537 94 537 94 557 106 c 128,-1,10
 577 118 577 118 591 128.5 c 128,-1,11
 605 139 605 139 617.5 139 c 128,-1,12
 630 139 630 139 640 125 c 128,-1,13
 650 111 650 111 650 97 c 256,14,15
 650 62.0408163265 650 62.0408163265 561 13 c 0,16,17
 492.6 -25 492.6 -25 389.8 -25 c 128,-1,18
 287 -25 287 -25 229 48.5 c 128,-1,19
 171 122 171 122 171 252 c 2,20,-1
 171 823 l 1,21,-1
 110 823 l 2,22,23
 38 823 38 823 38 860 c 0,24,25
 38 886.666666667 38 886.666666667 78 896.833333333 c 128,-1,26
 118 907 118 907 147 932.5 c 128,-1,27
 176 958 176 958 194.5 990.5 c 128,-1,28
 213 1023 213 1023 224 1058 c 128,-1,29
 235 1093 235 1093 244.5 1122 c 0,30,31
 266.120689655 1188 266.120689655 1188 294 1188 c 0,32,33
 326 1188 326 1188 326 1131 c 2,34,-1
 326 905 l 1,35,-1
 607 911 l 2,36,37
 628.136363636 911 628.136363636 911 639.5 861 c 0,38,39
 642 850 642 850 642 844 c 0,0,1
EndSplineSet
EndChar

StartChar: period
Encoding: 46 46 55
Width: 490
Flags: HW
LayerCount: 2
Fore
SplineSet
160 7.5 m 128,-1,1
 130 40 130 40 130 77.5 c 128,-1,2
 130 115 130 115 139.5 135.5 c 128,-1,3
 149 156 149 156 165.5 171 c 0,4,5
 199.6 202 199.6 202 249.3 202 c 128,-1,6
 299 202 299 202 329.5 170 c 128,-1,7
 360 138 360 138 360 102 c 128,-1,8
 360 66 360 66 352 45.5 c 128,-1,9
 344 25 344 25 328.5 9 c 0,10,11
 295.5625 -25 295.5625 -25 242.78125 -25 c 128,-1,0
 190 -25 190 -25 160 7.5 c 128,-1,1
EndSplineSet
EndChar

StartChar: comma
Encoding: 44 44 56
Width: 413
Flags: HW
LayerCount: 2
Fore
SplineSet
215.5 -246.5 m 128,-1,1
 192 -269 192 -269 174.5 -269 c 128,-1,2
 157 -269 157 -269 157 -251 c 0,3,4
 157 -242 157 -242 166.5 -225 c 128,-1,5
 176 -208 176 -208 187 -186 c 0,6,7
 217 -126 217 -126 217 -92.5 c 0,8,9
 217 -32 217 -32 165 8 c 0,10,11
 111.883435583 49.3128834356 111.883435583 49.3128834356 107.941717791 66.6564417178 c 128,-1,12
 104 84 104 84 104 96.5 c 128,-1,13
 104 109 104 109 115.5 124 c 128,-1,14
 127 139 127 139 146 152.5 c 0,15,16
 191.740740741 185 191.740740741 185 221.87037037 185 c 128,-1,17
 252 185 252 185 266 176 c 128,-1,18
 280 167 280 167 291.5 149.5 c 0,19,20
 317 110.695652174 317 110.695652174 317 42.347826087 c 128,-1,21
 317 -26 317 -26 300.5 -84 c 128,-1,22
 284 -142 284 -142 261.5 -183 c 128,-1,0
 239 -224 239 -224 215.5 -246.5 c 128,-1,1
EndSplineSet
EndChar

StartChar: semicolon
Encoding: 59 59 57
Width: 430
Flags: HW
LayerCount: 2
Fore
SplineSet
291 594 m 128,-1,1
 269 585 269 585 229.5 585 c 128,-1,2
 190 585 190 585 160 617.5 c 128,-1,3
 130 650 130 650 130 687.5 c 128,-1,4
 130 725 130 725 139.5 745.5 c 128,-1,5
 149 766 149 766 165.5 781 c 0,6,7
 199.6 812 199.6 812 249.3 812 c 128,-1,8
 299 812 299 812 329.5 780 c 128,-1,9
 360 748 360 748 360 712 c 128,-1,10
 360 676 360 676 352 655.5 c 128,-1,11
 344 635 344 635 328.5 619 c 128,-1,0
 313 603 313 603 291 594 c 128,-1,1
229.5 -246.5 m 128,-1,13
 206 -269 206 -269 188.5 -269 c 128,-1,14
 171 -269 171 -269 171 -251 c 0,15,16
 171 -242 171 -242 180.5 -225 c 128,-1,17
 190 -208 190 -208 201 -186 c 0,18,19
 231 -126 231 -126 231 -92.5 c 0,20,21
 231 -32 231 -32 179 8 c 0,22,23
 125.883435583 49.3128834356 125.883435583 49.3128834356 121.941717791 66.6564417178 c 128,-1,24
 118 84 118 84 118 96.5 c 128,-1,25
 118 109 118 109 129.5 124 c 128,-1,26
 141 139 141 139 160 152.5 c 0,27,28
 205.740740741 185 205.740740741 185 235.87037037 185 c 128,-1,29
 266 185 266 185 280 176 c 128,-1,30
 294 167 294 167 305.5 149.5 c 0,31,32
 331 110.695652174 331 110.695652174 331 42.347826087 c 128,-1,33
 331 -26 331 -26 314.5 -84 c 128,-1,34
 298 -142 298 -142 275.5 -183 c 128,-1,12
 253 -224 253 -224 229.5 -246.5 c 128,-1,13
EndSplineSet
EndChar

StartChar: colon
Encoding: 58 58 58
Width: 490
Flags: HW
LayerCount: 2
Fore
SplineSet
291 594 m 128,-1,1
 269 585 269 585 229.5 585 c 128,-1,2
 190 585 190 585 160 617.5 c 128,-1,3
 130 650 130 650 130 687.5 c 128,-1,4
 130 725 130 725 139.5 745.5 c 128,-1,5
 149 766 149 766 165.5 781 c 0,6,7
 199.6 812 199.6 812 249.3 812 c 128,-1,8
 299 812 299 812 329.5 780 c 128,-1,9
 360 748 360 748 360 712 c 128,-1,10
 360 676 360 676 352 655.5 c 128,-1,11
 344 635 344 635 328.5 619 c 128,-1,0
 313 603 313 603 291 594 c 128,-1,1
160 7.5 m 128,-1,13
 130 40 130 40 130 77.5 c 128,-1,14
 130 115 130 115 139.5 135.5 c 128,-1,15
 149 156 149 156 165.5 171 c 0,16,17
 199.6 202 199.6 202 249.3 202 c 128,-1,18
 299 202 299 202 329.5 170 c 128,-1,19
 360 138 360 138 360 102 c 128,-1,20
 360 66 360 66 352 45.5 c 128,-1,21
 344 25 344 25 328.5 9 c 0,22,23
 295.5625 -25 295.5625 -25 242.78125 -25 c 128,-1,12
 190 -25 190 -25 160 7.5 c 128,-1,13
EndSplineSet
EndChar

StartChar: exclam
Encoding: 33 33 59
Width: 518
Flags: HW
LayerCount: 2
Fore
SplineSet
378 1343 m 1,0,1
 318.4375 866.5 318.4375 866.5 301 355 c 0,2,3
 299.269230769 310 299.269230769 310 270 310 c 0,4,5
 256 310 256 310 245.5 321 c 128,-1,6
 235 332 235 332 235 355 c 0,7,8
 230.251239405 733.317927395 230.251239405 733.317927395 161 1273 c 1,9,-1
 160 1280 l 1,10,11
 160 1306 160 1306 186.5 1319.5 c 128,-1,12
 213 1333 213 1333 254.5 1344 c 0,13,14
 333.727272727 1365 333.727272727 1365 355.863636364 1365 c 128,-1,15
 378 1365 378 1365 378 1343 c 1,0,1
196.5 3.5 m 128,-1,17
 170 32 170 32 170 65.5 c 128,-1,18
 170 99 170 99 178.5 117 c 128,-1,19
 187 135 187 135 201.5 148 c 0,20,21
 231.615384615 175 231.615384615 175 275.307692308 175 c 128,-1,22
 319 175 319 175 346 147 c 128,-1,23
 373 119 373 119 373 76.5 c 128,-1,24
 373 34 373 34 345 4.5 c 128,-1,25
 317 -25 317 -25 270 -25 c 128,-1,16
 223 -25 223 -25 196.5 3.5 c 128,-1,17
EndSplineSet
EndChar

StartChar: exclamdown
Encoding: 161 161 60
Width: 518
Flags: HW
LayerCount: 2
Fore
SplineSet
330 1043 m 128,-1,1
 303 1015 303 1015 270.5 1015 c 128,-1,2
 238 1015 238 1015 219 1022 c 128,-1,3
 200 1029 200 1029 185.5 1042 c 0,4,5
 154 1070.24137931 154 1070.24137931 154 1114.12068966 c 128,-1,6
 154 1158 154 1158 180.5 1186.5 c 128,-1,7
 207 1215 207 1215 254 1215 c 128,-1,8
 301 1215 301 1215 329 1185.5 c 128,-1,9
 357 1156 357 1156 357 1113.5 c 128,-1,0
 357 1071 357 1071 330 1043 c 128,-1,1
144 -90 m 1,10,-1
 145 -83 l 1,11,12
 214.251239405 456.682072605 214.251239405 456.682072605 219 835 c 0,13,14
 219 858 219 858 229.5 869 c 128,-1,15
 240 880 240 880 252.5 880 c 0,16,17
 283.269230769 880 283.269230769 880 285 835 c 0,18,19
 297.341092211 472.994628469 297.341092211 472.994628469 323.170546106 221.497314235 c 0,20,21
 358.5 -122.5 358.5 -122.5 360.25 -148.75 c 128,-1,22
 362 -175 362 -175 335 -175 c 0,23,24
 318.75 -175 318.75 -175 257.875 -159 c 128,-1,25
 197 -143 197 -143 170.5 -129.5 c 128,-1,26
 144 -116 144 -116 144 -90 c 1,10,-1
EndSplineSet
EndChar

StartChar: periodcentered
Encoding: 183 183 61
Width: 580
Flags: HW
LayerCount: 2
Fore
SplineSet
336 515 m 128,-1,1
 314 506 314 506 274.5 506 c 128,-1,2
 235 506 235 506 205 538.5 c 128,-1,3
 175 571 175 571 175 608.5 c 128,-1,4
 175 646 175 646 184.5 666.5 c 128,-1,5
 194 687 194 687 210.5 702 c 0,6,7
 244.6 733 244.6 733 294.3 733 c 128,-1,8
 344 733 344 733 374.5 701 c 128,-1,9
 405 669 405 669 405 633 c 128,-1,10
 405 597 405 597 397 576.5 c 128,-1,11
 389 556 389 556 373.5 540 c 128,-1,0
 358 524 358 524 336 515 c 128,-1,1
EndSplineSet
EndChar

StartChar: bullet
Encoding: 8226 8226 62
Width: 472
Flags: HW
LayerCount: 2
Fore
SplineSet
232.5 404 m 0,0,1
 192 404 192 404 160 417 c 128,-1,2
 128 430 128 430 106 453.5 c 0,3,4
 60 502.636363636 60 502.636363636 60 581 c 0,5,6
 60 654 60 654 115 703.5 c 0,7,8
 167.777777778 751 167.777777778 751 223.388888889 751 c 128,-1,9
 279 751 279 751 310.5 738 c 128,-1,10
 342 725 342 725 364.5 702 c 0,11,12
 412 653.444444444 412 653.444444444 412 580 c 0,13,14
 412 505.531914894 412 505.531914894 363.5 456 c 0,15,16
 312.583333333 404 312.583333333 404 232.5 404 c 0,0,1
EndSplineSet
EndChar

StartChar: quoteleft
Encoding: 8216 8216 63
Width: 531
Flags: HW
LayerCount: 2
Fore
SplineSet
281 930 m 2,0,1
 277 930 277 930 264 932 c 128,-1,2
 251 934 251 934 233.5 950.5 c 128,-1,3
 216 967 216 967 203.5 991.5 c 0,4,5
 177 1043.44 177 1043.44 177 1109.72 c 128,-1,6
 177 1176 177 1176 199.5 1229 c 128,-1,7
 222 1282 222 1282 251.5 1318.5 c 128,-1,8
 281 1355 281 1355 309.5 1374 c 128,-1,9
 338 1393 338 1393 348 1393 c 128,-1,10
 358 1393 358 1393 365 1385.5 c 128,-1,11
 372 1378 372 1378 372 1369 c 256,12,13
 372 1347.06666667 372 1347.06666667 355 1334.53333333 c 128,-1,14
 338 1322 338 1322 327 1307.5 c 128,-1,15
 316 1293 316 1293 305.5 1275 c 0,16,17
 280 1231.28571429 280 1231.28571429 280 1190.64285714 c 128,-1,18
 280 1150 280 1150 295.5 1124 c 128,-1,19
 311 1098 311 1098 329.5 1081 c 128,-1,20
 348 1064 348 1064 363.5 1049 c 128,-1,21
 379 1034 379 1034 379 1015.5 c 128,-1,22
 379 997 379 997 374 983.5 c 128,-1,23
 369 970 369 970 358 958 c 0,24,25
 332.333333333 930 332.333333333 930 290 930 c 2,26,-1
 281 930 l 2,0,1
EndSplineSet
EndChar

StartChar: hyphen
Encoding: 45 45 64
Width: 687
Flags: HW
LayerCount: 2
Fore
SplineSet
584 615 m 2,0,1
 607 615 607 615 607 597 c 0,2,3
 607 573 607 573 596.5 551.5 c 128,-1,4
 586 530 586 530 574 530 c 2,5,-1
 104 530 l 2,6,7
 80 530 80 530 80 548 c 0,8,9
 80 572 80 572 90.5 593.5 c 128,-1,10
 101 615 101 615 113 615 c 2,11,-1
 584 615 l 2,0,1
EndSplineSet
EndChar

StartChar: u
Encoding: 117 117 65
Width: 1167
Flags: HW
LayerCount: 2
Fore
SplineSet
1086 132 m 1,0,1
 1115 132 1115 132 1115 106 c 0,2,3
 1115 92 1115 92 1102.5 82 c 128,-1,4
 1090 72 1090 72 1064 61.5 c 128,-1,5
 1038 51 1038 51 1023 44 c 128,-1,6
 1008 37 1008 37 995 30 c 0,7,8
 974.2 18.8 974.2 18.8 949.1 2.4 c 0,9,10
 907.164634146 -25 907.164634146 -25 891.582317073 -25 c 128,-1,11
 876 -25 876 -25 863.5 -17.5 c 128,-1,12
 851 -10 851 -10 838.5 9.5 c 0,13,14
 807.740681998 57.4845360825 807.740681998 57.4845360825 806 148 c 1,15,16
 721.116016053 27.9916089019 721.116016053 27.9916089019 587.5 -5 c 0,17,18
 547 -15 547 -15 492 -15 c 128,-1,19
 437 -15 437 -15 378.5 3.5 c 128,-1,20
 320 22 320 22 277.5 63.5 c 0,21,22
 188 150.894117647 188 150.894117647 188 328 c 2,23,-1
 188 616 l 2,24,25
 188 712.5 188 712.5 176.5 741.25 c 128,-1,26
 165 770 165 770 151.5 780 c 128,-1,27
 138 790 138 790 116 794.5 c 0,28,29
 71 803.704545455 71 803.704545455 71 827 c 0,30,31
 71 851.911764706 71 851.911764706 122.5 862.455882353 c 0,32,33
 234.794971565 885.447171506 234.794971565 885.447171506 271.897485783 906.723585753 c 0,34,35
 324.694497394 937 324.694497394 937 344.847248697 937 c 128,-1,36
 365 937 365 937 365 914 c 0,37,38
 365 903 365 903 360.5 891 c 0,39,40
 340.071748879 836.524663677 340.071748879 836.524663677 339.035874439 756.762331839 c 128,-1,41
 338 677 338 677 338 624 c 2,42,-1
 338 368 l 2,43,44
 338 159.725 338 159.725 472 114.5 c 0,45,46
 512 101 512 101 551 101 c 128,-1,47
 590 101 590 101 624.5 110.5 c 128,-1,48
 659 120 659 120 692 140.5 c 0,49,50
 763.288659794 184.785379569 763.288659794 184.785379569 805 272 c 1,51,-1
 808 638 l 2,52,53
 808 723.428571429 808 723.428571429 793 747.714285714 c 128,-1,54
 778 772 778 772 760 780 c 128,-1,55
 742 788 742 788 703.5 794 c 128,-1,56
 665 800 665 800 665 826 c 0,57,58
 665 848.911764706 665 848.911764706 713.5 858.955882353 c 128,-1,59
 762 869 762 869 803 883.5 c 128,-1,60
 844 898 844 898 875.5 911 c 128,-1,61
 907 924 907 924 927.5 933.5 c 128,-1,62
 948 943 948 943 956 943 c 0,63,64
 979 943 979 943 979 920 c 0,65,66
 979 909 979 909 974.5 897 c 0,67,68
 954.096069869 842.589519651 954.096069869 842.589519651 953.048034934 759.794759825 c 128,-1,69
 952 677 952 677 952 624 c 2,70,-1
 952 249 l 2,71,72
 952 171.888888889 952 171.888888889 965 150.944444444 c 0,73,74
 985.448275862 118 985.448275862 118 1022 118 c 1,75,-1
 1086 132 l 1,0,1
EndSplineSet
EndChar

StartChar: p
Encoding: 112 112 66
Width: 1169
Flags: HW
LayerCount: 2
Fore
SplineSet
87 -351 m 1,0,-1
 171 -358 l 1,1,2
 184 -358 184 -358 192 -352 c 128,-1,3
 200 -346 200 -346 205 -324 c 0,4,5
 214 -284.4 214 -284.4 214 -148 c 2,6,-1
 214 617 l 2,7,8
 214 710.857142857 214 710.857142857 199 739.428571429 c 128,-1,9
 184 768 184 768 167 778 c 128,-1,10
 150 788 150 788 112.5 794 c 128,-1,11
 75 800 75 800 75 825 c 0,12,13
 75 847.606060606 75 847.606060606 126.5 858.303030303 c 0,14,15
 245.997615963 883.123658979 245.997615963 883.123658979 290.998807981 908.56182949 c 0,16,17
 351.921377994 943 351.921377994 943 373 943 c 256,18,19
 396 943 396 943 396 920 c 0,20,21
 396 909 396 909 391.5 897 c 128,-1,22
 387 885 387 885 382.5 869 c 0,23,24
 375.167330677 842.928286853 375.167330677 842.928286853 371 770 c 1,25,26
 493.365853659 943 493.365853659 943 679 943 c 0,27,28
 868.472440945 943 868.472440945 943 980.5 807.5 c 0,29,30
 1088 677.476190476 1088 677.476190476 1088 468 c 256,31,32
 1088 263.112 1088 263.112 954.5 120 c 0,33,34
 819.23880597 -25 819.23880597 -25 620 -25 c 0,35,36
 475.810810811 -25 475.810810811 -25 369 51 c 1,37,-1
 369 -148 l 2,38,39
 369 -336.642857143 369 -336.642857143 385 -351.5 c 0,40,41
 392 -358 392 -358 403 -358 c 2,42,-1
 537 -347 l 1,43,44
 557 -347 557 -347 569 -359.5 c 128,-1,45
 581 -372 581 -372 581 -386 c 0,46,47
 581 -429 581 -429 508 -429 c 1,48,-1
 297 -414 l 1,49,50
 246 -414 246 -414 200.5 -421.5 c 128,-1,51
 155 -429 155 -429 117 -429 c 256,52,53
 79 -429 79 -429 64.5 -415.5 c 128,-1,54
 50 -402 50 -402 50 -387 c 128,-1,55
 50 -372 50 -372 60 -361.5 c 128,-1,56
 70 -351 70 -351 87 -351 c 1,0,-1
369 221 m 1,57,58
 428.199720182 99.4847848898 428.199720182 99.4847848898 564.5 61 c 0,59,60
 607 49 607 49 656 49 c 128,-1,61
 705 49 705 49 754.5 70.5 c 128,-1,62
 804 92 804 92 841 137 c 0,63,64
 922 235.513513514 922 235.513513514 922 413 c 0,65,66
 922 609.717948718 922 609.717948718 837 728.5 c 0,67,68
 757.211009174 840 757.211009174 840 636 840 c 0,69,70
 512.205882353 840 512.205882353 840 418.5 732 c 0,71,72
 389 698 389 698 369 656 c 1,73,-1
 369 221 l 1,57,58
EndSplineSet
EndChar

StartChar: q
Encoding: 113 113 67
Width: 1115
Flags: HW
LayerCount: 2
Fore
SplineSet
800 100 m 1,0,1
 697.388059701 -25 697.388059701 -25 510 -25 c 0,2,3
 319.701612903 -25 319.701612903 -25 198.5 108 c 0,4,5
 81 236.938053097 81 236.938053097 81 437 c 0,6,7
 81 636.285714286 81 636.285714286 212 786 c 0,8,9
 296.442307692 882.505494505 296.442307692 882.505494505 424 923 c 0,10,11
 487 943 487 943 559 943 c 256,12,13
 704.666666667 943 704.666666667 943 823 872 c 1,14,15
 872.933333333 889.833333333 872.933333333 889.833333333 915.466666667 916.416666667 c 128,-1,16
 958 943 958 943 967 943 c 128,-1,17
 976 943 976 943 985.5 934.5 c 128,-1,18
 995 926 995 926 994.5 916.5 c 128,-1,19
 994 907 994 907 986 891.5 c 128,-1,20
 978 876 978 876 973 861.5 c 128,-1,21
 968 847 968 847 964.5 833 c 128,-1,22
 961 819 961 819 959 797 c 0,23,24
 955 753 955 753 955 655 c 2,25,-1
 955 -92 l 2,26,27
 955 -265.176470588 955 -265.176470588 967 -302.588235294 c 128,-1,28
 979 -340 979 -340 994 -347 c 128,-1,29
 1009 -354 1009 -354 1032 -354 c 1,30,-1
 1082 -349 l 257,31,32
 1119 -349 1119 -349 1119 -381 c 0,33,34
 1119 -397 1119 -397 1104.5 -410.5 c 128,-1,35
 1090 -424 1090 -424 1051.5 -424 c 128,-1,36
 1013 -424 1013 -424 968 -416.5 c 128,-1,37
 923 -409 923 -409 869 -409 c 128,-1,38
 815 -409 815 -409 765 -416.5 c 128,-1,39
 715 -424 715 -424 651.5 -424 c 128,-1,40
 588 -424 588 -424 588 -379 c 0,41,42
 588 -346 588 -346 636 -346 c 1,43,-1
 722 -353 l 1,44,45
 749 -353 749 -353 764.5 -348 c 128,-1,46
 780 -343 780 -343 788 -317.5 c 0,47,48
 800 -279.25 800 -279.25 800 -92 c 2,49,-1
 800 100 l 1,0,1
563 78 m 0,50,51
 726.753623188 78 726.753623188 78 800 211 c 1,52,-1
 800 694 l 1,53,54
 744.32967033 811.89010989 744.32967033 811.89010989 619.5 853.5 c 0,55,56
 579 867 579 867 527.5 867 c 128,-1,57
 476 867 476 867 423.5 841 c 128,-1,58
 371 815 371 815 332 765 c 0,59,60
 248 657.307692308 248 657.307692308 248 476 c 256,61,62
 248 292.6 248 292.6 338.5 184 c 0,63,64
 426.833333333 78 426.833333333 78 563 78 c 0,50,51
EndSplineSet
EndChar

StartChar: b
Encoding: 98 98 68
Width: 1125
Flags: HW
LayerCount: 2
Fore
SplineSet
300 47 m 1,0,1
 283.541666667 40.4166666667 283.541666667 40.4166666667 257.270833333 20.2083333333 c 0,2,3
 211.5 -15 211.5 -15 198.25 -15 c 128,-1,4
 185 -15 185 -15 176.5 -6 c 128,-1,5
 168 3 168 3 168 16 c 128,-1,6
 168 29 168 29 173 44.5 c 128,-1,7
 178 60 178 60 181 78.5 c 128,-1,8
 184 97 184 97 186 125 c 0,9,10
 191 195 191 195 191 293 c 2,11,-1
 194 1104 l 2,12,13
 194 1198.27272727 194 1198.27272727 178 1226.63636364 c 128,-1,14
 162 1255 162 1255 145 1265 c 128,-1,15
 128 1275 128 1275 90.5 1281 c 128,-1,16
 53 1287 53 1287 53 1312 c 0,17,18
 53 1334.60606061 53 1334.60606061 104.5 1345.3030303 c 0,19,20
 227.168489246 1370.7822752 227.168489246 1370.7822752 271.584244623 1395.8911376 c 0,21,22
 331.920346849 1430 331.920346849 1430 353 1430 c 256,23,24
 376 1430 376 1430 376 1407 c 0,25,26
 376 1396 376 1396 371.5 1384 c 0,27,28
 351.096069869 1329.58951965 351.096069869 1329.58951965 350.048034934 1246.79475983 c 128,-1,29
 349 1164 349 1164 349 1112 c 2,30,-1
 349 807 l 1,31,32
 427.289473684 907.657894737 427.289473684 907.657894737 564 935 c 0,33,34
 604 943 604 943 641 943 c 0,35,36
 828.11627907 943 828.11627907 943 939.5 803.5 c 0,37,38
 1044 672.621359223 1044 672.621359223 1044 468 c 0,39,40
 1044 248 1044 248 905 109 c 0,41,42
 771 -25 771 -25 592.071428571 -25 c 128,-1,43
 413.142857143 -25 413.142857143 -25 300 47 c 1,0,1
349 198 m 1,44,45
 385 126 385 126 453.5 88 c 128,-1,46
 522 50 522 50 596.5 50 c 128,-1,47
 671 50 671 50 720.5 75 c 128,-1,48
 770 100 770 100 804.5 146.5 c 0,49,50
 876 242.869565217 876 242.869565217 876 409 c 0,51,52
 876 604.945945946 876 604.945945946 798 723 c 0,53,54
 720.696428571 840 720.696428571 840 594 840 c 0,55,56
 480.890909091 840 480.890909091 840 398.5 760.5 c 0,57,58
 370 733 370 733 349 696 c 1,59,-1
 349 198 l 1,44,45
EndSplineSet
EndChar

StartChar: k
Encoding: 107 107 69
Width: 1097
Flags: HW
LayerCount: 2
Fore
SplineSet
116 -15 m 256,0,1
 50 -15 50 -15 50 22 c 0,2,3
 50 51 50 51 87 51 c 1,4,-1
 137 46 l 1,5,6
 160 46 160 46 175 54.5 c 128,-1,7
 190 63 190 63 198.5 91 c 0,8,9
 214 142.058823529 214 142.058823529 214 317 c 2,10,-1
 214 1103 l 2,11,12
 214 1197.85714286 214 1197.85714286 199 1226.42857143 c 128,-1,13
 184 1255 184 1255 167 1265 c 128,-1,14
 150 1275 150 1275 112.5 1281 c 128,-1,15
 75 1287 75 1287 75 1312 c 0,16,17
 75 1334.91176471 75 1334.91176471 126.5 1345.45588235 c 0,18,19
 245.433502943 1369.80634541 245.433502943 1369.80634541 290.216751472 1395.4031727 c 0,20,21
 350.746062279 1430 350.746062279 1430 373.373031139 1430 c 128,-1,22
 396 1430 396 1430 396 1407 c 0,23,24
 396 1396 396 1396 391.5 1384 c 0,25,26
 371.096069869 1329.58951965 371.096069869 1329.58951965 370.048034934 1246.79475983 c 128,-1,27
 369 1164 369 1164 369 1111 c 2,28,-1
 369 513 l 1,29,-1
 669 799 l 2,30,31
 695 823.266666667 695 823.266666667 695 837.633333333 c 128,-1,32
 695 852 695 852 683 859.5 c 128,-1,33
 671 867 671 867 656.5 873.5 c 0,34,35
 618 890.75862069 618 890.75862069 618 910 c 0,36,37
 618 935 618 935 662 935 c 1,38,-1
 778 925 l 1,39,-1
 948 935 l 1,40,41
 1013 935 1013 935 1013 906 c 0,42,43
 1013 880.5 1013 880.5 958 875 c 0,44,45
 899.779310345 868.531034483 899.779310345 868.531034483 852.889655172 834.265517241 c 128,-1,46
 806 800 806 800 774 772 c 2,47,-1
 572 595 l 1,48,-1
 887 122 l 1,49,50
 931.741935484 49 931.741935484 49 1010.5 49 c 0,51,52
 1055.72727273 49 1055.72727273 49 1066.36363636 42.5 c 128,-1,53
 1077 36 1077 36 1077 19 c 0,54,55
 1077 -15 1077 -15 1018 -15 c 1,56,-1
 902 -4 l 257,57,-1
 821 -15 l 1,58,59
 788.96 -15 788.96 -15 770.48 7 c 128,-1,60
 752 29 752 29 736 49 c 1,61,-1
 449 486 l 1,62,-1
 369 415 l 1,63,-1
 369 317 l 2,64,65
 369 81.4090909091 369 81.4090909091 399 55.5 c 0,66,67
 410 46 410 46 427 46 c 1,68,-1
 477 51 l 1,69,70
 513 51 513 51 513 22 c 0,71,72
 513 -15 513 -15 447 -15 c 0,73,74
 418 -15 418 -15 381 -7.5 c 128,-1,75
 344 0 344 0 292.5 0 c 128,-1,76
 241 0 241 0 197.5 -7.5 c 128,-1,77
 154 -15 154 -15 116 -15 c 256,0,1
EndSplineSet
EndChar

StartChar: g
Encoding: 103 103 70
Width: 1038
Flags: HW
LayerCount: 2
Fore
SplineSet
348 322 m 1,0,1
 290 273.35483871 290 273.35483871 290 258.177419355 c 128,-1,2
 290 243 290 243 297.5 231.5 c 128,-1,3
 305 220 305 220 330.5 208.5 c 0,4,5
 386.79942071 183.11006517 386.79942071 183.11006517 525.399710355 167.555032585 c 128,-1,6
 664 152 664 152 757 125 c 128,-1,7
 850 98 850 98 908 60 c 0,8,9
 1018 -12.0689655172 1018 -12.0689655172 1018 -140 c 0,10,11
 1018 -277.447761194 1018 -277.447761194 873 -377 c 0,12,13
 727.347826087 -477 727.347826087 -477 527 -477 c 256,14,15
 326.153846154 -477 326.153846154 -477 200 -395 c 0,16,17
 73 -312.45 73 -312.45 73 -185 c 0,18,19
 73 -23.46 73 -23.46 287 60 c 1,20,21
 170.437741686 95.2397525135 170.437741686 95.2397525135 149.5 150 c 0,22,23
 143 167 143 167 143 185 c 0,24,25
 143 235 143 235 285 353 c 1,26,27
 139 446.44 139 446.44 139 622 c 1,28,29
 141.083593263 757.433562071 141.083593263 757.433562071 244 848 c 0,30,31
 351.954545455 943 351.954545455 943 524 943 c 0,32,33
 599.307692308 943 599.307692308 943 672 916 c 1,34,35
 715.788505747 1014.52413793 715.788505747 1014.52413793 796.5 1072.5 c 0,36,37
 865.411764706 1122 865.411764706 1122 937 1122 c 0,38,39
 1020.30555556 1122 1020.30555556 1122 1052.5 1061 c 0,40,41
 1062 1043 1062 1043 1062 1020 c 128,-1,42
 1062 997 1062 997 1037.5 978 c 128,-1,43
 1013 959 1013 959 991 959 c 0,44,45
 949.764705882 959 949.764705882 959 926.882352941 978 c 0,46,47
 889.547987616 1009 889.547987616 1009 854.773993808 1009 c 128,-1,48
 820 1009 820 1009 786.5 975.5 c 128,-1,49
 753 942 753 942 736 884 c 1,50,51
 893 787.557142857 893 787.557142857 893 619 c 0,52,53
 893 484.553398058 893 484.553398058 783.5 391 c 0,54,55
 671.136363636 295 671.136363636 295 508 295 c 0,56,57
 417 295 417 295 348 322 c 1,0,1
455.5 383.5 m 128,-1,59
 498 364 498 364 539.5 364 c 128,-1,60
 581 364 581 364 613.5 378 c 128,-1,61
 646 392 646 392 670 420 c 0,62,63
 721 479.5 721 479.5 721 568.75 c 128,-1,64
 721 658 721 658 705.5 710.5 c 128,-1,65
 690 763 690 763 660.5 799.5 c 0,66,67
 599.479452055 875 599.479452055 875 492 875 c 0,68,69
 368.5375 875 368.5375 875 322.5 748 c 0,70,71
 308 708 308 708 308 647.5 c 128,-1,72
 308 587 308 587 327.5 532.5 c 128,-1,73
 347 478 347 478 380 440.5 c 128,-1,58
 413 403 413 403 455.5 383.5 c 128,-1,59
367 40 m 1,74,75
 225 -15.4146341463 225 -15.4146341463 225 -152 c 0,76,77
 225 -241.217391304 225 -241.217391304 321 -308 c 0,78,79
 423.0625 -379 423.0625 -379 578 -379 c 0,80,81
 803.732394366 -379 803.732394366 -379 862 -280.5 c 0,82,83
 883 -245 883 -245 883 -199 c 128,-1,84
 883 -153 883 -153 868 -121 c 128,-1,85
 853 -89 853 -89 814 -63.5 c 0,86,87
 735.033970276 -11.8683651805 735.033970276 -11.8683651805 538 13 c 1,88,89
 407.95 28.3 407.95 28.3 367 40 c 1,74,75
EndSplineSet
EndChar

StartChar: v
Encoding: 118 118 71
Width: 997
Flags: HW
LayerCount: 2
Fore
SplineSet
998 935 m 1,0,1
 1039 935 1039 935 1039 910 c 256,2,3
 1039 888.741935484 1039 888.741935484 1001 875.370967742 c 128,-1,4
 963 862 963 862 944.5 850.5 c 128,-1,5
 926 839 926 839 908.5 817 c 0,6,7
 877.895348837 778.525581395 877.895348837 778.525581395 829 669 c 2,8,-1
 526 4 l 2,9,10
 512.466666667 -25 512.466666667 -25 499.233333333 -25 c 0,11,12
 479.083333333 -25 479.083333333 -25 467 4 c 2,13,-1
 131 747 l 2,14,15
 101.04 811.2 101.04 811.2 85.52 830.6 c 0,16,17
 60.2417582418 862.197802198 60.2417582418 862.197802198 16.1208791209 873.098901099 c 128,-1,18
 -28 884 -28 884 -28 911 c 0,19,20
 -28 920 -28 920 -17.5 927.5 c 128,-1,21
 -7 935 -7 935 13 935 c 1,22,-1
 168 924 l 1,23,24
 231 924 231 924 263 928 c 0,25,26
 319 935 319 935 355 935 c 0,27,28
 427 935 427 935 427 906 c 0,29,30
 427 875.733333333 427 875.733333333 343 872 c 0,31,32
 281 868.820512821 281 868.820512821 281 831 c 0,33,34
 281 797.571428571 281 797.571428571 303 752 c 1,35,-1
 541 228 l 1,36,-1
 748 708 l 2,37,38
 786 796.666666667 786 796.666666667 786 824.833333333 c 128,-1,39
 786 853 786 853 772 861 c 128,-1,40
 758 869 758 869 718.5 872.5 c 128,-1,41
 679 876 679 876 661.5 883 c 128,-1,42
 644 890 644 890 644 906 c 0,43,44
 644 935 644 935 712 935 c 1,45,-1
 882 925 l 1,46,-1
 998 935 l 1,0,1
EndSplineSet
EndChar

StartChar: w
Encoding: 119 119 72
Width: 1501
Flags: HW
LayerCount: 2
Fore
SplineSet
1518 934 m 1,0,1
 1559 934 1559 934 1559 909 c 256,2,3
 1559 887.741935484 1559 887.741935484 1521 874.370967742 c 128,-1,4
 1483 861 1483 861 1465.5 849 c 128,-1,5
 1448 837 1448 837 1432.5 814.5 c 0,6,7
 1406.44104803 776.672489083 1406.44104803 776.672489083 1359 664 c 2,8,-1
 1076 4 l 2,9,10
 1064 -25 1064 -25 1050 -25 c 0,11,12
 1029.08333333 -25 1029.08333333 -25 1017 4 c 2,13,-1
 746 633 l 1,14,-1
 486 4 l 2,15,16
 474.4 -25 474.4 -25 460.2 -25 c 0,17,18
 439.083333333 -25 439.083333333 -25 427 4 c 2,19,-1
 121 742 l 1,20,21
 94.686746988 809.975903614 94.686746988 809.975903614 78.843373494 828.987951807 c 0,22,23
 51.6574074074 861.611111111 51.6574074074 861.611111111 8.3287037037 872.305555556 c 128,-1,24
 -35 883 -35 883 -35 910 c 0,25,26
 -35 919 -35 919 -24.5 926.5 c 128,-1,27
 -14 934 -14 934 6 934 c 1,28,-1
 161 923 l 1,29,30
 221.4 923 221.4 923 250.2 927 c 0,31,32
 300.6 934 300.6 934 334 934 c 0,33,34
 402 934 402 934 402 905 c 0,35,36
 402 874.555555556 402 874.555555556 322 871 c 0,37,38
 272.503597122 868.525179856 272.503597122 868.525179856 269 844 c 0,39,40
 268 837 268 837 268 827 c 0,41,42
 268 803.538461538 268 803.538461538 289 747 c 1,43,-1
 497 246 l 1,44,-1
 698 743 l 1,45,-1
 676 795 l 2,46,47
 651.970873786 851.067961165 651.970873786 851.067961165 625.5 865 c 0,48,49
 616 870 616 870 603 875 c 0,50,51
 565 889 565 889 565 911.5 c 128,-1,52
 565 934 565 934 610 934 c 1,53,-1
 738 923 l 1,54,55
 799.6 923 799.6 923 830.8 927 c 0,56,57
 885.4 934 885.4 934 936.7 934 c 128,-1,58
 988 934 988 934 988 905 c 0,59,60
 988 874.555555556 988 874.555555556 908 871 c 0,61,62
 846 867.820512821 846 867.820512821 846 830 c 0,63,64
 846 790.695652174 846 790.695652174 886 702 c 1,65,-1
 1090 234 l 1,66,-1
 1229 580 l 2,67,68
 1294.88132635 746.020942408 1294.88132635 746.020942408 1298.94066318 779.510471204 c 128,-1,69
 1303 813 1303 813 1303 828.5 c 0,70,71
 1303 866.083333333 1303 866.083333333 1251 870.541666667 c 128,-1,72
 1199 875 1199 875 1181.5 882 c 128,-1,73
 1164 889 1164 889 1164 905 c 0,74,75
 1164 934 1164 934 1232 934 c 1,76,-1
 1402 924 l 1,77,-1
 1518 934 l 1,0,1
EndSplineSet
EndChar

StartChar: x
Encoding: 120 120 73
Width: 1037
Flags: HW
LayerCount: 2
Fore
SplineSet
59 -15 m 1,0,1
 18 -15 18 -15 18 10 c 256,2,3
 18 31.2580645161 18 31.2580645161 56 44.6290322581 c 128,-1,4
 94 58 94 58 116 73.5 c 128,-1,5
 138 89 138 89 163 113 c 128,-1,6
 188 137 188 137 217.5 171 c 128,-1,7
 247 205 247 205 288 251 c 1,8,-1
 442 450 l 1,9,-1
 220 743 l 1,10,11
 139.161290323 846.935483871 139.161290323 846.935483871 54 870 c 0,12,13
 11 881.727272727 11 881.727272727 11 907 c 0,14,15
 11 916 11 916 21.5 923.5 c 128,-1,16
 32 931 32 931 52 931 c 1,17,-1
 227 920 l 1,18,-1
 378 931 l 1,19,20
 446 931 446 931 446 902 c 0,21,22
 446 885 446 885 430 879 c 128,-1,23
 414 873 414 873 395 869.5 c 128,-1,24
 376 866 376 866 360 859.5 c 128,-1,25
 344 853 344 853 343.5 837 c 0,26,27
 342.814379085 815.060130719 342.814379085 815.060130719 396 748 c 1,28,-1
 544 552 l 1,29,-1
 668 708 l 1,30,31
 746 808.285714286 746 808.285714286 746 832.642857143 c 128,-1,32
 746 857 746 857 730 863.5 c 128,-1,33
 714 870 714 870 695 874.5 c 128,-1,34
 676 879 676 879 660 885 c 128,-1,35
 644 891 644 891 644 906 c 0,36,37
 644 935 644 935 702 935 c 257,38,-1
 862 925 l 1,39,-1
 968 935 l 1,40,41
 1009 935 1009 935 1009 910 c 256,42,43
 1009 888.741935484 1009 888.741935484 971 875.370967742 c 128,-1,44
 933 862 933 862 910 847 c 128,-1,45
 887 832 887 832 862 808.5 c 0,46,47
 821.126984127 770.079365079 821.126984127 770.079365079 739 669 c 2,48,-1
 593 488 l 1,49,-1
 833 173 l 2,50,51
 874 119 874 119 908.5 88 c 128,-1,52
 943 57 943 57 987.5 45.5 c 128,-1,53
 1032 34 1032 34 1032 9 c 0,54,55
 1032 0 1032 0 1021.5 -7.5 c 128,-1,56
 1011 -15 1011 -15 990.5 -15 c 128,-1,57
 970 -15 970 -15 956.5 -13.5 c 128,-1,58
 943 -12 943 -12 929.5 -9.5 c 0,59,60
 855.769230769 4.15384615385 855.769230769 4.15384615385 794.384615385 -3.92307692308 c 0,61,62
 710.2 -15 710.2 -15 658.6 -15 c 128,-1,63
 607 -15 607 -15 607 14 c 0,64,65
 607 44.6666666667 607 44.6666666667 667 48 c 0,66,67
 709 50.1 709 50.1 709 80 c 0,68,69
 709 102.434782609 709 102.434782609 657 168 c 1,70,-1
 492 385 l 1,71,-1
 356 212 l 1,72,73
 281 122 281 122 281 79 c 0,74,75
 281 62 281 62 297 56 c 128,-1,76
 313 50 313 50 332 46.5 c 128,-1,77
 351 43 351 43 367 37 c 128,-1,78
 383 31 383 31 383 17.5 c 0,79,80
 383 -15 383 -15 325 -15 c 257,81,-1
 177 -5 l 1,82,-1
 59 -15 l 1,0,1
EndSplineSet
EndChar

StartChar: y
Encoding: 121 121 74
Width: 950
Flags: HW
LayerCount: 2
Fore
SplineSet
961 935 m 1,0,1
 1002 935 1002 935 1002 910 c 256,2,3
 1002 888.966666667 1002 888.966666667 964.5 875.483333333 c 128,-1,4
 927 862 927 862 907 850.5 c 128,-1,5
 887 839 887 839 869.5 817.5 c 0,6,7
 835.173076923 775.326923077 835.173076923 775.326923077 796 669 c 2,8,-1
 646 261 l 2,9,10
 452.689213894 -264.888482633 452.689213894 -264.888482633 367 -372 c 1,11,12
 281.909090909 -480 281.909090909 -480 165 -480 c 0,13,14
 84.3214285714 -480 84.3214285714 -480 48.1607142857 -457.5 c 0,15,16
 -12 -420.066666667 -12 -420.066666667 -12 -380 c 0,17,18
 -12 -351.75 -12 -351.75 7.5 -333.875 c 0,19,20
 41.1818181818 -303 41.1818181818 -303 68.5909090909 -303 c 128,-1,21
 96 -303 96 -303 117 -312.5 c 128,-1,22
 138 -322 138 -322 157.5 -333.5 c 128,-1,23
 177 -345 177 -345 193 -354.5 c 128,-1,24
 209 -364 209 -364 222 -364 c 128,-1,25
 235 -364 235 -364 249.5 -362 c 128,-1,26
 264 -360 264 -360 281 -348.5 c 128,-1,27
 298 -337 298 -337 318 -313 c 128,-1,28
 338 -289 338 -289 362 -245.5 c 0,29,30
 415.448818898 -148.624015748 415.448818898 -148.624015748 481 28 c 1,31,32
 438.253012048 60.0602409639 438.253012048 60.0602409639 345 259 c 1,33,-1
 124 747 l 2,34,35
 93.7261146497 811.872611465 93.7261146497 811.872611465 78.3630573248 830.436305732 c 0,36,37
 51.7571701721 862.585086042 51.7571701721 862.585086042 8.37858508604 873.292543021 c 128,-1,38
 -35 884 -35 884 -35 911 c 0,39,40
 -35 920 -35 920 -24.5 927.5 c 128,-1,41
 -14 935 -14 935 6 935 c 1,42,-1
 161 924 l 1,43,44
 222.2 924 222.2 924 252.6 928 c 0,45,46
 305.8 935 305.8 935 340 935 c 0,47,48
 408 935 408 935 408 906 c 0,49,50
 408 875.555555556 408 875.555555556 328 872 c 0,51,52
 276.985507246 869.449275362 276.985507246 869.449275362 270 845 c 0,53,54
 268 838 268 838 268 830.5 c 0,55,56
 268 817.294117647 268 817.294117647 298 752 c 2,57,-1
 542 201 l 2,58,59
 543 201 543 201 543 203 c 128,-1,60
 543 205 543 205 544 207 c 2,61,-1
 714 708 l 2,62,63
 729 753 729 753 739.5 782.5 c 128,-1,64
 750 812 750 812 750 832.5 c 128,-1,65
 750 853 750 853 736 861 c 128,-1,66
 722 869 722 869 682.5 872.5 c 0,67,68
 607 879.189873418 607 879.189873418 607 907.094936709 c 128,-1,69
 607 935 607 935 675 935 c 1,70,-1
 845 925 l 1,71,-1
 961 935 l 1,0,1
EndSplineSet
EndChar

StartChar: z
Encoding: 122 122 75
Width: 983
Flags: HW
LayerCount: 2
Fore
SplineSet
114 0 m 2,0,1
 80 0 80 0 80 20 c 0,2,3
 80 32 80 32 94 52 c 2,4,-1
 656 848 l 1,5,-1
 531 848 l 2,6,7
 328.5 848 328.5 848 261 812 c 1,8,9
 212.278625954 784.461832061 212.278625954 784.461832061 192 731 c 256,10,11
 172.275862069 679 172.275862069 679 146.137931034 679 c 128,-1,12
 120 679 120 679 120 708 c 0,13,14
 120 712 120 712 125.5 733.5 c 128,-1,15
 131 755 131 755 137.5 785 c 0,16,17
 155 865.769230769 155 865.769230769 155 906.384615385 c 128,-1,18
 155 947 155 947 177 947 c 0,19,20
 188 947 188 947 200 942.5 c 0,21,22
 254.371681416 922.110619469 254.371681416 922.110619469 336.685840708 921.055309735 c 128,-1,23
 419 920 419 920 472 920 c 2,24,-1
 845 920 l 2,25,26
 879 920 879 920 879 897 c 0,27,28
 879 884.8 879 884.8 862 861 c 2,29,-1
 314 72 l 1,30,-1
 475 72 l 2,31,32
 716.333333333 72 716.333333333 72 775 116 c 0,33,34
 812.208333333 143.416666667 812.208333333 143.416666667 835.104166667 189.708333333 c 128,-1,35
 858 236 858 236 867 245.5 c 128,-1,36
 876 255 876 255 890 255 c 0,37,38
 910 255 910 255 910 230 c 0,39,40
 910 207 910 207 895.5 163.5 c 128,-1,41
 881 120 881 120 878.5 91.5 c 128,-1,42
 876 63 876 63 874 39.5 c 0,43,44
 869.361702128 -15 869.361702128 -15 847.180851064 -15 c 128,-1,45
 825 -15 825 -15 802 -12.5 c 128,-1,46
 779 -10 779 -10 749 -7.5 c 0,47,48
 659 0 659 0 582 0 c 2,49,-1
 114 0 l 2,0,1
EndSplineSet
EndChar

StartChar: quoteright
Encoding: 8217 8217 76
Width: 531
Flags: HW
LayerCount: 2
Fore
SplineSet
182 905 m 1,0,1
 173 905 173 905 166 912.5 c 128,-1,2
 159 920 159 920 159 929 c 256,3,4
 159 949.2 159 949.2 175.5 962.6 c 128,-1,5
 192 976 192 976 203.5 990 c 128,-1,6
 215 1004 215 1004 225.5 1022.5 c 0,7,8
 251 1067.42857143 251 1067.42857143 251 1107.71428571 c 128,-1,9
 251 1148 251 1148 235.5 1174 c 128,-1,10
 220 1200 220 1200 201.5 1217 c 128,-1,11
 183 1234 183 1234 167.5 1248.5 c 128,-1,12
 152 1263 152 1263 152 1282 c 128,-1,13
 152 1301 152 1301 157 1314.5 c 128,-1,14
 162 1328 162 1328 173 1340 c 0,15,16
 198.666666667 1368 198.666666667 1368 232.333333333 1368 c 128,-1,17
 266 1368 266 1368 286.5 1354 c 128,-1,18
 307 1340 307 1340 322 1315.5 c 0,19,20
 354 1263.23333333 354 1263.23333333 354 1194.11666667 c 128,-1,21
 354 1125 354 1125 334.5 1075 c 128,-1,22
 315 1025 315 1025 288 990 c 0,23,24
 238.884422111 926.331658291 238.884422111 926.331658291 182 905 c 1,0,1
EndSplineSet
EndChar

StartChar: quotedblleft
Encoding: 8220 8220 77
Width: 821
Flags: HW
LayerCount: 2
Fore
SplineSet
571 930 m 2,0,1
 567 930 567 930 554 932 c 128,-1,2
 541 934 541 934 523.5 950.5 c 128,-1,3
 506 967 506 967 493.5 991.5 c 0,4,5
 467 1043.44 467 1043.44 467 1109.72 c 128,-1,6
 467 1176 467 1176 489.5 1229 c 128,-1,7
 512 1282 512 1282 541.5 1318.5 c 128,-1,8
 571 1355 571 1355 599.5 1374 c 128,-1,9
 628 1393 628 1393 638 1393 c 128,-1,10
 648 1393 648 1393 655 1385.5 c 128,-1,11
 662 1378 662 1378 662 1369 c 256,12,13
 662 1347.06666667 662 1347.06666667 645 1334.53333333 c 128,-1,14
 628 1322 628 1322 617 1307.5 c 128,-1,15
 606 1293 606 1293 595.5 1275 c 0,16,17
 570 1231.28571429 570 1231.28571429 570 1190.64285714 c 128,-1,18
 570 1150 570 1150 585.5 1124 c 128,-1,19
 601 1098 601 1098 619.5 1081 c 128,-1,20
 638 1064 638 1064 653.5 1049 c 128,-1,21
 669 1034 669 1034 669 1015.5 c 128,-1,22
 669 997 669 997 664 983.5 c 128,-1,23
 659 970 659 970 648 958 c 0,24,25
 622.333333333 930 622.333333333 930 580 930 c 2,26,-1
 571 930 l 2,0,1
281 930 m 2,27,28
 277 930 277 930 264 932 c 128,-1,29
 251 934 251 934 233.5 950.5 c 128,-1,30
 216 967 216 967 203.5 991.5 c 0,31,32
 177 1043.44 177 1043.44 177 1109.72 c 128,-1,33
 177 1176 177 1176 199.5 1229 c 128,-1,34
 222 1282 222 1282 251.5 1318.5 c 128,-1,35
 281 1355 281 1355 309.5 1374 c 128,-1,36
 338 1393 338 1393 348 1393 c 128,-1,37
 358 1393 358 1393 365 1385.5 c 128,-1,38
 372 1378 372 1378 372 1369 c 256,39,40
 372 1347.06666667 372 1347.06666667 355 1334.53333333 c 128,-1,41
 338 1322 338 1322 327 1307.5 c 128,-1,42
 316 1293 316 1293 305.5 1275 c 0,43,44
 280 1231.28571429 280 1231.28571429 280 1190.64285714 c 128,-1,45
 280 1150 280 1150 295.5 1124 c 128,-1,46
 311 1098 311 1098 329.5 1081 c 128,-1,47
 348 1064 348 1064 363.5 1049 c 128,-1,48
 379 1034 379 1034 379 1015.5 c 128,-1,49
 379 997 379 997 374 983.5 c 128,-1,50
 369 970 369 970 358 958 c 0,51,52
 332.333333333 930 332.333333333 930 290 930 c 2,53,-1
 281 930 l 2,27,28
EndSplineSet
EndChar

StartChar: quotedblright
Encoding: 8221 8221 78
Width: 821
Flags: HW
LayerCount: 2
Fore
SplineSet
472 905 m 1,0,1
 463 905 463 905 456 912.5 c 128,-1,2
 449 920 449 920 449 929 c 256,3,4
 449 949.2 449 949.2 465.5 962.6 c 128,-1,5
 482 976 482 976 493.5 990 c 128,-1,6
 505 1004 505 1004 515.5 1022.5 c 0,7,8
 541 1067.42857143 541 1067.42857143 541 1107.71428571 c 128,-1,9
 541 1148 541 1148 525.5 1174 c 128,-1,10
 510 1200 510 1200 491.5 1217 c 128,-1,11
 473 1234 473 1234 457.5 1248.5 c 128,-1,12
 442 1263 442 1263 442 1282 c 128,-1,13
 442 1301 442 1301 447 1314.5 c 128,-1,14
 452 1328 452 1328 463 1340 c 0,15,16
 488.666666667 1368 488.666666667 1368 522.333333333 1368 c 128,-1,17
 556 1368 556 1368 576.5 1354 c 128,-1,18
 597 1340 597 1340 612 1315.5 c 0,19,20
 644 1263.23333333 644 1263.23333333 644 1194.11666667 c 128,-1,21
 644 1125 644 1125 624.5 1075 c 128,-1,22
 605 1025 605 1025 578 990 c 0,23,24
 528.884422111 926.331658291 528.884422111 926.331658291 472 905 c 1,0,1
182 905 m 1,25,26
 173 905 173 905 166 912.5 c 128,-1,27
 159 920 159 920 159 929 c 256,28,29
 159 949.2 159 949.2 175.5 962.6 c 128,-1,30
 192 976 192 976 203.5 990 c 128,-1,31
 215 1004 215 1004 225.5 1022.5 c 0,32,33
 251 1067.42857143 251 1067.42857143 251 1107.71428571 c 128,-1,34
 251 1148 251 1148 235.5 1174 c 128,-1,35
 220 1200 220 1200 201.5 1217 c 128,-1,36
 183 1234 183 1234 167.5 1248.5 c 128,-1,37
 152 1263 152 1263 152 1282 c 128,-1,38
 152 1301 152 1301 157 1314.5 c 128,-1,39
 162 1328 162 1328 173 1340 c 0,40,41
 198.666666667 1368 198.666666667 1368 232.333333333 1368 c 128,-1,42
 266 1368 266 1368 286.5 1354 c 128,-1,43
 307 1340 307 1340 322 1315.5 c 0,44,45
 354 1263.23333333 354 1263.23333333 354 1194.11666667 c 128,-1,46
 354 1125 354 1125 334.5 1075 c 128,-1,47
 315 1025 315 1025 288 990 c 0,48,49
 238.884422111 926.331658291 238.884422111 926.331658291 182 905 c 1,25,26
EndSplineSet
EndChar

StartChar: quotesingle
Encoding: 39 39 79
Width: 462
Flags: HW
LayerCount: 2
Fore
SplineSet
163 1314 m 1,0,-1
 162 1322 l 1,1,2
 162 1349 162 1349 183 1357 c 128,-1,3
 204 1365 204 1365 232.5 1365 c 128,-1,4
 261 1365 261 1365 280 1359 c 128,-1,5
 299 1353 299 1353 299 1323 c 1,6,-1
 265 965 l 2,7,8
 262 930 262 930 234 930 c 0,9,10
 204.684210526 930 204.684210526 930 201 965 c 2,11,-1
 163 1314 l 1,0,-1
EndSplineSet
EndChar

StartChar: quotedbl
Encoding: 34 34 80
Width: 708
Flags: HW
LayerCount: 2
Fore
SplineSet
409 1314 m 1,0,-1
 408 1322 l 1,1,2
 408 1349 408 1349 429 1357 c 128,-1,3
 450 1365 450 1365 478.5 1365 c 128,-1,4
 507 1365 507 1365 526 1359 c 128,-1,5
 545 1353 545 1353 545 1323 c 1,6,-1
 511 965 l 2,7,8
 508 930 508 930 480 930 c 0,9,10
 450.684210526 930 450.684210526 930 447 965 c 2,11,-1
 409 1314 l 1,0,-1
163 1314 m 1,12,-1
 162 1322 l 1,13,14
 162 1349 162 1349 183 1357 c 128,-1,15
 204 1365 204 1365 232.5 1365 c 128,-1,16
 261 1365 261 1365 280 1359 c 128,-1,17
 299 1353 299 1353 299 1323 c 1,18,-1
 265 965 l 2,19,20
 262 930 262 930 234 930 c 0,21,22
 204.684210526 930 204.684210526 930 201 965 c 2,23,-1
 163 1314 l 1,12,-1
EndSplineSet
EndChar

StartChar: quotesinglbase
Encoding: 8218 8218 81
Width: 531
Flags: HW
LayerCount: 2
Fore
SplineSet
206 63.5 m 128,-1,1
 189 80 189 80 170.5 96.1875 c 128,-1,2
 152 112.375 152 112.375 152 131.1875 c 128,-1,3
 152 150 152 150 157 163.5 c 128,-1,4
 162 177 162 177 173 189 c 0,5,6
 198.666666667 217 198.666666667 217 232.333333333 217 c 128,-1,7
 266 217 266 217 286.5 203 c 128,-1,8
 307 189 307 189 322 164.5 c 0,9,10
 354 112.233333333 354 112.233333333 354 41.6166666667 c 128,-1,11
 354 -29 354 -29 331.5 -82 c 128,-1,12
 309 -135 309 -135 279.5 -171.5 c 128,-1,13
 250 -208 250 -208 221.5 -227 c 128,-1,14
 193 -246 193 -246 183 -246 c 128,-1,15
 173 -246 173 -246 166 -238.5 c 128,-1,16
 159 -231 159 -231 159 -222 c 256,17,18
 159 -201.8 159 -201.8 175.5 -188.4 c 128,-1,19
 192 -175 192 -175 203.5 -161 c 128,-1,20
 215 -147 215 -147 225.5 -128.5 c 0,21,22
 251 -83.5714285714 251 -83.5714285714 251 -44.2857142857 c 128,-1,23
 251 -5 251 -5 237 21 c 128,-1,0
 223 47 223 47 206 63.5 c 128,-1,1
EndSplineSet
EndChar

StartChar: quotedblbase
Encoding: 8222 8222 82
Width: 821
Flags: HW
LayerCount: 2
Fore
SplineSet
496 63.5 m 128,-1,1
 479 80 479 80 460.5 96.1875 c 128,-1,2
 442 112.375 442 112.375 442 131.1875 c 128,-1,3
 442 150 442 150 447 163.5 c 128,-1,4
 452 177 452 177 463 189 c 0,5,6
 488.666666667 217 488.666666667 217 522.333333333 217 c 128,-1,7
 556 217 556 217 576.5 203 c 128,-1,8
 597 189 597 189 612 164.5 c 0,9,10
 644 112.233333333 644 112.233333333 644 41.6166666667 c 128,-1,11
 644 -29 644 -29 621.5 -82 c 128,-1,12
 599 -135 599 -135 569.5 -171.5 c 128,-1,13
 540 -208 540 -208 511.5 -227 c 128,-1,14
 483 -246 483 -246 473 -246 c 128,-1,15
 463 -246 463 -246 456 -238.5 c 128,-1,16
 449 -231 449 -231 449 -222 c 256,17,18
 449 -201.8 449 -201.8 465.5 -188.4 c 128,-1,19
 482 -175 482 -175 493.5 -161 c 128,-1,20
 505 -147 505 -147 515.5 -128.5 c 0,21,22
 541 -83.5714285714 541 -83.5714285714 541 -44.2857142857 c 128,-1,23
 541 -5 541 -5 527 21 c 128,-1,0
 513 47 513 47 496 63.5 c 128,-1,1
206 63.5 m 128,-1,25
 189 80 189 80 170.5 96.1875 c 128,-1,26
 152 112.375 152 112.375 152 131.1875 c 128,-1,27
 152 150 152 150 157 163.5 c 128,-1,28
 162 177 162 177 173 189 c 0,29,30
 198.666666667 217 198.666666667 217 232.333333333 217 c 128,-1,31
 266 217 266 217 286.5 203 c 128,-1,32
 307 189 307 189 322 164.5 c 0,33,34
 354 112.233333333 354 112.233333333 354 41.6166666667 c 128,-1,35
 354 -29 354 -29 331.5 -82 c 128,-1,36
 309 -135 309 -135 279.5 -171.5 c 128,-1,37
 250 -208 250 -208 221.5 -227 c 128,-1,38
 193 -246 193 -246 183 -246 c 128,-1,39
 173 -246 173 -246 166 -238.5 c 128,-1,40
 159 -231 159 -231 159 -222 c 256,41,42
 159 -201.8 159 -201.8 175.5 -188.4 c 128,-1,43
 192 -175 192 -175 203.5 -161 c 128,-1,44
 215 -147 215 -147 225.5 -128.5 c 0,45,46
 251 -83.5714285714 251 -83.5714285714 251 -44.2857142857 c 128,-1,47
 251 -5 251 -5 237 21 c 128,-1,24
 223 47 223 47 206 63.5 c 128,-1,25
EndSplineSet
EndChar

StartChar: zero
Encoding: 48 48 83
Width: 1282
Flags: HW
LayerCount: 2
Fore
SplineSet
638 -25 m 2,0,1
 392.751412429 -25 392.751412429 -25 234.5 160.5 c 0,2,3
 73 349.80794702 73 349.80794702 73 652 c 0,4,5
 73 957.175 73 957.175 245 1162.5 c 0,6,7
 325 1258 325 1258 432 1311.5 c 128,-1,8
 539 1365 539 1365 661 1365 c 256,9,10
 903.808510638 1365 903.808510638 1365 1057 1165 c 0,11,12
 1209 966.555555556 1209 966.555555556 1209 657 c 0,13,14
 1209 354.842105263 1209 354.842105263 1047 163 c 0,15,16
 888.244444444 -25 888.244444444 -25 644 -25 c 2,17,-1
 638 -25 l 2,0,1
652.5 50 m 0,18,19
 734 50 734 50 802.5 92 c 128,-1,20
 871 134 871 134 920.5 213 c 0,21,22
 1024 378.181818182 1024 378.181818182 1024 660 c 0,23,24
 1024 938.333333333 1024 938.333333333 907 1116 c 0,25,26
 795.048780488 1286 795.048780488 1286 631 1286 c 0,27,28
 460.801282051 1286 460.801282051 1286 354.5 1125 c 0,29,30
 244 957.640776699 244 957.640776699 244 681 c 0,31,32
 244 405.178571429 244 405.178571429 368 222.5 c 0,33,34
 485.090909091 50 485.090909091 50 652.5 50 c 0,18,19
EndSplineSet
EndChar

StartChar: guilsinglleft
Encoding: 8249 8249 84
Width: 586
Flags: HW
LayerCount: 2
Fore
SplineSet
422 268 m 2,0,1
 461 211.84 461 211.84 461 182.92 c 128,-1,2
 461 154 461 154 442 154 c 0,3,4
 425 154 425 154 411 171.5 c 128,-1,5
 397 189 397 189 374.5 218 c 128,-1,6
 352 247 352 247 322.5 279.5 c 128,-1,7
 293 312 293 312 264 340 c 0,8,9
 215.862944162 386.47715736 215.862944162 386.47715736 168.931472081 422.73857868 c 128,-1,10
 122 459 122 459 116 466.5 c 128,-1,11
 110 474 110 474 110 479 c 256,12,13
 110 489.294117647 110 489.294117647 142 515.147058824 c 128,-1,14
 174 541 174 541 204.5 566 c 128,-1,15
 235 591 235 591 264 619 c 0,16,17
 325.846938776 678.714285714 325.846938776 678.714285714 361.423469388 724.357142857 c 128,-1,18
 397 770 397 770 405 780 c 128,-1,19
 413 790 413 790 419 795.5 c 0,20,21
 429.363636364 805 429.363636364 805 442 805 c 0,22,23
 461 805 461 805 460.5 784.5 c 0,24,25
 459.555321391 745.768177028 459.555321391 745.768177028 422 691 c 2,26,-1
 276 479 l 1,27,-1
 422 268 l 2,0,1
EndSplineSet
EndChar

StartChar: slash
Encoding: 47 47 85
Width: 885
Flags: HW
LayerCount: 2
Fore
SplineSet
748 1567 m 1,0,1
 762.571428571 1601 762.571428571 1601 845 1601 c 0,2,3
 861 1601 861 1601 861 1590 c 0,4,5
 861 1585 861 1585 852 1558 c 1,6,-1
 136 -325 l 2,7,8
 123.25 -359 123.25 -359 39 -359 c 0,9,10
 23 -359 23 -359 23 -348 c 0,11,12
 23 -343 23 -343 32 -316 c 1,13,-1
 748 1567 l 1,0,1
EndSplineSet
EndChar

StartChar: equal
Encoding: 61 61 86
Width: 877
Flags: HW
LayerCount: 2
Fore
SplineSet
80 753 m 1,0,-1
 797 753 l 1,1,-1
 797 668 l 1,2,-1
 80 668 l 1,3,-1
 80 753 l 1,0,-1
80 523 m 1,4,-1
 797 523 l 1,5,-1
 797 438 l 1,6,-1
 80 438 l 1,7,-1
 80 523 l 1,4,-1
EndSplineSet
EndChar

StartChar: bar
Encoding: 124 124 87
Width: 529
Flags: HW
LayerCount: 2
Fore
SplineSet
217 1594 m 1,0,-1
 312 1594 l 1,1,-1
 312 -357 l 1,2,-1
 217 -357 l 1,3,-1
 217 1594 l 1,0,-1
EndSplineSet
EndChar

StartChar: paragraph
Encoding: 182 182 88
Width: 1188
Flags: HW
LayerCount: 2
Fore
SplineSet
721 1298 m 1,0,1
 714 1244.8 714 1244.8 714 1065 c 2,2,-1
 714 150 l 2,3,4
 714 6.44444444444 714 6.44444444444 709 -15.7777777778 c 128,-1,5
 704 -38 704 -38 693 -45 c 0,6,7
 656.857142857 -68 656.857142857 -68 617.928571429 -68 c 128,-1,8
 579 -68 579 -68 579 -63 c 128,-1,9
 579 -58 579 -58 585 -50.5 c 128,-1,10
 591 -43 591 -43 598.5 -22 c 0,11,12
 618 32.6 618 32.6 618 135 c 2,13,-1
 618 1056 l 2,14,15
 618 1224.2 618 1224.2 606 1301 c 1,16,-1
 601 1301 l 2,17,18
 473.25 1301 473.25 1301 385.5 1210 c 0,19,20
 299 1120.2962963 299 1120.2962963 299 996 c 0,21,22
 299 717.727272727 299 717.727272727 488 649 c 0,23,24
 525 634.904761905 525 634.904761905 525 622 c 0,25,26
 525 599 525 599 470.5 599 c 128,-1,27
 416 599 416 599 350 626.5 c 128,-1,28
 284 654 284 654 231.5 704 c 0,29,30
 115 814.952380952 115 814.952380952 115 983 c 0,31,32
 115 1141.86206897 115 1141.86206897 229 1248 c 0,33,34
 357.216713439 1367.37418148 357.216713439 1367.37418148 586 1373 c 1,35,-1
 840 1365 l 1,36,37
 922 1365 922 1365 970.5 1369.5 c 128,-1,38
 1019 1374 1019 1374 1044.5 1374 c 128,-1,39
 1070 1374 1070 1374 1089 1361 c 128,-1,40
 1108 1348 1108 1348 1108 1327 c 0,41,42
 1108 1288 1108 1288 1049 1288 c 1,43,-1
 927 1293 l 1,44,45
 920 1239.8 920 1239.8 920 1065 c 2,46,-1
 920 198 l 2,47,48
 920 54.4444444444 920 54.4444444444 915 32.2222222222 c 128,-1,49
 910 10 910 10 899 3 c 0,50,51
 862.857142857 -20 862.857142857 -20 823.928571429 -20 c 128,-1,52
 785 -20 785 -20 785 -15 c 128,-1,53
 785 -10 785 -10 791 -2.5 c 128,-1,54
 797 5 797 5 804.5 26 c 0,55,56
 824 80.6 824 80.6 824 183 c 2,57,-1
 824 1056 l 2,58,59
 824 1225.4 824 1225.4 812 1295 c 1,60,-1
 721 1298 l 1,0,1
EndSplineSet
EndChar

StartChar: brokenbar
Encoding: 166 166 89
Width: 529
Flags: HW
LayerCount: 2
Fore
SplineSet
217 1592 m 1,0,-1
 312 1592 l 1,1,-1
 312 766 l 1,2,-1
 217 766 l 1,3,-1
 217 1592 l 1,0,-1
217 467 m 1,4,-1
 312 467 l 1,5,-1
 312 -360 l 1,6,-1
 217 -360 l 1,7,-1
 217 467 l 1,4,-1
EndSplineSet
EndChar

StartChar: endash
Encoding: 8211 8211 90
Width: 963
Flags: HW
LayerCount: 2
Fore
SplineSet
860 615 m 2,0,1
 883 615 883 615 883 597 c 0,2,3
 883 573 883 573 872.5 551.5 c 128,-1,4
 862 530 862 530 850 530 c 2,5,-1
 104 530 l 2,6,7
 80 530 80 530 80 548 c 0,8,9
 80 572 80 572 90.5 593.5 c 128,-1,10
 101 615 101 615 113 615 c 2,11,-1
 860 615 l 2,0,1
EndSplineSet
EndChar

StartChar: emdash
Encoding: 8212 8212 91
Width: 1342
Flags: HW
LayerCount: 2
Fore
SplineSet
1239 615 m 2,0,1
 1262 615 1262 615 1262 597 c 0,2,3
 1262 573 1262 573 1251.5 551.5 c 128,-1,4
 1241 530 1241 530 1229 530 c 2,5,-1
 104 530 l 2,6,7
 80 530 80 530 80 548 c 0,8,9
 80 572 80 572 90.5 593.5 c 128,-1,10
 101 615 101 615 113 615 c 2,11,-1
 1239 615 l 2,0,1
EndSplineSet
EndChar

StartChar: guilsinglright
Encoding: 8250 8250 92
Width: 586
Flags: HW
LayerCount: 2
Fore
SplineSet
164 691 m 1,0,1
 123.599056604 747.561320755 123.599056604 747.561320755 124.299528302 776.280660377 c 128,-1,2
 125 805 125 805 144 805 c 0,3,4
 161 805 161 805 175 787.5 c 128,-1,5
 189 770 189 770 211 741 c 128,-1,6
 233 712 233 712 262.5 679.5 c 128,-1,7
 292 647 292 647 321 619 c 0,8,9
 365.162436548 576.360406091 365.162436548 576.360406091 414.081218274 538.180203046 c 0,10,11
 473.427730028 491.861349859 473.427730028 491.861349859 474.713865014 482.93067493 c 0,12,13
 476.55284291 470.16116475 476.55284291 470.16116475 443.776421455 444.080582375 c 128,-1,14
 411 418 411 418 381 393 c 128,-1,15
 351 368 351 368 321.5 340.5 c 0,16,17
 269.040723982 291.597285068 269.040723982 291.597285068 229.020361991 240.298642534 c 128,-1,18
 189 189 189 189 181 179 c 128,-1,19
 173 169 173 169 167 163.5 c 0,20,21
 156.636363636 154 156.636363636 154 144 154 c 0,22,23
 125 154 125 154 125 174 c 0,24,25
 125 211.84 125 211.84 164 268 c 2,26,-1
 309 479 l 1,27,-1
 164 691 l 1,0,1
EndSplineSet
EndChar

StartChar: guillemotleft
Encoding: 171 171 93
Width: 936
Flags: HW
LayerCount: 2
Fore
SplineSet
772 268 m 2,0,1
 811 211.84 811 211.84 811 182.92 c 128,-1,2
 811 154 811 154 792 154 c 0,3,4
 775 154 775 154 761 171.5 c 128,-1,5
 747 189 747 189 725 218 c 128,-1,6
 703 247 703 247 673.5 279 c 128,-1,7
 644 311 644 311 614.5 339 c 128,-1,8
 585 367 585 367 554.5 392 c 128,-1,9
 524 417 524 417 498.5 438 c 0,10,11
 460 469.705882353 460 469.705882353 460 479 c 256,12,13
 460 489.294117647 460 489.294117647 492 515.147058824 c 128,-1,14
 524 541 524 541 554.5 566 c 128,-1,15
 585 591 585 591 614 619 c 0,16,17
 675.846938776 678.714285714 675.846938776 678.714285714 711.423469388 724.357142857 c 128,-1,18
 747 770 747 770 755 780 c 128,-1,19
 763 790 763 790 769 795.5 c 0,20,21
 779.363636364 805 779.363636364 805 792 805 c 0,22,23
 811 805 811 805 810.5 784.5 c 0,24,25
 809.555321391 745.768177028 809.555321391 745.768177028 772 691 c 2,26,-1
 626 479 l 1,27,-1
 772 268 l 2,0,1
422 268 m 2,28,29
 461 211.84 461 211.84 461 182.92 c 128,-1,30
 461 154 461 154 442 154 c 0,31,32
 425 154 425 154 411 171.5 c 128,-1,33
 397 189 397 189 374.5 218 c 128,-1,34
 352 247 352 247 322.5 279.5 c 128,-1,35
 293 312 293 312 264 340 c 0,36,37
 215.862944162 386.47715736 215.862944162 386.47715736 168.931472081 422.73857868 c 128,-1,38
 122 459 122 459 116 466.5 c 128,-1,39
 110 474 110 474 110 479 c 256,40,41
 110 489.294117647 110 489.294117647 142 515.147058824 c 128,-1,42
 174 541 174 541 204.5 566 c 128,-1,43
 235 591 235 591 264 619 c 0,44,45
 325.846938776 678.714285714 325.846938776 678.714285714 361.423469388 724.357142857 c 128,-1,46
 397 770 397 770 405 780 c 128,-1,47
 413 790 413 790 419 795.5 c 0,48,49
 429.363636364 805 429.363636364 805 442 805 c 0,50,51
 461 805 461 805 460.5 784.5 c 0,52,53
 459.555321391 745.768177028 459.555321391 745.768177028 422 691 c 2,54,-1
 276 479 l 1,55,-1
 422 268 l 2,28,29
EndSplineSet
EndChar

StartChar: guillemotright
Encoding: 187 187 94
Width: 936
Flags: HW
LayerCount: 2
Fore
SplineSet
494 154 m 0,0,1
 475 154 475 154 475 174 c 0,2,3
 475 211.84 475 211.84 514 268 c 2,4,-1
 659 479 l 1,5,-1
 514 691 l 1,6,7
 473.076086957 748.293478261 473.076086957 748.293478261 474.038043478 776.64673913 c 128,-1,8
 475 805 475 805 494 805 c 0,9,10
 511 805 511 805 525 787.5 c 128,-1,11
 539 770 539 770 561 741 c 128,-1,12
 583 712 583 712 612.5 679.5 c 128,-1,13
 642 647 642 647 671 619 c 0,14,15
 715.162436548 576.360406091 715.162436548 576.360406091 764.081218274 538.180203046 c 0,16,17
 823.427730028 491.861349859 823.427730028 491.861349859 824.713865014 482.93067493 c 0,18,19
 826.55284291 470.16116475 826.55284291 470.16116475 793.776421455 444.080582375 c 128,-1,20
 761 418 761 418 731 393 c 128,-1,21
 701 368 701 368 671.5 340.5 c 0,22,23
 619.040723982 291.597285068 619.040723982 291.597285068 579.020361991 240.298642534 c 128,-1,24
 539 189 539 189 531 179 c 128,-1,25
 523 169 523 169 517 163.5 c 0,26,27
 506.636363636 154 506.636363636 154 494 154 c 0,0,1
164 691 m 1,28,29
 123.599056604 747.561320755 123.599056604 747.561320755 124.299528302 776.280660377 c 128,-1,30
 125 805 125 805 144 805 c 0,31,32
 161 805 161 805 175 787.5 c 128,-1,33
 189 770 189 770 211 741 c 128,-1,34
 233 712 233 712 262.5 679.5 c 128,-1,35
 292 647 292 647 321 619 c 0,36,37
 365.162436548 576.360406091 365.162436548 576.360406091 414.081218274 538.180203046 c 0,38,39
 473.427730028 491.861349859 473.427730028 491.861349859 474.713865014 482.93067493 c 0,40,41
 476.55284291 470.16116475 476.55284291 470.16116475 443.776421455 444.080582375 c 128,-1,42
 411 418 411 418 381 393 c 128,-1,43
 351 368 351 368 321.5 340.5 c 0,44,45
 269.040723982 291.597285068 269.040723982 291.597285068 229.020361991 240.298642534 c 128,-1,46
 189 189 189 189 181 179 c 128,-1,47
 173 169 173 169 167 163.5 c 0,48,49
 156.636363636 154 156.636363636 154 144 154 c 0,50,51
 125 154 125 154 125 174 c 0,52,53
 125 211.84 125 211.84 164 268 c 2,54,-1
 309 479 l 1,55,-1
 164 691 l 1,28,29
EndSplineSet
EndChar

StartChar: asterisk
Encoding: 42 42 95
Width: 808
Flags: HW
LayerCount: 2
Fore
SplineSet
342 1412 m 1,0,1
 342 1430 342 1430 367.5 1430 c 0,2,3
 427.5 1430 427.5 1430 480 1395 c 0,4,5
 496 1385 496 1385 496 1340.5 c 0,6,7
 496 1268.71428571 496 1268.71428571 443 1140 c 1,8,9
 532.73046875 1174.51171875 532.73046875 1174.51171875 565.865234375 1201.75585938 c 128,-1,10
 599 1229 599 1229 621 1251.5 c 128,-1,11
 643 1274 643 1274 650 1274 c 128,-1,12
 657 1274 657 1274 665.5 1265 c 128,-1,13
 674 1256 674 1256 681 1241.5 c 0,14,15
 698 1206.28571429 698 1206.28571429 698 1177.14285714 c 128,-1,16
 698 1148 698 1148 693 1133.5 c 128,-1,17
 688 1119 688 1119 673 1111 c 0,18,19
 644.875 1096 644.875 1096 580.9375 1096 c 0,20,21
 498 1096 498 1096 449 1103 c 1,22,23
 507.134379598 1009.63266307 507.134379598 1009.63266307 633 929 c 0,24,25
 652 916.333333333 652 916.333333333 652 906.166666667 c 128,-1,26
 652 896 652 896 641.5 884 c 128,-1,27
 631 872 631 872 614.5 861 c 0,28,29
 574 834 574 834 550.5 834 c 128,-1,30
 527 834 527 834 511 849 c 128,-1,31
 495 864 495 864 477 895 c 0,32,33
 435.02764977 967.285714286 435.02764977 967.285714286 408 1079 c 1,34,35
 348.634615385 994.192307692 348.634615385 994.192307692 322 877 c 0,36,37
 312.652173913 834 312.652173913 834 299 834 c 0,38,39
 263.310344828 834 263.310344828 834 237.655172414 858 c 0,40,41
 192 900.709677419 192 900.709677419 192 919.85483871 c 128,-1,42
 192 939 192 939 203 957.5 c 128,-1,43
 214 976 214 976 235.5 999.5 c 0,44,45
 284.355016538 1052.89966924 284.355016538 1052.89966924 366 1103 c 1,46,47
 304.777777778 1122 304.777777778 1122 198 1122 c 1,48,-1
 122 1118 l 2,49,50
 110 1118 110 1118 110 1135.5 c 128,-1,51
 110 1153 110 1153 116.5 1176 c 128,-1,52
 123 1199 123 1199 134 1217.5 c 0,53,54
 158.081081081 1258 158.081081081 1258 186 1258 c 0,55,56
 288.45 1258 288.45 1258 392 1149 c 1,57,58
 388.43943662 1273.61971831 388.43943662 1273.61971831 346.5 1388 c 0,59,60
 341 1403 341 1403 342 1412 c 1,0,1
EndSplineSet
EndChar

StartChar: backslash
Encoding: 92 92 96
Width: 885
Flags: HW
LayerCount: 2
Fore
SplineSet
33 1558 m 1,0,1
 24 1585 24 1585 24 1593 c 128,-1,2
 24 1601 24 1601 39.5 1601 c 128,-1,3
 55 1601 55 1601 71 1598.5 c 128,-1,4
 87 1596 87 1596 100.5 1591.5 c 0,5,6
 130.833333333 1581.38888889 130.833333333 1581.38888889 137 1567 c 2,7,-1
 853 -316 l 1,8,9
 862 -343 862 -343 862 -351 c 128,-1,10
 862 -359 862 -359 847 -359 c 128,-1,11
 832 -359 832 -359 816.5 -357 c 128,-1,12
 801 -355 801 -355 787 -350.5 c 0,13,14
 754.664974619 -340.106598985 754.664974619 -340.106598985 749 -325 c 2,15,-1
 33 1558 l 1,0,1
EndSplineSet
EndChar

StartChar: percent
Encoding: 37 37 97
Width: 1457
Flags: HW
LayerCount: 2
Fore
SplineSet
342 18 m 2,0,-1
 1015 1331 l 2,1,2
 1032 1365 1032 1365 1105 1365 c 0,3,4
 1121 1365 1121 1365 1121 1356 c 0,5,6
 1121 1343 1121 1343 1109 1322 c 1,7,-1
 436 9 l 2,8,9
 419 -25 419 -25 344 -25 c 0,10,11
 328 -25 328 -25 328 -17.5 c 128,-1,12
 328 -10 328 -10 342 18 c 2,0,-1
369 709 m 0,13,14
 313 709 313 709 262 731.5 c 128,-1,15
 211 754 211 754 172.5 795.5 c 0,16,17
 90 884.428571429 90 884.428571429 90 1028 c 0,18,19
 90 1174.51282051 90 1174.51282051 175 1271.5 c 0,20,21
 256.943820225 1365 256.943820225 1365 379 1365 c 0,22,23
 504.551724138 1365 504.551724138 1365 579.5 1270.5 c 0,24,25
 651 1180.34782609 651 1180.34782609 651 1044 c 0,26,27
 651 897.897435897 651 897.897435897 566 802 c 0,28,29
 483.568181818 709 483.568181818 709 369 709 c 0,13,14
375 771 m 0,30,31
 525 771 525 771 525 1035 c 0,32,33
 525 1231.10714286 525 1231.10714286 431 1286.5 c 0,34,35
 403 1303 403 1303 370 1303 c 128,-1,36
 337 1303 337 1303 308 1286 c 128,-1,37
 279 1269 279 1269 257.5 1236 c 0,38,39
 212 1166.1627907 212 1166.1627907 212 1045 c 256,40,41
 212 924.893617021 212 924.893617021 263.5 846 c 0,42,43
 312.458333333 771 312.458333333 771 375 771 c 0,30,31
806 295 m 0,44,45
 806 369 806 369 829 431 c 128,-1,46
 852 493 852 493 891 537.5 c 0,47,48
 972.943820225 631 972.943820225 631 1095 631 c 0,49,50
 1220.55172414 631 1220.55172414 631 1295.5 536.5 c 0,51,52
 1367 446.347826087 1367 446.347826087 1367 310 c 0,53,54
 1367 163.897435897 1367 163.897435897 1282 68 c 0,55,56
 1199.56818182 -25 1199.56818182 -25 1086 -25 c 0,57,58
 968.746987952 -25 968.746987952 -25 888.5 61.5 c 0,59,60
 806 150.428571429 806 150.428571429 806 295 c 0,44,45
1091 37 m 0,61,62
 1241 37 1241 37 1241 301 c 0,63,64
 1241 497.107142857 1241 497.107142857 1147 552.5 c 0,65,66
 1119 569 1119 569 1086 569 c 128,-1,67
 1053 569 1053 569 1024 552 c 128,-1,68
 995 535 995 535 973.5 502 c 0,69,70
 928 432.162790698 928 432.162790698 928 311 c 256,71,72
 928 190.893617021 928 190.893617021 979.5 112 c 0,73,74
 1028.45833333 37 1028.45833333 37 1091 37 c 0,61,62
EndSplineSet
EndChar

StartChar: plus
Encoding: 43 43 98
Width: 845
Flags: HW
LayerCount: 2
Fore
SplineSet
380 512 m 1,0,-1
 80 512 l 1,1,-1
 80 597 l 1,2,-1
 380 597 l 1,3,-1
 380 913 l 1,4,-1
 465 913 l 1,5,-1
 465 597 l 1,6,-1
 765 597 l 1,7,-1
 765 512 l 1,8,-1
 465 512 l 1,9,-1
 465 196 l 1,10,-1
 380 196 l 1,11,-1
 380 512 l 1,0,-1
EndSplineSet
EndChar

StartChar: plusminus
Encoding: 177 177 99
Width: 845
Flags: HW
LayerCount: 2
Fore
SplineSet
380 651 m 1,0,-1
 80 651 l 1,1,-1
 80 736 l 1,2,-1
 380 736 l 1,3,-1
 380 1052 l 1,4,-1
 465 1052 l 1,5,-1
 465 736 l 1,6,-1
 765 736 l 1,7,-1
 765 651 l 1,8,-1
 465 651 l 1,9,-1
 465 350 l 1,10,-1
 380 350 l 1,11,-1
 380 651 l 1,0,-1
80 269 m 1,12,-1
 765 269 l 1,13,-1
 765 184 l 1,14,-1
 80 184 l 1,15,-1
 80 269 l 1,12,-1
EndSplineSet
EndChar

StartChar: multiply
Encoding: 215 215 100
Width: 775
Flags: HW
LayerCount: 2
Fore
SplineSet
80 343 m 1,0,-1
 327 590 l 1,1,-1
 80 838 l 1,2,-1
 140 898 l 1,3,-1
 387 650 l 1,4,-1
 635 898 l 1,5,-1
 695 838 l 1,6,-1
 447 590 l 1,7,-1
 695 343 l 1,8,-1
 635 283 l 1,9,-1
 387 530 l 1,10,-1
 140 283 l 1,11,-1
 80 343 l 1,0,-1
EndSplineSet
EndChar

StartChar: underscore
Encoding: 95 95 101
Width: 622
Flags: HW
LayerCount: 2
Fore
SplineSet
622 1 m 1,0,-1
 622 -84 l 1,1,-1
 0 -84 l 1,2,-1
 0 1 l 1,3,-1
 622 1 l 1,0,-1
EndSplineSet
EndChar

StartChar: dieresis
Encoding: 168 168 102
Width: 719
Flags: HW
LayerCount: 2
Fore
SplineSet
610.5 1140.5 m 128,-1,1
 582 1111 582 1111 533.5 1111 c 128,-1,2
 485 1111 485 1111 458.5 1139.5 c 128,-1,3
 432 1168 432 1168 432 1201.5 c 128,-1,4
 432 1235 432 1235 441 1253 c 128,-1,5
 450 1271 450 1271 464.5 1284 c 0,6,7
 494.615384615 1311 494.615384615 1311 539.307692308 1311 c 128,-1,8
 584 1311 584 1311 611.5 1283 c 128,-1,9
 639 1255 639 1255 639 1212.5 c 128,-1,0
 639 1170 639 1170 610.5 1140.5 c 128,-1,1
258.5 1140.5 m 128,-1,11
 230 1111 230 1111 181.5 1111 c 128,-1,12
 133 1111 133 1111 106.5 1139.5 c 128,-1,13
 80 1168 80 1168 80 1201.5 c 128,-1,14
 80 1235 80 1235 89 1253 c 128,-1,15
 98 1271 98 1271 112.5 1284 c 0,16,17
 142.615384615 1311 142.615384615 1311 187.307692308 1311 c 128,-1,18
 232 1311 232 1311 259.5 1283 c 128,-1,19
 287 1255 287 1255 287 1212.5 c 128,-1,10
 287 1170 287 1170 258.5 1140.5 c 128,-1,11
EndSplineSet
EndChar

StartChar: degree
Encoding: 176 176 103
Width: 520
Flags: HW
LayerCount: 2
Fore
SplineSet
332.5 1012 m 128,-1,1
 297 998 297 998 257 998 c 128,-1,2
 217 998 217 998 183.5 1011.5 c 128,-1,3
 150 1025 150 1025 124.5 1049.5 c 0,4,5
 70 1101.8627451 70 1101.8627451 70 1186 c 0,6,7
 70 1259.87037037 70 1259.87037037 128 1312.5 c 128,-1,8
 185.857142857 1365 185.857142857 1365 264 1365 c 0,9,10
 391.909090909 1365 391.909090909 1365 436.5 1256 c 0,11,12
 450 1223 450 1223 450 1183.5 c 128,-1,13
 450 1144 450 1144 435 1110 c 128,-1,14
 420 1076 420 1076 394 1051 c 128,-1,0
 368 1026 368 1026 332.5 1012 c 128,-1,1
187 1108 m 128,-1,16
 215 1077 215 1077 249.5 1077 c 128,-1,17
 284 1077 284 1077 301.5 1083 c 128,-1,18
 319 1089 319 1089 333 1102 c 0,19,20
 365 1131.71428571 365 1131.71428571 365 1181.35714286 c 128,-1,21
 365 1231 365 1231 335.5 1259.5 c 128,-1,22
 306 1288 306 1288 262.5 1288 c 128,-1,23
 219 1288 219 1288 189 1260 c 128,-1,24
 159 1232 159 1232 159 1185.5 c 128,-1,15
 159 1139 159 1139 187 1108 c 128,-1,16
EndSplineSet
EndChar

StartChar: divide
Encoding: 247 247 104
Width: 895
Flags: HW
LayerCount: 2
Fore
SplineSet
505 823.5 m 128,-1,1
 484 801 484 801 448 801 c 128,-1,2
 412 801 412 801 392.5 822.5 c 128,-1,3
 373 844 373 844 373 877.5 c 128,-1,4
 373 911 373 911 397 931.5 c 128,-1,5
 421 952 421 952 453.5 952 c 128,-1,6
 486 952 486 952 506 931 c 128,-1,7
 526 910 526 910 526 878 c 256,8,0
 526 846 526 846 505 823.5 c 128,-1,1
80 639 m 1,9,-1
 815 639 l 1,10,-1
 815 554 l 1,11,-1
 80 554 l 1,12,-1
 80 639 l 1,9,-1
392.5 272.5 m 128,-1,14
 373 294 373 294 373 327.5 c 128,-1,15
 373 361 373 361 397 381.5 c 128,-1,16
 421 402 421 402 453.5 402 c 128,-1,17
 486 402 486 402 506 381 c 128,-1,18
 526 360 526 360 526 328 c 256,19,20
 526 296 526 296 505 273.5 c 128,-1,21
 484 251 484 251 448 251 c 128,-1,13
 412 251 412 251 392.5 272.5 c 128,-1,14
EndSplineSet
EndChar

StartChar: numbersign
Encoding: 35 35 105
Width: 1163
Flags: HW
LayerCount: 2
Fore
SplineSet
306 456 m 1,0,-1
 100 456 l 1,1,-1
 120 541 l 1,2,-1
 327 541 l 1,3,-1
 396 816 l 1,4,-1
 191 816 l 1,5,-1
 211 901 l 1,6,-1
 417 901 l 1,7,-1
 527 1340 l 1,8,-1
 620 1340 l 1,9,-1
 510 901 l 1,10,-1
 767 901 l 1,11,-1
 877 1340 l 1,12,-1
 970 1340 l 1,13,-1
 860 901 l 1,14,-1
 1063 901 l 1,15,-1
 1043 816 l 1,16,-1
 838 816 l 1,17,-1
 769 541 l 1,18,-1
 972 541 l 1,19,-1
 952 456 l 1,20,-1
 748 456 l 1,21,-1
 634 0 l 1,22,-1
 543 0 l 1,23,-1
 656 456 l 1,24,-1
 398 456 l 1,25,-1
 284 0 l 1,26,-1
 193 0 l 1,27,-1
 306 456 l 1,0,-1
677 541 m 1,28,-1
 746 816 l 1,29,-1
 488 816 l 1,30,-1
 419 541 l 1,31,-1
 677 541 l 1,28,-1
EndSplineSet
EndChar

StartChar: germandbls
Encoding: 223 223 106
Width: 1209
Flags: HW
LayerCount: 2
Fore
SplineSet
127 -15 m 256,0,1
 60 -15 60 -15 60 22 c 0,2,3
 60 51 60 51 97 51 c 1,4,-1
 147 46 l 1,5,6
 170 46 170 46 185 54.5 c 128,-1,7
 200 63 200 63 208.5 91 c 0,8,9
 224 142.058823529 224 142.058823529 224 317 c 2,10,-1
 224 838 l 1,11,-1
 90 841 l 2,12,13
 73 841 73 841 73 860 c 0,14,15
 73 897.083333333 73 897.083333333 85.5 908.541666667 c 128,-1,16
 98 920 98 920 106 920 c 2,17,-1
 224 920 l 1,18,-1
 224 1000 l 2,19,20
 224 1206.44329897 224 1206.44329897 325.5 1320.5 c 0,21,22
 422.944954128 1430 422.944954128 1430 597 1430 c 0,23,24
 743.569620253 1430 743.569620253 1430 835.5 1342.5 c 0,25,26
 920 1262.07228916 920 1262.07228916 920 1143 c 0,27,28
 920 974.909090909 920 974.909090909 793 871 c 0,29,30
 749 835 749 835 688 809 c 1,31,32
 874.101377465 782.985828956 874.101377465 782.985828956 1002 647.5 c 0,33,34
 1129 512.966101695 1129 512.966101695 1129 346 c 0,35,36
 1129 187.094736842 1129 187.094736842 1032.5 84.5 c 0,37,38
 929.504950495 -25 929.504950495 -25 759 -25 c 0,39,40
 657.111111111 -25 657.111111111 -25 586 15 c 0,41,42
 518 53.25 518 53.25 518 101 c 0,43,44
 518 144 518 144 577 173.5 c 0,45,46
 592 181 592 181 606 181 c 256,47,48
 620 181 620 181 632.5 173.5 c 128,-1,49
 645 166 645 166 655 141 c 128,-1,50
 665 116 665 116 678.5 99.5 c 128,-1,51
 692 83 692 83 710 70.5 c 0,52,53
 749.6 43 749.6 43 792 43 c 0,54,55
 961 43 961 43 961 312 c 0,56,57
 961 626.852348993 961 626.852348993 724.5 720.5 c 0,58,59
 650 750 650 750 557 756 c 1,60,61
 545 754 545 754 535 754 c 0,62,63
 487 754 487 754 487 792 c 256,64,65
 487 830 487 830 542 830 c 2,66,-1
 555 830 l 1,67,68
 655 841 655 841 710 909 c 128,-1,69
 765 977 765 977 765 1092 c 0,70,71
 765 1220.8245614 765 1220.8245614 704.5 1293 c 0,72,73
 647.5 1361 647.5 1361 555 1361 c 0,74,75
 461.294871795 1361 461.294871795 1361 420.5 1287 c 0,76,77
 379 1211.72093023 379 1211.72093023 379 1035 c 2,78,-1
 379 317 l 2,79,80
 379 130.727272727 379 130.727272727 399.5 65.5 c 0,81,82
 405 48 405 48 410 24 c 1,83,-1
 410 17 l 2,84,85
 410 -7 410 -7 382 -7 c 1,86,-1
 307 0 l 1,87,88
 256 0 256 0 210.5 -7.5 c 128,-1,89
 165 -15 165 -15 127 -15 c 256,0,1
EndSplineSet
EndChar

StartChar: cent
Encoding: 162 162 107
Width: 960
Flags: HW
LayerCount: 2
Fore
SplineSet
817.5 61 m 0,0,1
 701.9375 -25 701.9375 -25 556 -25 c 0,2,3
 514 -25 514 -25 494 -23 c 1,4,-1
 453 -353 l 2,5,6
 449.980099502 -380.179104478 449.980099502 -380.179104478 408.5 -391 c 0,7,8
 397 -394 397 -394 385 -394 c 128,-1,9
 373 -394 373 -394 370.5 -390.5 c 128,-1,10
 368 -387 368 -387 367.5 -378.5 c 128,-1,11
 367 -370 367 -370 368.5 -362 c 128,-1,12
 370 -354 370 -354 372 -342 c 2,13,-1
 413 -9 l 1,14,15
 264.35839599 28.1604010025 264.35839599 28.1604010025 173.5 157.5 c 0,16,17
 86 282.058823529 86 282.058823529 86 453 c 0,18,19
 86 661 86 661 213.5 796 c 0,20,21
 336.939660591 926.700817096 336.939660591 926.700817096 531 941 c 1,22,-1
 573 1281 l 2,23,24
 576.019900498 1308.17910448 576.019900498 1308.17910448 617.5 1319 c 0,25,26
 629 1322 629 1322 641 1322 c 128,-1,27
 653 1322 653 1322 655.5 1318 c 128,-1,28
 658 1314 658 1314 658.5 1305 c 128,-1,29
 659 1296 659 1296 657.5 1288.5 c 128,-1,30
 656 1281 656 1281 654 1270 c 2,31,-1
 613 941 l 1,32,33
 715.462680412 930.954639175 715.462680412 930.954639175 799 870.5 c 0,34,35
 883 809.710526316 883 809.710526316 883 742 c 0,36,37
 883 702.214285714 883 702.214285714 826 690 c 0,38,39
 812 687 812 687 794.5 687 c 0,40,41
 748.689655172 687 748.689655172 687 726.344827586 740.5 c 0,42,43
 683.455156371 843.190316189 683.455156371 843.190316189 604 864 c 1,44,-1
 506 79 l 1,45,46
 555.833333333 66 555.833333333 66 604 66 c 0,47,48
 714 66 714 66 797 150 c 0,49,50
 833 186 833 186 850.5 186 c 0,51,52
 888 186 888 186 888 149 c 0,53,54
 888 113.465116279 888 113.465116279 817.5 61 c 0,0,1
522 869 m 1,55,56
 412.33512786 856.098250336 412.33512786 856.098250336 338.5 759 c 0,57,58
 257 651.821917808 257 651.821917808 257 507.410958904 c 0,59,60
 257 222.635294118 257 222.635294118 428 114 c 1,61,-1
 522 869 l 1,55,56
EndSplineSet
EndChar

StartChar: dollar
Encoding: 36 36 108
Width: 1019
Flags: HW
LayerCount: 2
Fore
SplineSet
777 1325 m 1,0,-1
 819 1331 l 1,1,2
 846.538461538 1331 846.538461538 1331 849.769230769 1285.5 c 128,-1,3
 853 1240 853 1240 858 1211 c 128,-1,4
 863 1182 863 1182 868 1159 c 128,-1,5
 873 1136 873 1136 876.5 1120 c 128,-1,6
 880 1104 880 1104 880 1093.5 c 128,-1,7
 880 1083 880 1083 868.5 1073.5 c 128,-1,8
 857 1064 857 1064 844 1064 c 0,9,10
 821.078947368 1064 821.078947368 1064 800.039473684 1111.5 c 128,-1,11
 779 1159 779 1159 766.5 1182.5 c 128,-1,12
 754 1206 754 1206 737 1224.5 c 0,13,14
 703 1261.5 703 1261.5 629 1280 c 1,15,-1
 568 786 l 1,16,-1
 680 712 l 1,17,18
 932 533.043478261 932 533.043478261 932 335 c 0,19,20
 932 87.7941176471 932 87.7941176471 692 4.5 c 0,21,22
 607 -25 607 -25 484 -25 c 2,23,-1
 467 -25 l 1,24,-1
 452 -151 l 2,25,26
 448.980099502 -178.179104478 448.980099502 -178.179104478 407.5 -189 c 0,27,28
 396 -192 396 -192 384 -192 c 128,-1,29
 372 -192 372 -192 369.5 -188.5 c 128,-1,30
 367 -185 367 -185 366.5 -176.5 c 128,-1,31
 366 -168 366 -168 367.5 -160 c 128,-1,32
 369 -152 369 -152 371 -140 c 2,33,-1
 386 -16 l 1,34,35
 207.930434783 13.6782608696 207.930434783 13.6782608696 185.5 56.5 c 0,36,37
 178.821428571 69.25 178.821428571 69.25 171.910714286 115.625 c 128,-1,38
 165 162 165 162 155.5 200 c 128,-1,39
 146 238 146 238 138 268 c 2,40,-1
 124 320.5 l 2,41,42
 118 343 118 343 118 358 c 0,43,44
 118 394 118 394 145 394 c 0,45,46
 180.5 394 180.5 394 197 339 c 0,47,48
 224.963302752 241.128440367 224.963302752 241.128440367 246.981651376 212.064220183 c 128,-1,49
 269 183 269 183 288 162.5 c 0,50,51
 334.247883918 112.600967352 334.247883918 112.600967352 399 83 c 1,52,-1
 463 605 l 1,53,54
 307 707 307 707 227.5 811 c 128,-1,55
 148 915 148 915 148 1036 c 0,56,57
 148 1174 148 1174 256.5 1267 c 0,58,59
 370.833333333 1365 370.833333333 1365 553 1365 c 2,60,-1
 557 1365 l 1,61,-1
 572 1483 l 2,62,63
 575.019900498 1510.17910448 575.019900498 1510.17910448 616.5 1521 c 0,64,65
 628 1524 628 1524 640 1524 c 128,-1,66
 652 1524 652 1524 654.5 1520 c 128,-1,67
 657 1516 657 1516 657.5 1507 c 128,-1,68
 658 1498 658 1498 656.5 1490.5 c 128,-1,69
 655 1483 655 1483 653 1472 c 2,70,-1
 639 1358 l 1,71,72
 673 1352 673 1352 704 1342 c 0,73,74
 756.7 1325 756.7 1325 777 1325 c 1,0,-1
548 1291 m 1,75,-1
 538 1291 l 2,76,77
 361.835820896 1291 361.835820896 1291 302 1185.5 c 0,78,79
 283 1152 283 1152 283 1111.5 c 128,-1,80
 283 1071 283 1071 293.5 1041.5 c 128,-1,81
 304 1012 304 1012 324.5 985 c 0,82,83
 385.788113695 904.279069767 385.788113695 904.279069767 492 836 c 1,84,-1
 548 1291 l 1,75,-1
478 58 m 1,85,86
 494 56 494 56 541 56 c 128,-1,87
 588 56 588 56 641.5 72.5 c 128,-1,88
 695 89 695 89 729.5 117 c 0,89,90
 796 170.971014493 796 170.971014493 796 260 c 0,91,92
 795 389 795 389 603 514 c 2,93,-1
 539 556 l 1,94,-1
 478 58 l 1,85,86
EndSplineSet
EndChar

StartChar: currency
Encoding: 164 164 109
Width: 1103
Flags: HW
LayerCount: 2
Fore
SplineSet
867 922 m 1,0,1
 954 810.142857143 954 810.142857143 954 659.142857143 c 128,-1,2
 954 508.142857143 954 508.142857143 866 395 c 1,3,-1
 993 269 l 2,4,5
 1003 259 1003 259 1003 252 c 128,-1,6
 1003 245 1003 245 1000 234 c 128,-1,7
 997 223 997 223 991.5 212.5 c 0,8,9
 977.619047619 186 977.619047619 186 963 186 c 0,10,11
 956 186 956 186 946 196 c 2,12,-1
 807 335 l 1,13,14
 698 244 698 244 545.5 244 c 128,-1,15
 393 244 393 244 290 329 c 1,16,-1
 157 196 l 2,17,18
 147 186 147 186 140.5 186 c 128,-1,19
 134 186 134 186 124.5 195.5 c 0,20,21
 100 220 100 220 100 239.5 c 128,-1,22
 100 259 100 259 110 269 c 2,23,-1
 231 390 l 1,24,25
 145 500.571428571 145 500.571428571 145 655.585714286 c 128,-1,26
 145 810.6 145 810.6 237 921 c 1,27,-1
 110 1048 l 2,28,29
 100 1058 100 1058 100 1065 c 128,-1,30
 100 1072 100 1072 103 1083 c 128,-1,31
 106 1094 106 1094 111.5 1104.5 c 0,32,33
 125.380952381 1131 125.380952381 1131 140 1131 c 0,34,35
 147 1131 147 1131 157 1121 c 2,36,-1
 297 981 l 1,37,38
 405.071428571 1070 405.071428571 1070 552.607142857 1070 c 128,-1,39
 700.142857143 1070 700.142857143 1070 807 982 c 1,40,-1
 946 1121 l 2,41,42
 956 1131 956 1131 963.5 1131 c 128,-1,43
 971 1131 971 1131 978.5 1123 c 128,-1,44
 986 1115 986 1115 991.5 1104.5 c 0,45,46
 1003 1082.54545455 1003 1082.54545455 1003 1070.27272727 c 128,-1,47
 1003 1058 1003 1058 993 1048 c 2,48,-1
 867 922 l 1,0,1
543.5 335 m 0,49,50
 606 335 606 335 660.5 353.5 c 128,-1,51
 715 372 715 372 757.5 411 c 0,52,53
 852 497.717647059 852 497.717647059 852 658 c 0,54,55
 852 804.590361446 852 804.590361446 761.5 894 c 0,56,57
 676.475609756 978 676.475609756 978 549 978 c 0,58,59
 406.976744186 978 406.976744186 978 325.5 887 c 0,60,61
 247 799.324675325 247 799.324675325 247 661 c 0,62,63
 247 519.455696203 247 519.455696203 330.5 427.5 c 0,64,65
 414.494252874 335 414.494252874 335 543.5 335 c 0,49,50
EndSplineSet
EndChar

StartChar: parenleft
Encoding: 40 40 110
Width: 814
Flags: HW
LayerCount: 2
Fore
SplineSet
398.5 -109.5 m 128,-1,1
 347 -56 347 -56 307.5 6 c 128,-1,2
 268 68 268 68 240 133.5 c 128,-1,3
 212 199 212 199 192 272 c 0,4,5
 150 425.3 150 425.3 150 542.65 c 128,-1,6
 150 660 150 660 161 738 c 128,-1,7
 172 816 172 816 192 888 c 0,8,9
 277.333792154 1195.20165175 277.333792154 1195.20165175 500.5 1356.5 c 0,10,11
 602.191780822 1430 602.191780822 1430 670 1430 c 0,12,13
 685 1430 685 1430 699.5 1418 c 128,-1,14
 714 1406 714 1406 714 1398.5 c 128,-1,15
 714 1391 714 1391 705.5 1385.5 c 128,-1,16
 697 1380 697 1380 684 1374 c 128,-1,17
 671 1368 671 1368 656 1361.5 c 0,18,19
 579.74879692 1328.457812 579.74879692 1328.457812 517.87439846 1243.728906 c 128,-1,20
 456 1159 456 1159 415 1056.5 c 0,21,22
 326 834 326 834 326 580 c 256,23,24
 326 326.585365854 326 326.585365854 415 103 c 0,25,26
 512.681658193 -142.395385217 512.681658193 -142.395385217 656 -204.5 c 0,27,28
 671 -211 671 -211 684 -216.5 c 0,29,30
 714 -229.192307692 714 -229.192307692 714 -238.596153846 c 128,-1,31
 714 -248 714 -248 699.5 -260 c 128,-1,32
 685 -272 685 -272 662 -272 c 128,-1,33
 639 -272 639 -272 594.5 -253.5 c 128,-1,34
 550 -235 550 -235 500 -199 c 128,-1,0
 450 -163 450 -163 398.5 -109.5 c 128,-1,1
EndSplineSet
EndChar

StartChar: braceleft
Encoding: 123 123 111
Width: 754
Flags: HW
LayerCount: 2
Fore
SplineSet
470 269 m 1,0,-1
 463 18 l 1,1,2
 463 -85.9677419355 463 -85.9677419355 483.5 -124.983870968 c 128,-1,3
 504 -164 504 -164 531.5 -183 c 128,-1,4
 559 -202 559 -202 593 -208 c 0,5,6
 654 -218.764705882 654 -218.764705882 654 -245 c 0,7,8
 654 -254 654 -254 644.5 -263 c 128,-1,9
 635 -272 635 -272 615 -272 c 0,10,11
 476.045112782 -272 476.045112782 -272 383 -134.5 c 0,12,13
 286 8.84444444444 286 8.84444444444 286 243 c 0,14,15
 286 296.75 286 296.75 293 355.375 c 0,16,17
 306 464.25 306 464.25 306 486.125 c 0,18,19
 306 543.266666667 306 543.266666667 215 564.5 c 0,20,21
 200 568 200 568 200 579 c 256,22,23
 200 590 200 590 215 593.5 c 128,-1,24
 230 597 230 597 255.5 607 c 0,25,26
 306 626.803921569 306 626.803921569 306 681 c 0,27,28
 306 693.75 306 693.75 299 752.375 c 0,29,30
 286 861.25 286 861.25 286 948.125 c 128,-1,31
 286 1035 286 1035 312 1130.5 c 128,-1,32
 338 1226 338 1226 383 1292.5 c 0,33,34
 476.045112782 1430 476.045112782 1430 615 1430 c 0,35,36
 635 1430 635 1430 644.5 1421 c 128,-1,37
 654 1412 654 1412 654 1400.5 c 0,38,39
 654 1376.69565217 654 1376.69565217 606.5 1368.34782609 c 128,-1,40
 559 1360 559 1360 531.5 1341 c 128,-1,41
 504 1322 504 1322 488.5 1292.5 c 0,42,43
 463 1243.96774194 463 1243.96774194 463 1140 c 1,44,-1
 470 889 l 1,45,46
 466.099630996 752.487084871 466.099630996 752.487084871 442.049815498 700.743542435 c 128,-1,47
 418 649 418 649 391.5 624 c 128,-1,48
 365 599 365 599 328 579 c 1,49,50
 404.991017964 537.383233533 404.991017964 537.383233533 434.5 473 c 0,51,52
 466.084388186 404.088607595 466.084388186 404.088607595 470 269 c 1,0,-1
EndSplineSet
EndChar

StartChar: bracketleft
Encoding: 91 91 112
Width: 712
Flags: HW
LayerCount: 2
Fore
SplineSet
585 -208 m 0,0,1
 612 -208 612 -208 612 -223 c 0,2,3
 612 -245.071428571 612 -245.071428571 597.5 -258.535714286 c 128,-1,4
 583 -272 583 -272 573 -272 c 2,5,-1
 232 -272 l 2,6,7
 212 -272 212 -272 206 -265.5 c 128,-1,8
 200 -259 200 -259 200 -239 c 2,9,-1
 200 1397 l 2,10,11
 200 1417 200 1417 206 1423.5 c 128,-1,12
 212 1430 212 1430 232 1430 c 2,13,-1
 573 1430 l 2,14,15
 597.625 1430 597.625 1430 609.5 1392 c 0,16,17
 612 1384 612 1384 612 1381 c 0,18,19
 612 1366 612 1366 585 1366 c 0,20,21
 437.142857143 1366 437.142857143 1366 357 1349 c 1,22,-1
 357 -191 l 1,23,24
 437.142857143 -208 437.142857143 -208 585 -208 c 0,0,1
EndSplineSet
EndChar

StartChar: bracketright
Encoding: 93 93 113
Width: 712
Flags: HW
LayerCount: 2
Fore
SplineSet
100 -223 m 0,0,1
 100 -208 100 -208 127 -208 c 0,2,3
 274.857142857 -208 274.857142857 -208 355 -191 c 1,4,-1
 355 1349 l 1,5,6
 274.857142857 1366 274.857142857 1366 127 1366 c 0,7,8
 100 1366 100 1366 100 1381 c 0,9,10
 100 1403.07142857 100 1403.07142857 114.5 1416.53571429 c 128,-1,11
 129 1430 129 1430 139 1430 c 2,12,-1
 480 1430 l 2,13,14
 500 1430 500 1430 506 1423.5 c 128,-1,15
 512 1417 512 1417 512 1397 c 2,16,-1
 512 -239 l 2,17,18
 512 -259 512 -259 506 -265.5 c 128,-1,19
 500 -272 500 -272 480 -272 c 2,20,-1
 139 -272 l 2,21,22
 114.375 -272 114.375 -272 102.5 -234 c 0,23,24
 100 -226 100 -226 100 -223 c 0,0,1
EndSplineSet
EndChar

StartChar: parenright
Encoding: 41 41 114
Width: 814
Flags: HW
LayerCount: 2
Fore
SplineSet
114.5 -260 m 128,-1,1
 100 -248 100 -248 100 -238.722222222 c 128,-1,2
 100 -229.444444444 100 -229.444444444 116.5 -222.722222222 c 0,3,4
 160 -205 160 -205 185 -190 c 0,5,6
 310.661684362 -115.008349655 310.661684362 -115.008349655 398.5 103 c 0,7,8
 488 325.13253012 488 325.13253012 488 580 c 256,9,10
 488 834.445783133 488 834.445783133 398.5 1055.5 c 0,11,12
 299.418852297 1300.21849734 299.418852297 1300.21849734 158 1361.5 c 0,13,14
 100 1386.63333333 100 1386.63333333 100 1396.31666667 c 128,-1,15
 100 1406 100 1406 114.5 1418 c 128,-1,16
 129 1430 129 1430 151.5 1430 c 128,-1,17
 174 1430 174 1430 218.5 1411.5 c 128,-1,18
 263 1393 263 1393 313.5 1356.5 c 0,19,20
 593.908178518 1153.82874226 593.908178518 1153.82874226 653 737.5 c 0,21,22
 664 660 664 660 664 580.5 c 128,-1,23
 664 501 664 501 653 422.5 c 128,-1,24
 642 344 642 344 622 271.5 c 0,25,26
 536.623063683 -37.991394148 536.623063683 -37.991394148 313 -199 c 0,27,28
 211.611111111 -272 211.611111111 -272 144 -272 c 0,29,0
 129 -272 129 -272 114.5 -260 c 128,-1,1
EndSplineSet
EndChar

StartChar: braceright
Encoding: 125 125 115
Width: 754
Flags: HW
LayerCount: 2
Fore
SplineSet
284 889 m 1,0,-1
 291 1140 l 1,1,2
 291 1243.96774194 291 1243.96774194 270.5 1282.98387097 c 128,-1,3
 250 1322 250 1322 222.5 1341 c 128,-1,4
 195 1360 195 1360 161 1366 c 0,5,6
 100 1376.76470588 100 1376.76470588 100 1403 c 0,7,8
 100 1412 100 1412 109.5 1421 c 128,-1,9
 119 1430 119 1430 139 1430 c 0,10,11
 277.954887218 1430 277.954887218 1430 371 1292.5 c 0,12,13
 468 1149.15555556 468 1149.15555556 468 915 c 0,14,15
 468 861.25 468 861.25 461 802.625 c 0,16,17
 448 693.75 448 693.75 448 671.875 c 0,18,19
 448 614.733333333 448 614.733333333 539 593.5 c 0,20,21
 554 590 554 590 554 579 c 256,22,23
 554 568 554 568 539 564.5 c 128,-1,24
 524 561 524 561 498.5 551 c 0,25,26
 448 531.196078431 448 531.196078431 448 477 c 0,27,28
 448 464.25 448 464.25 455 405.625 c 0,29,30
 468 296.75 468 296.75 468 209.875 c 128,-1,31
 468 123 468 123 442 27.5 c 128,-1,32
 416 -68 416 -68 371 -134.5 c 0,33,34
 277.954887218 -272 277.954887218 -272 139 -272 c 0,35,36
 119 -272 119 -272 109.5 -263 c 128,-1,37
 100 -254 100 -254 100 -245 c 0,38,39
 100 -218.695652174 100 -218.695652174 147.5 -210.347826087 c 128,-1,40
 195 -202 195 -202 222.5 -183 c 128,-1,41
 250 -164 250 -164 265.5 -135 c 0,42,43
 291 -87.2903225806 291 -87.2903225806 291 18 c 1,44,-1
 284 269 l 1,45,46
 285.941952507 402.994722955 285.941952507 402.994722955 310.970976253 455.997361478 c 128,-1,47
 336 509 336 509 362.5 534 c 128,-1,48
 389 559 389 559 426 579 c 1,49,50
 316.677595628 633.661202186 316.677595628 633.661202186 293.5 770 c 0,51,52
 285 820 285 820 284 889 c 1,0,-1
EndSplineSet
EndChar

StartChar: logicalnot
Encoding: 172 172 116
Width: 965
Flags: HW
LayerCount: 2
Fore
SplineSet
80 639 m 1,0,-1
 875 639 l 1,1,-1
 875 308 l 1,2,-1
 790 308 l 1,3,-1
 790 554 l 1,4,-1
 80 554 l 1,5,-1
 80 639 l 1,0,-1
EndSplineSet
EndChar

StartChar: Euro
Encoding: 8364 8364 117
Width: 1391
Flags: HW
LayerCount: 2
Fore
SplineSet
1055 615 m 2,0,1
 1078 615 1078 615 1078 597 c 0,2,3
 1078 573 1078 573 1067.5 551.5 c 128,-1,4
 1057 530 1057 530 1045 530 c 2,5,-1
 424 530 l 1,6,7
 466.36550308 318.1724846 466.36550308 318.1724846 593 190.5 c 0,8,9
 720.455284553 62 720.455284553 62 894 62 c 0,10,11
 1020.75 62 1020.75 62 1090.875 96 c 128,-1,12
 1161 130 1161 130 1204.5 170.5 c 128,-1,13
 1248 211 1248 211 1270 248 c 128,-1,14
 1292 285 1292 285 1297 288 c 128,-1,15
 1302 291 1302 291 1310 291.5 c 128,-1,16
 1318 292 1318 292 1329 273 c 128,-1,17
 1340 254 1340 254 1340 221 c 128,-1,18
 1340 188 1340 188 1324 163.5 c 128,-1,19
 1308 139 1308 139 1281 114.5 c 0,20,21
 1127.26530612 -25 1127.26530612 -25 863 -25 c 0,22,23
 596.415584416 -25 596.415584416 -25 422 145 c 0,24,25
 265.805151641 297.2405484 265.805151641 297.2405484 231 530 c 1,26,-1
 89 530 l 2,27,28
 65 530 65 530 65 548 c 0,29,30
 65 572 65 572 75.5 593.5 c 128,-1,31
 86 615 86 615 98 615 c 2,32,-1
 223 615 l 1,33,34
 222 623 222 623 222 630.5 c 2,35,-1
 222 646 l 2,36,37
 222 688 222 688 226 730 c 1,38,-1
 89 730 l 2,39,40
 65 730 65 730 65 748 c 0,41,42
 65 772 65 772 75.5 793.5 c 128,-1,43
 86 815 86 815 98 815 c 2,44,-1
 241 815 l 1,45,46
 292.979555668 1049.94759162 292.979555668 1049.94759162 469.5 1203 c 0,47,48
 656.34 1365 656.34 1365 915 1365 c 0,49,50
 1067.31428571 1365 1067.31428571 1365 1166.65714286 1336.5 c 0,51,52
 1341 1286.48360656 1341 1286.48360656 1341 1245 c 0,53,54
 1341 1231.75 1341 1231.75 1324 1201.375 c 128,-1,55
 1307 1171 1307 1171 1297.5 1137 c 128,-1,56
 1288 1103 1288 1103 1281.5 1077 c 128,-1,57
 1275 1051 1275 1051 1267.5 1036 c 128,-1,58
 1260 1021 1260 1021 1243 1021 c 0,59,60
 1215 1021 1215 1021 1215 1072 c 0,61,62
 1215 1167.9 1215 1167.9 1161.5 1205.45 c 0,63,64
 1048.15978695 1285 1048.15978695 1285 877 1285 c 0,65,66
 712.083333333 1285 712.083333333 1285 581 1164 c 0,67,68
 436.476407915 1030.59360731 436.476407915 1030.59360731 410 815 c 1,69,-1
 1135 815 l 2,70,71
 1158 815 1158 815 1158 797 c 0,72,73
 1158 773 1158 773 1147.5 751.5 c 128,-1,74
 1137 730 1137 730 1125 730 c 2,75,-1
 405 730 l 1,76,-1
 405 723 l 2,77,78
 405 680 405 680 410 615 c 1,79,-1
 1055 615 l 2,0,1
EndSplineSet
EndChar

StartChar: eth
Encoding: 240 240 118
Width: 1107
Flags: HW
LayerCount: 2
Fore
SplineSet
80 440.5 m 0,0,1
 80 536 80 536 115 618 c 128,-1,2
 150 700 150 700 212 759 c 0,3,4
 342.305084746 883 342.305084746 883 547 883 c 0,5,6
 716.333333333 883 716.333333333 883 843 783 c 1,7,8
 810.840098401 960.825338253 810.840098401 960.825338253 666 1132 c 1,9,-1
 477 1062 l 2,10,11
 452 1052 452 1052 443 1052 c 128,-1,12
 434 1052 434 1052 426.5 1056.5 c 128,-1,13
 419 1061 419 1061 410.5 1067.5 c 0,14,15
 389 1083.94117647 389 1083.94117647 389 1092.97058824 c 128,-1,16
 389 1102 389 1102 395.5 1106.5 c 128,-1,17
 402 1111 402 1111 432 1123 c 1,18,-1
 602 1201 l 1,19,20
 491.126923077 1307.76666667 491.126923077 1307.76666667 381 1358 c 1,21,22
 311 1387.55555556 311 1387.55555556 311 1394.27777778 c 128,-1,23
 311 1401 311 1401 318 1407 c 128,-1,24
 325 1413 325 1413 334.5 1418 c 0,25,26
 357.3 1430 357.3 1430 374.65 1430 c 128,-1,27
 392 1430 392 1430 433.5 1413.5 c 128,-1,28
 475 1397 475 1397 522.5 1370.5 c 0,29,30
 631.444954128 1309.72018349 631.444954128 1309.72018349 700 1249 c 1,31,-1
 865 1326 l 2,32,33
 884 1334 884 1334 893 1335 c 128,-1,34
 902 1336 902 1336 907.5 1337 c 128,-1,35
 913 1338 913 1338 924 1329.5 c 128,-1,36
 935 1321 935 1321 945 1309.5 c 0,37,38
 969 1281.9 969 1281.9 969 1269.45 c 128,-1,39
 969 1257 969 1257 959.5 1251 c 128,-1,40
 950 1245 950 1245 921 1235 c 1,41,-1
 773 1175 l 1,42,43
 954.430224485 972.402915992 954.430224485 972.402915992 1007 691 c 0,44,45
 1024 600 1024 600 1024 493.5 c 128,-1,46
 1024 387 1024 387 993 289 c 128,-1,47
 962 191 962 191 901.5 121.5 c 0,48,49
 773.971223022 -25 773.971223022 -25 550 -25 c 0,50,51
 341.0703125 -25 341.0703125 -25 207.5 114 c 0,52,53
 80 246.682926829 80 246.682926829 80 440.5 c 0,0,1
259 469.5 m 0,54,55
 259 381 259 381 285.5 302 c 128,-1,56
 312 223 312 223 357.5 166 c 0,57,58
 454.087719298 45 454.087719298 45 589 45 c 0,59,60
 710.774193548 45 710.774193548 45 787.5 145.5 c 0,61,62
 861 241.774647887 861 241.774647887 861 367.387323944 c 128,-1,63
 861 493 861 493 836.5 573.5 c 128,-1,64
 812 654 812 654 768.5 707 c 0,65,66
 682.320754717 812 682.320754717 812 540 812 c 0,67,68
 419.952941176 812 419.952941176 812 342.5 726.5 c 0,69,70
 259 634.324675325 259 634.324675325 259 469.5 c 0,54,55
EndSplineSet
EndChar

StartChar: thorn
Encoding: 254 254 119
Width: 1169
Flags: HW
LayerCount: 2
Fore
SplineSet
87 -411 m 1,0,-1
 137 -416 l 1,1,2
 160 -416 160 -416 175 -408 c 128,-1,3
 190 -400 190 -400 198.5 -372.5 c 0,4,5
 214 -322.352941176 214 -322.352941176 214 -148 c 2,6,-1
 214 1102 l 2,7,8
 214 1195.85714286 214 1195.85714286 199 1224.42857143 c 128,-1,9
 184 1253 184 1253 167 1263 c 128,-1,10
 150 1273 150 1273 112.5 1279 c 128,-1,11
 75 1285 75 1285 75 1310 c 0,12,13
 75 1334.60606061 75 1334.60606061 126.5 1345.3030303 c 0,14,15
 245.997615963 1370.12365898 245.997615963 1370.12365898 290.998807981 1395.56182949 c 0,16,17
 351.921377994 1430 351.921377994 1430 373 1430 c 256,18,19
 396 1430 396 1430 396 1407 c 0,20,21
 396 1396 396 1396 391 1384 c 128,-1,22
 386 1372 386 1372 383 1357.5 c 128,-1,23
 380 1343 380 1343 377.5 1325 c 128,-1,24
 375 1307 375 1307 373 1282 c 0,25,26
 369 1232 369 1232 369 1146 c 2,27,-1
 369 767 l 1,28,29
 489.094117647 943 489.094117647 943 679 943 c 0,30,31
 868.472440945 943 868.472440945 943 980.5 807.5 c 0,32,33
 1088 677.476190476 1088 677.476190476 1088 468 c 256,34,35
 1088 263.112 1088 263.112 954.5 120 c 0,36,37
 819.23880597 -25 819.23880597 -25 620 -25 c 0,38,39
 475.810810811 -25 475.810810811 -25 369 51 c 1,40,-1
 369 -148 l 2,41,42
 369 -338.294117647 369 -338.294117647 379.5 -371.647058824 c 128,-1,43
 390 -405 390 -405 405.5 -411.5 c 128,-1,44
 421 -418 421 -418 448 -418 c 1,45,-1
 540 -409 l 1,46,47
 560 -409 560 -409 572 -418.5 c 128,-1,48
 584 -428 584 -428 584 -442 c 0,49,50
 584 -480 584 -480 508 -480 c 1,51,-1
 297 -465 l 1,52,53
 246 -465 246 -465 200.5 -472.5 c 128,-1,54
 155 -480 155 -480 117 -480 c 256,55,56
 50 -480 50 -480 50 -440 c 0,57,58
 50 -411 50 -411 87 -411 c 1,0,-1
369 221 m 1,59,60
 428.199720182 99.4847848898 428.199720182 99.4847848898 564.5 61 c 0,61,62
 607 49 607 49 656 49 c 128,-1,63
 705 49 705 49 754.5 70.5 c 128,-1,64
 804 92 804 92 841 137 c 0,65,66
 922 235.513513514 922 235.513513514 922 413 c 0,67,68
 922 609.717948718 922 609.717948718 837 728.5 c 0,69,70
 757.211009174 840 757.211009174 840 636 840 c 0,71,72
 512.205882353 840 512.205882353 840 418.5 732 c 0,73,74
 389 698 389 698 369 656 c 1,75,-1
 369 221 l 1,59,60
EndSplineSet
EndChar

StartChar: yen
Encoding: 165 165 120
Width: 1260
Flags: HW
LayerCount: 2
Fore
SplineSet
438 -15 m 0,0,1
 373 -15 373 -15 373 22 c 0,2,3
 373 51 373 51 409 51 c 1,4,-1
 458 46 l 1,5,6
 517.808823529 46 517.808823529 46 538.5 113 c 0,7,8
 556 169.666666667 556 169.666666667 556 317 c 2,9,-1
 556 458 l 1,10,-1
 235 458 l 2,11,12
 211 458 211 458 211 476 c 0,13,14
 211 500 211 500 221.5 521.5 c 128,-1,15
 232 543 232 543 244 543 c 2,16,-1
 556 543 l 1,17,-1
 556 668 l 1,18,-1
 235 668 l 2,19,20
 211 668 211 668 211 686 c 0,21,22
 211 710 211 710 221.5 731.5 c 128,-1,23
 232 753 232 753 244 753 c 2,24,-1
 498 753 l 1,25,-1
 241 1132 l 2,26,27
 177.343624161 1225.49530201 177.343624161 1225.49530201 150.671812081 1248.74765101 c 0,28,29
 109.088235294 1285 109.088235294 1285 64.5441176471 1285 c 128,-1,30
 20 1285 20 1285 20 1321 c 0,31,32
 20 1335 20 1335 36 1345.5 c 128,-1,33
 52 1356 52 1356 87 1356 c 128,-1,34
 122 1356 122 1356 160 1348 c 128,-1,35
 198 1340 198 1340 242 1340 c 1,36,-1
 405 1356 l 1,37,38
 470 1356 470 1356 470 1323 c 128,-1,39
 470 1290 470 1290 414.5 1290 c 128,-1,40
 359 1290 359 1290 359 1254 c 0,41,42
 359 1233.8 359 1233.8 395 1178 c 2,43,-1
 671 760 l 1,44,-1
 883 1096 l 2,45,46
 947.551724138 1198.20689655 947.551724138 1198.20689655 952.775862069 1219.10344828 c 128,-1,47
 958 1240 958 1240 958 1248 c 0,48,49
 958 1290 958 1290 895.5 1290 c 128,-1,50
 833 1290 833 1290 833 1323 c 128,-1,51
 833 1356 833 1356 898 1356 c 0,52,53
 933 1356 933 1356 967 1348 c 128,-1,54
 1001 1340 1001 1340 1037 1340 c 128,-1,55
 1073 1340 1073 1340 1104 1348 c 128,-1,56
 1135 1356 1135 1356 1170 1356 c 0,57,58
 1240 1356 1240 1356 1240 1321 c 256,59,60
 1240 1285 1240 1285 1193 1285 c 0,61,62
 1144.62162162 1285 1144.62162162 1285 1116.81081081 1260.5 c 0,63,64
 1072.84615385 1221.76923077 1072.84615385 1221.76923077 999 1111 c 2,65,-1
 760 753 l 1,66,-1
 1021 753 l 2,67,68
 1044 753 1044 753 1044 735 c 0,69,70
 1044 711 1044 711 1033.5 689.5 c 128,-1,71
 1023 668 1023 668 1011 668 c 2,72,-1
 713 668 l 1,73,-1
 713 543 l 1,74,-1
 1021 543 l 2,75,76
 1044 543 1044 543 1044 525 c 0,77,78
 1044 501 1044 501 1033.5 479.5 c 128,-1,79
 1023 458 1023 458 1011 458 c 2,80,-1
 713 458 l 1,81,-1
 713 317 l 2,82,83
 713 166.428571429 713 166.428571429 726.5 122.714285714 c 128,-1,84
 740 79 740 79 759.5 62.5 c 128,-1,85
 779 46 779 46 811 46 c 1,86,-1
 859 51 l 1,87,88
 895 51 895 51 895 22 c 0,89,90
 895 -15 895 -15 831 -15 c 0,91,92
 798.333333333 -15 798.333333333 -15 760.666666667 -9 c 0,93,94
 640.722175021 10.106202209 640.722175021 10.106202209 555.361087511 -2.4468988955 c 128,-1,95
 470 -15 470 -15 438 -15 c 0,0,1
EndSplineSet
EndChar

StartChar: sterling
Encoding: 163 163 121
Width: 1173
Flags: HW
LayerCount: 2
Fore
SplineSet
489 104 m 1,0,1
 386.368421053 -26 386.368421053 -26 264 -26 c 0,2,3
 177 -26 177 -26 129.5 21.5 c 0,4,5
 90 61 90 61 90 104.5 c 128,-1,6
 90 148 90 148 101.5 178.5 c 128,-1,7
 113 209 113 209 137 232.5 c 0,8,9
 190.617021277 285 190.617021277 285 265.039279869 285 c 128,-1,10
 339.461538462 285 339.461538462 285 417 261 c 1,11,12
 425 315 425 315 425 406 c 128,-1,13
 425 497 425 497 374 650 c 1,14,-1
 137 650 l 2,15,16
 113 650 113 650 113 668 c 0,17,18
 113 692 113 692 123.5 713.5 c 128,-1,19
 134 735 134 735 146 735 c 2,20,-1
 343 735 l 1,21,22
 271 918.6 271 918.6 271 1007.3 c 128,-1,23
 271 1096 271 1096 300.5 1156.5 c 128,-1,24
 330 1217 330 1217 384 1263.5 c 0,25,26
 501.870967742 1365 501.870967742 1365 684 1365 c 0,27,28
 862.484848485 1365 862.484848485 1365 975 1286 c 0,29,30
 1022 1253 1022 1253 1044.5 1215 c 128,-1,31
 1067 1177 1067 1177 1067 1154.5 c 128,-1,32
 1067 1132 1067 1132 1058 1119.5 c 128,-1,33
 1049 1107 1049 1107 1035.5 1097 c 0,34,35
 1007.15 1076 1007.15 1076 981.075 1076 c 128,-1,36
 955 1076 955 1076 939.5 1092 c 128,-1,37
 924 1108 924 1108 909.5 1145.5 c 128,-1,38
 895 1183 895 1183 878 1206.5 c 128,-1,39
 861 1230 861 1230 835.5 1246.5 c 0,40,41
 782.181818182 1281 782.181818182 1281 690 1281 c 0,42,43
 439 1281 439 1281 439 1065 c 0,44,45
 439 999.5 439 999.5 463.5 924.25 c 128,-1,46
 488 849 488 849 511 784 c 2,47,-1
 528 735 l 1,48,-1
 883 735 l 2,49,50
 906 735 906 735 906 717 c 0,51,52
 906 693 906 693 895.5 671.5 c 128,-1,53
 885 650 885 650 873 650 c 2,54,-1
 557 650 l 1,55,56
 599 517 599 517 599 418.659090909 c 128,-1,57
 599 320.318181818 599 320.318181818 554 216 c 1,58,59
 791.25 143 791.25 143 973 143 c 0,60,61
 1017.33333333 143 1017.33333333 143 1034.16666667 162.5 c 0,62,63
 1058.76923077 191 1058.76923077 191 1074 191 c 0,64,65
 1098 191 1098 191 1098 163 c 0,66,67
 1098 127.529411765 1098 127.529411765 1072 79.2647058824 c 128,-1,68
 1046 31 1046 31 1034 15 c 128,-1,69
 1022 -1 1022 -1 1009 -10 c 0,70,71
 987.333333333 -25 987.333333333 -25 947 -25 c 0,72,73
 735.942857143 -25 735.942857143 -25 489 104 c 1,0,1
392 157 m 1,74,75
 320.789473684 198 320.789473684 198 283.394736842 198 c 128,-1,76
 246 198 246 198 230 191.5 c 128,-1,77
 214 185 214 185 202.5 175 c 0,78,79
 179 154.565217391 179 154.565217391 179 122.782608696 c 128,-1,80
 179 91 179 91 203 68.5 c 128,-1,81
 227 46 227 46 267 46 c 256,82,83
 351.105263158 46 351.105263158 46 392 157 c 1,74,75
EndSplineSet
EndChar

StartChar: onesuperior
Encoding: 185 185 122
Width: 573
Flags: HW
LayerCount: 2
Fore
SplineSet
289 770 m 257,0,-1
 140 760 l 1,1,2
 115 760 115 760 102.5 770.5 c 128,-1,3
 90 781 90 781 90 792 c 0,4,5
 90 822 90 822 123 822 c 1,6,7
 165 818 l 1,8,9
 201.032258065 818 201.032258065 818 211.5 847.5 c 0,10,11
 219 868.636363636 219 868.636363636 219 949 c 2,12,-1
 219 1373 l 2,13,14
 219 1423.11111111 219 1423.11111111 206 1437.55555556 c 0,15,16
 186.851485149 1458.83168317 186.851485149 1458.83168317 152.425742574 1461.91584158 c 0,17,18
 99 1466.70218579 99 1466.70218579 99 1488 c 128,-1,19
 99 1509.33333333 99 1509.33333333 127 1518.66666667 c 128,-1,20
 155 1528 155 1528 184 1541.5 c 128,-1,21
 213 1555 213 1555 240 1570.5 c 0,22,23
 297.52173913 1603.52173913 297.52173913 1603.52173913 324.260869565 1630.26086957 c 128,-1,24
 351 1657 351 1657 368 1657 c 128,-1,25
 385 1657 385 1657 385 1631 c 0,26,27
 385 1624 385 1624 381.5 1612.5 c 128,-1,28
 378 1601 378 1601 374.5 1577 c 0,29,30
 364 1505 364 1505 364 1407 c 2,31,-1
 364 949 l 2,32,33
 364 868.636363636 364 868.636363636 370.5 850.318181818 c 0,34,35
 381.967741935 818 381.967741935 818 418 818 c 1,36,-1
 460 822 l 1,37,38
 493 822 493 822 493 792 c 256,39,40
 493 760 493 760 443 760 c 1,41,-1
 289 770 l 257,0,-1
EndSplineSet
EndChar

StartChar: onequarter
Encoding: 188 188 123
Width: 1732
Flags: HW
LayerCount: 2
Fore
SplineSet
299 499 m 257,0,-1
 150 489 l 1,1,2
 125 489 125 489 112.5 499.5 c 128,-1,3
 100 510 100 510 100 521 c 0,4,5
 100 551 100 551 133 551 c 1,6,7
 175 547 l 1,8,9
 211.032258065 547 211.032258065 547 221.5 576.5 c 0,10,11
 229 597.636363636 229 597.636363636 229 678 c 2,12,-1
 229 1102 l 2,13,14
 229 1152.11111111 229 1152.11111111 216 1166.55555556 c 0,15,16
 196.851485149 1187.83168317 196.851485149 1187.83168317 162.425742574 1190.91584158 c 0,17,18
 109 1195.70218579 109 1195.70218579 109 1217 c 128,-1,19
 109 1238.33333333 109 1238.33333333 137 1247.66666667 c 128,-1,20
 165 1257 165 1257 194 1270.5 c 128,-1,21
 223 1284 223 1284 250 1299.5 c 0,22,23
 307.52173913 1332.52173913 307.52173913 1332.52173913 334.260869565 1359.26086957 c 128,-1,24
 361 1386 361 1386 378 1386 c 128,-1,25
 395 1386 395 1386 395 1360 c 0,26,27
 395 1353 395 1353 391.5 1341.5 c 128,-1,28
 388 1330 388 1330 384.5 1306 c 0,29,30
 374 1234 374 1234 374 1136 c 2,31,-1
 374 678 l 2,32,33
 374 597.636363636 374 597.636363636 380.5 579.318181818 c 0,34,35
 391.967741935 547 391.967741935 547 428 547 c 1,36,-1
 470 551 l 1,37,38
 503 551 503 551 503 521 c 256,39,40
 503 489 503 489 453 489 c 1,41,-1
 299 499 l 257,0,-1
331 24 m 1,42,-1
 1194 1322 l 2,43,44
 1216.66666667 1356 1216.66666667 1356 1289 1356 c 0,45,46
 1305 1356 1305 1356 1305 1348 c 0,47,48
 1305 1334.25 1305 1334.25 1288 1313 c 1,49,-1
 425 15 l 1,50,51
 401.428571429 -15 401.428571429 -15 333 -15 c 0,52,53
 317 -15 317 -15 317 -4.25 c 128,-1,54
 317 6.5 317 6.5 331 24 c 1,42,-1
901 284 m 2,55,56
 870 284 870 284 870 300 c 1,57,58
 868.397260274 312.821917808 868.397260274 312.821917808 889 336 c 2,59,-1
 1357 861 l 2,60,61
 1391.32 900 1391.32 900 1408.66 900 c 128,-1,62
 1426 900 1426 900 1426 880 c 128,-1,63
 1426 860 1426 860 1424.5 844 c 128,-1,64
 1423 828 1423 828 1421 796.5 c 0,65,66
 1416 717.75 1416 717.75 1416 570 c 2,67,-1
 1416 367 l 1,68,-1
 1500 367 l 2,69,70
 1571 367 1571 367 1596 377 c 128,-1,71
 1621 387 1621 387 1631.5 387 c 128,-1,72
 1642 387 1642 387 1642 374.5 c 128,-1,73
 1642 362 1642 362 1630.5 343 c 128,-1,74
 1619 324 1619 324 1610.5 308.5 c 128,-1,75
 1602 293 1602 293 1594.5 288.5 c 128,-1,76
 1587 284 1587 284 1567 284 c 2,77,-1
 1416 284 l 1,78,-1
 1416 171 l 2,79,80
 1416 93.2727272727 1416 93.2727272727 1422.5 76.1363636364 c 0,81,82
 1433.17241379 48 1433.17241379 48 1470 48 c 1,83,-1
 1512 52 l 1,84,85
 1545 52 1545 52 1545 22 c 256,86,87
 1545 -10 1545 -10 1495 -10 c 1,88,-1
 1341 0 l 257,89,-1
 1189 -10 l 1,90,91
 1164 -10 1164 -10 1151.5 0.5 c 128,-1,92
 1139 11 1139 11 1139 22 c 0,93,94
 1139 52 1139 52 1172 52 c 1,95,-1
 1214 48 l 1,96,97
 1250.03225806 48 1250.03225806 48 1260.5 77.5 c 0,98,99
 1268 98.6363636364 1268 98.6363636364 1268 179 c 2,100,-1
 1268 284 l 1,101,-1
 901 284 l 2,55,56
1268 367 m 1,102,-1
 1268 663 l 1,103,-1
 998 367 l 1,104,-1
 1268 367 l 1,102,-1
EndSplineSet
EndChar

StartChar: twosuperior
Encoding: 178 178 124
Width: 760
Flags: HW
LayerCount: 2
Fore
SplineSet
411 770 m 1,0,-1
 101 760 l 2,1,2
 70 760 70 760 70 776 c 128,-1,3
 70 791.857142857 70 791.857142857 103 828 c 2,4,-1
 276 1021 l 1,5,6
 316 1068 316 1068 357.5 1115 c 128,-1,7
 399 1162 399 1162 433 1208.5 c 0,8,9
 510 1313.80882353 510 1313.80882353 510 1396.40441176 c 128,-1,10
 510 1479 510 1479 464.5 1529 c 128,-1,11
 419 1579 419 1579 344.5 1579 c 0,12,13
 215.905660377 1579 215.905660377 1579 159 1463 c 0,14,15
 142 1429 142 1429 134.5 1429 c 128,-1,16
 127 1429 127 1429 117.5 1435 c 128,-1,17
 108 1441 108 1441 99 1450 c 0,18,19
 77 1472 77 1472 77 1485 c 128,-1,20
 77 1498 77 1498 84.5 1513.5 c 128,-1,21
 92 1529 92 1529 105.5 1546 c 0,22,23
 192.852941176 1656 192.852941176 1656 370 1656 c 0,24,25
 586.097560976 1656 586.097560976 1656 650 1525 c 0,26,27
 670 1484 670 1484 670 1441 c 128,-1,28
 670 1398 670 1398 656.5 1362 c 128,-1,29
 643 1326 643 1326 615 1285 c 0,30,31
 569.149443561 1217.86168521 569.149443561 1217.86168521 445 1085 c 2,32,-1
 277 906 l 1,33,-1
 533 906 l 2,34,35
 591.9375 906 591.9375 906 610.96875 920.5 c 128,-1,36
 630 935 630 935 635.5 941.5 c 128,-1,37
 641 948 641 948 650 948 c 0,38,39
 670 948 670 948 670 926 c 0,40,41
 670 911.461538462 670 911.461538462 655.5 865.730769231 c 128,-1,42
 641 820 641 820 633 802.5 c 0,43,44
 614.485714286 762 614.485714286 762 599 762 c 2,45,-1
 411 770 l 1,0,-1
EndSplineSet
EndChar

StartChar: threesuperior
Encoding: 179 179 125
Width: 837
Flags: HW
LayerCount: 2
Fore
SplineSet
351 1656 m 1,0,-1
 586 1659 l 2,1,2
 609 1659 609 1659 609 1649.5 c 128,-1,3
 609 1640 609 1640 590 1612 c 2,4,-1
 439 1388 l 1,5,6
 581.196024942 1381.90588465 581.196024942 1381.90588465 671 1301.5 c 0,7,8
 762 1220.02325581 762 1220.02325581 762 1096 c 0,9,10
 762 968.191489362 762 968.191489362 665 865 c 0,11,12
 558.78 752 558.78 752 399 752 c 0,13,14
 258.863013699 752 258.863013699 752 159.5 833.5 c 0,15,16
 65 911.011235955 65 911.011235955 65 1010 c 0,17,18
 65 1040.39130435 65 1040.39130435 116.5 1069.5 c 0,19,20
 128 1076 128 1076 133.5 1076 c 0,21,22
 144.444444444 1076 144.444444444 1076 147.722222222 1036.5 c 128,-1,23
 151 997 151 997 171 957 c 128,-1,24
 191 917 191 917 224.5 888 c 0,25,26
 296.120689655 826 296.120689655 826 399 826 c 0,27,28
 498.785714286 826 498.785714286 826 563 884 c 0,29,30
 630 944.516129032 630 944.516129032 630 1041 c 0,31,32
 630 1152.50724638 630 1152.50724638 554.5 1210.5 c 0,33,34
 490.056603774 1260 490.056603774 1260 377 1260 c 1,35,-1
 306 1252 l 1,36,37
 290 1252 290 1252 290 1267 c 0,38,39
 290 1279.23076923 290 1279.23076923 310 1310 c 2,40,-1
 446 1520 l 1,41,-1
 254 1520 l 2,42,43
 202.666666667 1520 202.666666667 1520 189.833333333 1509 c 128,-1,44
 177 1498 177 1498 173 1493 c 128,-1,45
 169 1488 169 1488 157 1488 c 0,46,47
 140 1488 140 1488 140 1504 c 128,-1,48
 140 1520 140 1520 156.5 1551 c 128,-1,49
 173 1582 173 1582 190 1636 c 0,50,51
 197 1661 197 1661 218 1661 c 2,52,-1
 351 1656 l 1,0,-1
EndSplineSet
EndChar

